<svg width="42" height="75" viewBox="0 0 42 75" fill="none" xmlns="http://www.w3.org/2000/svg">
<path d="M0.960938 74.9989V1.14792H4.15394L4.66894 12.0659H4.97794C5.80194 10.0059 7.00361 8.08325 8.58294 6.29792C10.1623 4.44392 12.1193 2.96758 14.4539 1.86892C16.8573 0.701583 19.6726 0.11792 22.8999 0.11792C28.1186 0.11792 32.3073 1.73158 35.4659 4.95892C38.6246 8.18625 40.2039 13.1303 40.2039 19.7909V32.2539H36.1869V20.2029C36.1869 14.5036 34.9166 10.3493 32.3759 7.73992C29.8353 5.06192 26.5393 3.72292 22.4879 3.72292C17.4753 3.72292 13.2866 5.47392 9.92194 8.97592C6.62594 12.4093 4.97794 17.7309 4.97794 24.9409V47.4979H41.9549V50.9999H4.97794V74.9989H0.960938Z" fill="white"/>
</svg>
