<svg width="53" height="75" viewBox="0 0 53 75" fill="none" xmlns="http://www.w3.org/2000/svg">
<path d="M0.780762 5.24426L0.780762 0.864089C4.63308 3.04265 8.5882 4.73145 12.6458 5.92903L12.6488 5.92988C16.9409 7.16793 21.4759 7.78571 26.2517 7.78571C31.0261 7.78571 35.578 7.18804 39.9057 5.9906C43.9648 4.86746 47.904 3.16606 51.7226 0.88888L51.7226 5.23847C50.0019 6.36157 48.2296 7.43081 46.4057 8.44618C44.513 9.46048 42.5269 10.3584 40.4468 11.1397C38.3335 11.8801 36.107 12.4654 33.7668 12.895C31.4339 13.3233 28.9292 13.5383 26.2517 13.5383C21.7625 13.5383 17.3471 12.8169 13.0034 11.3729C8.73421 9.91479 4.66019 7.87251 0.780762 5.24426Z" fill="white" stroke="#181818"/>
<path d="M0.5 65.609L0.5 61.2288C4.35232 63.4074 8.30744 65.0962 12.3651 66.2938L12.368 66.2946C16.6602 67.5327 21.1952 68.1505 25.9709 68.1505C30.7453 68.1505 35.2972 67.5528 39.6249 66.3553C43.6841 65.2322 47.6232 63.5308 51.4419 61.2536L51.4419 65.6032C49.7211 66.7263 47.9488 67.7956 46.1249 68.8109C44.2323 69.8252 42.2461 70.7231 40.1661 71.5045C38.0527 72.2448 35.8262 72.8301 33.486 73.2597C31.1531 73.688 28.6485 73.9031 25.9709 73.9031C21.4818 73.9031 17.0663 73.1817 12.7226 71.7376C8.45345 70.2795 4.37943 68.2373 0.5 65.609Z" fill="white" stroke="#181818"/>
<path d="M7.48145 30.0217L9.72758 26.1313L44.7414 46.3465L42.4952 50.2369L7.48145 30.0217Z" fill="white"/>
<path d="M7.48145 46.3467L9.72758 50.2371L44.7414 30.0219L42.4952 26.1315L7.48145 46.3467Z" fill="white"/>
</svg>
