<svg width="3365" height="2101" viewBox="0 0 3365 2101" fill="none" xmlns="http://www.w3.org/2000/svg">
<g clip-path="url(#clip0_547_5)">
<path d="M2059.34 -184.176C2047.7 -179.521 2036.06 -175.448 2024.42 -170.794C1986.01 -155.666 1949.34 -154.503 1915 -182.43C1865.53 -222.576 1807.91 -246.431 1746.22 -259.813C1745.06 -257.485 1744.47 -255.158 1743.31 -252.831C1754.95 -248.758 1767.17 -246.431 1777.65 -240.612C1810.82 -223.158 1844.58 -206.867 1874.85 -185.339C1902.2 -165.557 1900.45 -138.212 1871.35 -121.921C1850.98 -110.284 1826.54 -105.63 1803.26 -100.975C1771.83 -95.1568 1740.4 -92.8295 1708.39 -85.8477C1718.87 -85.8477 1729.34 -85.8477 1740.4 -85.8477C1777.65 -86.4295 1804.42 -67.2293 1819.55 -36.3928C1825.96 -23.5927 1821.88 4.33479 1811.99 11.8985C1766.59 48.5533 1750.3 99.1718 1733.42 150.954C1707.23 230.082 1654.84 282.446 1572.78 301.646C1503.52 317.937 1433.68 332.483 1364.42 347.61C1331.24 354.592 1309.71 331.901 1320.77 299.319C1327.75 279.537 1338.81 260.918 1347.54 241.718C1334.15 257.427 1322.51 273.718 1307.96 288.264C1284.68 311.537 1255.58 308.628 1235.21 282.446C1221.83 265.573 1205.53 251.027 1195.05 232.991C1185.16 216.7 1174.1 195.754 1175.85 178.3C1181.67 126.517 1200.29 78.2262 1237.54 40.4078C1261.99 15.3894 1291.67 9.5712 1326.01 21.7895C1358.02 33.4259 1366.75 57.8624 1366.17 88.1172C1365.58 124.19 1365.58 159.681 1365 195.754C1369.66 159.681 1374.31 124.19 1377.81 88.1172C1379.55 70.0807 1375.48 50.8806 1378.97 33.4259C1387.12 -10.7926 1409.82 -43.3746 1459.87 -46.8656C1440.66 -45.1201 1421.46 -40.4655 1402.25 -42.7928C1373.15 -45.7019 1346.96 -59.6656 1335.9 -87.5931C1323.1 -120.175 1350.45 -143.448 1363.84 -169.048C1369.08 -178.357 1378.39 -185.339 1384.21 -192.321C1357.44 -180.103 1330.08 -164.975 1300.98 -155.084C1267.81 -144.03 1232.88 -141.121 1199.71 -159.157C1155.48 -183.012 1107.75 -180.685 1060.61 -173.703C1008.81 -165.557 967.486 -189.994 950.608 -240.612C945.952 -253.994 937.803 -266.213 931.401 -279.013C928.491 -277.267 925.581 -276.104 922.089 -274.358C923.253 -270.285 923.835 -265.631 925.581 -262.14C955.846 -202.212 948.862 -144.612 900.555 -99.2296C864.47 -65.4839 835.369 -28.2473 822.565 20.6258C819.655 31.6804 815.58 43.8987 808.596 52.626C796.374 67.7534 776.004 94.5173 769.601 91.6082C748.649 82.8808 727.114 65.4261 714.892 46.226C688.702 4.91662 668.913 -40.4655 643.886 -82.9385C635.738 -97.4841 620.024 -107.375 607.801 -119.593C613.04 -112.611 618.278 -105.63 622.352 -98.0659C648.542 -53.2656 677.643 -10.2107 700.342 36.9169C716.638 70.0807 722.458 109.063 692.776 139.899C664.839 168.409 630.5 159.681 597.907 148.045C576.373 140.481 554.838 130.59 533.886 121.863C559.494 134.663 583.939 149.79 610.712 159.681C653.781 175.391 693.94 194.009 717.22 234.736C725.368 249.282 724.786 271.973 719.548 288.264C716.056 299.319 697.432 310.955 685.209 312.119C658.437 314.446 631.082 310.955 604.309 308.628C547.272 303.973 500.129 322.592 462.298 365.646C472.192 360.41 483.251 355.755 492.563 349.355C530.976 323.755 572.881 313.282 619.442 320.264C673.569 328.41 695.104 366.81 673.569 416.847C667.749 430.81 662.511 445.356 657.273 459.902C669.495 445.938 681.135 431.974 693.94 416.847C698.596 422.083 702.67 424.992 702.088 426.156C683.463 458.738 664.839 491.32 642.14 531.466C666.585 501.793 685.791 479.684 703.252 456.411C714.892 440.701 727.114 426.156 748.067 434.301C771.929 443.029 769.601 465.72 770.183 486.084C770.766 500.047 770.183 514.011 770.183 527.975C772.512 514.011 771.347 497.138 778.332 486.084C785.316 475.029 800.448 465.138 813.252 462.229C823.729 459.902 842.935 466.883 847.009 475.029C872.618 531.466 894.152 589.066 889.496 652.485C888.914 660.63 885.422 669.939 881.348 676.921C862.142 706.012 838.279 706.594 820.819 676.34C811.506 660.048 805.686 640.848 799.866 622.812C789.39 590.812 779.496 558.811 769.601 526.811C785.898 583.248 800.448 640.267 820.237 695.54C836.533 742.085 819.655 806.086 780.078 834.595C730.024 871.25 675.897 886.959 614.204 878.232C546.69 868.341 488.489 833.431 534.468 745.576C543.78 727.54 551.928 708.922 563.569 683.903C534.468 701.358 522.828 688.558 523.41 669.939C524.574 647.83 528.066 622.23 540.288 604.194C561.823 571.611 590.341 543.684 615.95 513.429C603.727 522.157 590.341 530.884 578.701 540.193C539.124 572.193 518.171 573.939 475.684 544.848C459.97 534.375 445.42 520.993 432.616 506.447C385.472 455.247 374.414 434.883 433.78 387.174C410.499 400.556 388.382 418.01 363.356 425.574C285.948 450.011 216.688 428.483 154.995 379.61C129.968 359.828 108.434 334.81 85.1531 312.119C92.7193 322.01 103.196 330.737 107.852 341.792C114.836 357.501 124.148 376.119 121.82 391.828C113.09 449.429 65.9465 470.956 18.8034 490.738C-19.6095 507.029 -55.6943 507.611 -84.795 472.12L-84.2128 471.538C-74.3186 485.502 -66.1704 500.629 -55.1121 513.429C-23.6833 548.339 -15.5354 586.157 -35.3238 630.376C-53.9483 671.103 -79.5567 699.031 -127.864 707.176C-177.335 715.322 -226.224 732.194 -275.114 744.995C-273.95 749.067 -272.785 753.14 -271.621 757.213C-262.891 753.722 -253.579 750.813 -245.431 746.74C-201.198 723.467 -153.473 715.322 -105.166 718.231C-90.0332 719.394 -70.8265 731.031 -62.0963 743.831C-58.0222 749.649 -72.5727 774.086 -83.6309 782.231C-97.5993 792.122 -117.97 799.104 -134.266 797.359C-163.367 793.868 -191.885 783.395 -220.986 775.249C-228.552 772.922 -235.537 770.013 -242.521 767.104C-243.685 770.595 -244.849 774.086 -246.013 777.577C-215.748 786.304 -185.483 799.686 -154.637 803.177C-84.213 810.159 -26.5935 835.177 13.5655 896.268C42.0842 939.323 84.5711 966.669 131.714 985.869C85.1531 950.378 32.1897 923.614 1.34297 870.086C-16.6995 839.25 -17.8632 809.577 11.8195 790.377C58.9626 760.704 109.016 742.667 163.725 772.34C178.857 780.486 193.99 789.213 209.122 797.94C191.662 780.486 170.709 765.358 157.323 744.995C147.429 729.867 141.609 708.922 142.773 690.885C143.355 679.83 157.905 663.539 169.545 660.048C230.075 643.176 322.615 678.667 360.446 726.958C387.218 760.704 417.483 792.122 447.166 822.959C466.954 843.322 475.103 879.395 461.716 900.341C429.123 950.96 353.462 955.032 316.213 908.487C317.959 913.141 320.287 917.214 321.451 921.868C337.747 978.305 313.885 1012.05 255.101 1007.98C213.196 1005.07 172.455 992.851 131.132 984.123C164.889 1012.05 206.794 1013.8 247.535 1016.71C266.742 1017.87 285.948 1016.71 305.154 1016.71C359.282 1016.12 383.144 1056.85 388.382 1099.91C394.784 1154.6 362.192 1187.18 303.99 1155.18C312.72 1161.58 320.869 1171.47 330.181 1174.38C356.954 1182.52 379.07 1194.74 381.398 1225.58C383.726 1255.83 361.028 1292.49 332.509 1304.71C309.811 1314.6 287.112 1323.91 266.159 1336.71C277.8 1333.22 289.44 1329.14 301.662 1325.65C327.271 1318.09 339.493 1327.4 339.493 1354.74C339.493 1364.05 337.165 1373.94 334.837 1383.25C333.091 1391.4 329.017 1398.96 328.435 1407.69C340.657 1387.33 350.552 1364.64 365.684 1347.18C375.578 1335.54 395.367 1323.33 408.171 1325.65C429.705 1329.14 446.584 1345.44 451.24 1371.04C462.88 1433.87 475.103 1496.13 489.071 1558.38C494.891 1583.98 492.563 1606.09 478.013 1627.62C436.108 1689.29 377.906 1726.53 303.99 1728.27C246.371 1730.02 188.752 1720.71 131.132 1716.64C142.191 1720.71 152.667 1726.53 163.725 1727.69C251.609 1738.17 291.186 1799.84 318.541 1873.73C326.107 1894.09 331.927 1915.62 332.509 1937.15C333.673 1981.37 329.599 2026.17 330.763 2070.39C331.345 2085.51 339.493 2100.64 344.731 2115.77C341.821 2081.44 338.911 2047.11 336.583 2012.79C331.927 1952.86 355.79 1903.4 386.636 1853.37C421.557 1796.93 554.256 1782.97 604.309 1842.89C614.204 1854.53 623.516 1866.75 633.41 1878.97C629.336 1870.24 624.68 1862.09 620.606 1853.37C604.891 1819.62 623.516 1778.89 659.019 1770.17C710.236 1757.37 766.109 1789.37 773.675 1842.31C777.75 1870.82 771.929 1901.66 765.527 1929.58C760.289 1951.11 730.606 1960.42 707.908 1955.77C672.405 1948.78 663.675 1915.04 644.468 1892.93C649.707 1903.98 653.199 1916.78 660.183 1926.68C691.029 1972.06 703.252 2020.35 700.924 2076.79C696.85 2161.73 617.114 2262.39 533.304 2274.61C495.473 2279.84 458.224 2277.51 430.87 2243.19C411.081 2218.75 388.964 2196.06 368.012 2172.2C373.25 2182.68 377.324 2193.73 384.308 2202.46C403.515 2226.9 425.049 2249 443.674 2273.44C469.864 2308.35 463.462 2337.44 427.96 2361.3C412.827 2371.19 397.113 2381.08 381.98 2390.39C313.303 2434.61 240.551 2472.42 158.487 2480.57C110.18 2485.22 63.0365 2471.26 28.6977 2431.12C5.41714 2403.77 -19.0274 2377.01 -42.8899 2349.66C-25.4295 2376.42 -7.38717 2402.61 8.32721 2429.95C13.5653 2438.68 17.6396 2453.81 13.5655 2460.79C9.49138 2467.77 -6.80501 2473.59 -15.5352 2471.84C-69.0805 2459.62 -122.044 2445.66 -175.007 2431.7C-183.737 2429.37 -191.886 2425.3 -200.034 2421.81C-201.198 2424.72 -202.362 2427.62 -203.526 2430.53C-169.187 2442.17 -134.848 2454.97 -99.9272 2465.44C-35.9057 2484.06 31.0259 2495.12 92.1374 2521.3C156.159 2548.64 217.27 2586.46 274.89 2626.61C329.017 2663.84 411.663 2685.37 465.79 2663.84C436.69 2655.7 405.261 2651.63 378.488 2639.41C334.255 2618.46 292.35 2592.86 249.863 2567.84C229.493 2556.21 224.255 2535.84 238.805 2518.97C255.101 2500.35 274.89 2482.9 296.424 2471.84C371.504 2432.28 447.748 2394.46 525.156 2358.97C568.807 2338.61 614.204 2321.15 660.765 2307.77C702.67 2295.55 735.263 2315.33 754.469 2355.48C762.035 2371.77 770.183 2388.06 778.332 2403.77C761.453 2356.64 735.845 2310.68 770.183 2260.64C755.633 2247.26 732.934 2236.79 727.696 2221.08C718.384 2189.08 714.892 2154.17 717.22 2121.59C718.966 2093.66 717.802 2054.68 752.723 2045.95C791.718 2036.06 809.178 2073.29 827.803 2098.89C853.993 2134.97 845.845 2180.35 813.252 2212.35C797.538 2228.06 784.152 2245.51 769.019 2261.81C786.48 2246.68 802.776 2230.39 821.401 2217C848.173 2197.22 880.184 2179.19 912.195 2191.4C966.904 2211.77 1015.79 2244.35 1050.13 2293.81C1067.59 2318.82 1071.08 2348.5 1058.28 2377.01C1023.36 2453.22 944.206 2496.86 861.56 2484.64C848.755 2482.9 834.205 2474.17 825.475 2464.28C808.014 2445.66 792.882 2424.13 777.168 2403.19C789.972 2425.88 802.194 2448.57 814.998 2470.68C849.919 2532.35 847.591 2545.15 796.374 2602.17C876.692 2570.75 957.01 2562.61 1035 2604.5C1025.69 2595.19 1017.54 2584.72 1007.65 2576.57C958.174 2535.84 976.216 2494.53 1005.9 2457.88C1021.03 2439.26 1037.33 2421.22 1053.04 2403.19C1091.46 2359.55 1141.51 2351.41 1195.64 2355.48C1203.78 2356.06 1211.93 2356.06 1220.66 2356.64L1220.08 2357.22C1160.13 2323.48 1133.94 2262.39 1157.8 2190.24C1114.15 2266.46 1067.01 2276.93 994.841 2225.73C986.111 2219.33 977.38 2213.51 969.232 2206.53C931.401 2171.04 906.375 2130.31 902.301 2075.62C897.644 2013.37 888.914 1951.11 877.856 1889.44C869.126 1842.31 889.496 1812.06 937.221 1808.57C966.322 1806.24 989.021 1815.55 1009.97 1835.91C1030.93 1855.69 1055.37 1871.4 1079.23 1888.28C1102.51 1903.98 1126.38 1918.53 1149.66 1934.24C1177.59 1952.28 1190.4 1979.04 1185.74 2011.62C1177.01 2071.55 1166.53 2131.48 1156.64 2191.4C1160.71 2184.42 1167.7 2177.44 1168.86 2169.3C1178.18 2121 1188.65 2072.71 1193.89 2023.84C1199.13 1974.97 1222.41 1941.22 1269.55 1930.75C1313.2 1921.44 1358.02 1918.53 1400.5 1906.89C1436.59 1897 1470.93 1898.75 1505.85 1907.48C1544.84 1917.37 1571.03 1938.89 1572.78 1983.69C1575.11 2038.97 1567.54 2089.59 1517.49 2126.24C1568.12 2111.11 1601.88 2130.31 1606.54 2182.1C1609.45 2214.68 1600.72 2248.42 1597.23 2281.59C1604.79 2247.84 1614.1 2214.68 1619.92 2180.93C1628.07 2132.06 1673.47 2100.64 1711.3 2122.17C1739.82 2138.46 1763.68 2160.57 1770.67 2194.31C1779.4 2237.95 1786.38 2281.59 1792.2 2325.81C1800.35 2384.57 1801.51 2441.01 1730.51 2467.77C1742.15 2468.93 1752.04 2465.44 1759.61 2467.77C1811.41 2484.64 1838.76 2563.77 1803.84 2605.66C1783.47 2630.68 1752.04 2646.39 1725.27 2666.75C1765.43 2648.72 1806.75 2632.43 1845.75 2612.64C1895.22 2588.21 1931.88 2589.95 1974.37 2624.86C2025.59 2666.75 2083.79 2690.61 2150.14 2691.19C2216.49 2691.77 2283.42 2689.44 2349.77 2688.86C2360.25 2688.86 2370.72 2690.03 2381.78 2689.44C2420.78 2688.28 2455.7 2682.46 2490.62 2659.19C2520.88 2639.41 2563.37 2628.35 2600.04 2628.93C2668.13 2630.1 2737.39 2638.83 2804.32 2651.63C2840.41 2658.61 2873 2680.72 2907.34 2695.26C2923.64 2702.24 2940.51 2706.9 2958.56 2713.3C2956.23 2708.64 2954.48 2703.99 2949.83 2694.1C2995.22 2694.68 3018.5 2736.57 3059.24 2740.06C3048.77 2733.08 3039.46 2723.19 3028.4 2719.12C3006.28 2710.97 3005.12 2694.1 3010.36 2676.64C3019.09 2645.81 3035.96 2623.12 3068.56 2609.73C3135.49 2582.39 3205.33 2559.7 3259.46 2507.33C3275.17 2491.62 3290.89 2475.92 3306.6 2460.21C3247.23 2485.22 3187.29 2509.08 3127.92 2534.68C3079.03 2555.63 3029.56 2559.7 2977.18 2549.81C2884.06 2531.19 2845.06 2421.81 2905.59 2348.5C2922.47 2328.71 2940.51 2309.51 2955.65 2288.57C3001.04 2226.31 3009.19 2153.59 3013.85 2079.69C3019.67 1996.49 3041.78 1920.86 3131.41 1887.11C3112.79 1890.02 3093.58 1892.93 3075.54 1898.17C3002.21 1918.53 2934.69 1894.09 2892.21 1832.42C2875.33 1807.98 2871.84 1783.55 2884.64 1755.62C2894.53 1733.51 2904.43 1711.4 2909.67 1688.13C2922.47 1632.27 2956.23 1592.13 2999.3 1557.22C3038.29 1525.8 3073.79 1490.31 3112.79 1458.89C3127.92 1446.67 3147.13 1435.62 3165.17 1433.29C3226.28 1425.73 3278.08 1451.91 3326.97 1484.49C3297.87 1458.31 3270.52 1429.8 3239.67 1405.94C3209.99 1382.67 3187.87 1318.09 3194.85 1282.02C3214.64 1184.27 3286.23 1138.89 3368.29 1102.82C3388.66 1093.51 3409.03 1083.62 3430.57 1073.72C3382.26 1074.89 3336.28 1081.87 3292.05 1076.05C3249.56 1070.23 3202.42 1059.76 3186.12 1008.56C3197.76 1046.96 3172.74 1083.03 3134.32 1083.03C3043.53 1083.03 2974.27 1025.43 2968.45 932.923C2967.87 921.287 2965.54 910.232 2963.21 898.596C2957.97 865.432 2973.11 842.159 3005.7 834.013C3048.19 823.54 3095.33 847.977 3122.68 895.686C3141.89 928.85 3160.51 963.178 3179.14 996.924C3163.42 963.178 3150.04 927.687 3130.25 896.268C3112.21 867.759 3084.85 845.068 3066.23 816.559C3050.51 792.122 3032.47 763.613 3031.89 736.267C3028.4 640.848 3048.19 547.175 3080.78 457.574C3097.08 411.61 3136.07 385.428 3182.63 376.119C3223.95 367.974 3261.2 354.592 3297.29 331.319C3368.29 284.773 3443.37 286.519 3517.87 324.337C3520.78 326.083 3524.27 327.246 3531.26 323.755C3517.87 314.446 3504.49 304.555 3490.52 296.41C3459.67 278.955 3429.41 260.918 3397.98 244.627C3363.06 226.591 3366.55 194.591 3366.55 164.336C3365.97 124.772 3370.04 85.2081 3364.8 46.226C3360.73 14.8076 3345.01 -15.4472 3334.54 -46.2837C3331.63 -45.1201 3329.3 -44.5383 3326.39 -43.3746C3332.79 -23.0109 3342.69 -3.2289 3345.6 17.7167C3352 54.9533 3358.98 92.19 3352 126.517C3345.01 164.336 3308.93 186.445 3274.01 193.427C3220.46 203.9 3164.59 213.791 3113.37 182.954C3073.21 159.1 3065.65 132.918 3074.38 86.9536C3080.78 54.3715 3084.27 20.044 3085.44 -13.7017C3088.35 -91.084 3143.05 -142.866 3221.63 -139.375C3227.45 -139.375 3232.68 -139.375 3240.25 -143.448C3148.87 -179.521 3065.65 -227.23 2992.89 -294.14C2987.66 -287.158 2984.16 -284.831 2984.75 -283.085C2995.22 -232.467 2959.72 -201.63 2931.78 -169.63C2893.37 -125.412 2804.32 -123.084 2744.96 -156.248C2694.9 -184.757 2641.36 -207.448 2586.65 -226.649C2618.66 -209.194 2650.09 -191.739 2682.1 -174.285C2803.74 -107.957 2804.32 -44.5383 2796.76 67.1716C2793.85 116.045 2789.19 165.5 2787.44 214.373C2786.86 231.245 2795.59 248.118 2797.34 264.991C2803.16 316.192 2767.66 344.119 2721.68 322.592C2690.25 307.464 2662.31 284.773 2633.21 264.409C2615.17 252.191 2597.71 238.227 2580.25 225.427C2604.11 251.609 2629.72 276.628 2652.42 303.973C2678.03 334.228 2679.19 384.265 2658.24 421.501C2637.87 457.574 2603.53 459.902 2569.77 452.338C2520.3 441.865 2471.41 425.574 2422.52 412.192C2427.76 416.265 2431.83 422.083 2437.65 424.992C2515.64 458.738 2596.54 472.702 2681.52 462.811C2694.32 461.065 2711.78 463.974 2721.68 471.538C2775.22 512.847 2770.57 597.793 2722.26 644.921C2650.67 715.322 2559.29 723.467 2469.08 735.104C2435.91 739.176 2400.99 731.031 2366.65 728.704C2289.82 724.049 2212.41 721.722 2135.59 715.903C2059.93 710.085 1999.4 626.303 2002.89 549.502C2005.8 494.811 2025.01 446.52 2043.05 397.065C2038.97 401.138 2034.32 404.047 2030.83 408.701C1992.41 455.829 1935.96 461.647 1889.4 423.247C1877.76 413.356 1864.37 405.21 1853.31 394.156C1821.3 363.901 1778.23 346.446 1757.86 303.391C1721.19 225.427 1736.33 113.136 1802.09 47.3897C1834.1 15.3894 1874.26 -10.7926 1914.42 -32.32C1962.15 -57.3384 1984.26 -50.3565 2016.86 -7.30165C2080.3 76.4808 2093.1 173.063 2077.97 273.137C2071.57 315.61 2054.11 355.755 2041.88 397.647C2044.79 393.574 2047.7 390.083 2049.45 386.01C2078.55 319.682 2097.18 251.027 2090.77 177.718C2089.03 155.609 2097.18 138.736 2118.13 132.336C2138.5 125.936 2158.87 128.845 2171.67 149.79C2179.82 163.172 2190.3 175.391 2194.95 189.354C2221.14 262.082 2275.85 309.21 2334.64 353.428C2300.3 313.282 2262.47 276.046 2232.2 232.991C2198.45 185.282 2179.24 130.008 2171.67 71.2444C2169.35 52.0442 2170.51 31.0986 2195.54 30.5168C2221.14 29.935 2249.66 28.7713 2272.36 38.6623C2330.56 64.8443 2385.85 96.8445 2441.73 125.936C2395.75 79.3899 2336.38 56.117 2277.02 31.6804C2246.17 18.8804 2210.09 17.1349 2190.3 -16.6108C2158.29 -72.4657 2175.17 -127.157 2202.52 -176.03C2233.37 -231.885 2287.49 -258.067 2350.35 -256.322C2312.52 -265.049 2274.11 -273.194 2240.35 -280.758C2210.09 -266.794 2179.82 -255.158 2150.72 -239.449C2118.71 -221.994 2088.45 -201.63 2057.6 -182.43C2084.95 -188.83 2112.89 -196.976 2140.83 -200.467C2164.11 -203.376 2176.91 -187.667 2169.93 -166.139C2158.29 -129.484 2144.32 -93.4113 2128.02 -59.0838C2120.46 -42.7928 2103.58 -31.7382 2084.37 -41.6291C2065.16 -52.1019 2044.79 -63.7384 2030.83 -79.4476C1996.49 -117.848 2002.31 -145.194 2045.96 -172.539C2051.2 -176.03 2055.27 -180.103 2059.34 -184.176ZM2929.46 18.8804C2946.92 50.8806 2962.63 84.6263 2981.84 115.463C3023.74 182.954 3010.94 229.5 2939.35 262.664C2930.62 266.737 2922.47 271.973 2913.74 276.628C2874.16 297.573 2824.11 276.628 2817.71 232.991C2807.23 166.081 2801.99 98.59 2826.44 32.8441C2829.93 22.9531 2838.66 13.644 2846.81 7.82574C2877.66 -15.4471 2905.59 -6.71982 2929.46 20.044C2924.22 12.4803 2917.23 5.49845 2914.32 -3.22889C2909.08 -17.7744 2900.35 -34.0655 2902.68 -48.0292C2911.99 -107.375 2994.64 -139.375 3041.78 -100.975C3056.33 -88.7568 3071.47 -65.4839 3070.3 -48.0292C3066.81 3.75297 3056.33 54.9534 3047.6 106.154C3044.11 124.772 3031.89 134.663 3014.43 122.445C2997.55 110.808 2982.42 96.2627 2969.61 79.9717C2954.48 61.3534 2942.84 39.826 2929.46 18.8804ZM1019.87 559.975C1004.74 571.612 990.185 584.993 973.306 594.303C959.92 601.284 940.714 609.43 929.073 604.775C917.433 600.121 910.449 580.339 905.211 565.793C895.316 536.702 887.75 507.029 879.02 477.356C875.528 466.302 870.872 455.829 867.38 444.774C858.067 416.265 875.528 397.647 893.57 381.937C911.031 366.81 932.565 356.919 957.592 370.301C1015.21 401.138 1075.74 409.865 1140.34 398.81C1158.97 395.901 1182.25 396.483 1186.91 417.429C1190.4 431.974 1180.5 450.592 1172.94 466.302C1169.44 473.865 1158.39 478.52 1150.24 482.593C1117.06 499.466 1083.31 515.757 1049.55 532.629C1080.98 523.32 1111.24 511.102 1143.25 506.447C1175.27 501.211 1186.91 522.157 1174.1 551.83C1165.37 572.775 1156.64 594.303 1150.24 616.412C1138.02 661.794 1129.87 708.922 1114.74 753.722C1108.92 771.177 1093.2 789.795 1076.9 797.94C1030.34 821.213 958.174 788.631 948.862 738.013C943.624 709.503 947.116 675.176 958.174 648.412C972.724 615.83 998.915 589.066 1019.87 559.975ZM866.216 1659.04C872.036 1674.16 874.946 1691.04 883.676 1704.42C899.391 1728.86 894.152 1752.71 887.168 1776.57C880.184 1802.75 845.263 1831.84 828.385 1827.18C804.522 1820.78 786.48 1796.35 783.57 1770.75C780.66 1739.33 775.421 1708.49 770.765 1677.66C770.765 1682.31 771.929 1687.55 770.765 1692.2C765.527 1710.82 764.945 1735.26 752.723 1746.31C734.681 1762.6 709.072 1756.2 688.119 1742.24C657.855 1723.04 625.262 1706.75 597.907 1684.64C569.971 1661.36 542.034 1635.18 523.41 1604.93C477.43 1530.45 476.849 1443.18 463.462 1359.98C458.224 1325.65 501.293 1298.89 532.722 1314.6C556.003 1326.23 577.537 1341.36 597.907 1357.07C618.86 1373.94 637.484 1393.73 657.273 1412.34C642.722 1388.49 625.262 1366.38 615.368 1341.36C605.473 1316.34 618.278 1304.13 644.468 1310.53C670.659 1316.93 695.686 1326.24 721.876 1333.22C769.019 1346.02 805.686 1393.73 812.088 1441.44C817.909 1486.82 829.549 1531.04 838.861 1575.84C835.951 1546.16 829.549 1516.49 830.131 1486.82C830.713 1433.29 872.036 1410.02 919.761 1434.45C931.401 1440.85 943.042 1449 952.936 1457.73C974.47 1476.35 995.423 1496.71 1016.96 1515.91C1011.72 1508.35 1007.06 1499.62 1000.08 1493.22C951.19 1447.84 919.761 1394.31 906.375 1327.98C896.48 1279.11 895.316 1234.89 926.745 1193.58C933.729 1184.85 936.639 1173.22 941.878 1162.74C932.565 1172.63 920.925 1181.36 915.105 1193C887.168 1251.18 831.877 1280.85 785.316 1319.25C774.839 1327.98 754.469 1332.05 741.665 1328.56C670.077 1309.36 598.489 1288.42 528.066 1264.56C494.891 1252.93 465.208 1229.07 456.478 1193C444.256 1140.63 445.42 1087.69 469.864 1036.49C484.997 1003.91 503.039 982.96 543.198 982.378C585.685 981.796 627.59 975.978 657.855 937.578C674.733 916.632 699.76 902.087 721.876 885.214C729.442 879.395 738.755 876.486 746.903 871.25C778.914 849.723 810.342 827.031 843.517 806.668C882.512 782.813 903.465 789.795 926.163 830.522C951.772 875.905 977.962 920.705 1004.15 966.087C1033.25 1015.54 1028.02 1064.41 990.185 1106.31C976.798 1121.43 965.74 1138.31 953.518 1154.6C966.322 1142.38 978.544 1130.16 991.349 1118.52C1083.31 1033 1192.73 1029.51 1285.27 1113.87C1367.33 1188.34 1468.6 1213.94 1572.2 1234.31C1637.38 1247.11 1711.88 1289.58 1721.19 1362.89C1723.52 1379.76 1731.67 1395.47 1736.91 1411.76C1734 1395.47 1731.09 1379.76 1727.6 1363.47C1709.55 1275.62 1735.16 1219.18 1811.41 1174.38C1833.52 1161.58 1854.48 1145.87 1876.01 1131.91C1895.8 1119.11 1914.42 1098.74 1935.96 1094.67C1988.34 1084.2 2037.81 1094.09 2075.06 1138.89C2083.21 1148.2 2093.1 1156.34 2101.83 1165.07C2100.09 1158.67 2096.59 1152.27 2096.01 1145.87C2094.85 1127.83 2087.86 1105.14 2096.01 1092.34C2108.82 1071.98 2134.42 1073.72 2156.54 1081.29C2174 1087.11 2191.46 1091.76 2208.92 1097.58C2235.11 1106.31 2262.47 1117.94 2268.29 1147.03C2275.27 1182.52 2275.85 1219.76 2277.6 1256.42C2278.18 1275.62 2267.12 1287.25 2247.92 1277.94C2212.41 1259.91 2178.08 1239.54 2143.15 1220.34C2158.87 1235.47 2173.42 1251.76 2190.88 1265.14C2232.2 1296.56 2275.85 1325.07 2315.43 1357.65C2357.92 1392.56 2361.41 1447.25 2330.56 1492.64C2308.45 1525.22 2288.66 1558.96 2267.12 1592.13C2297.39 1564.2 2325.91 1533.36 2359.08 1510.09C2394.58 1485.65 2432.42 1492.64 2466.17 1520.56C2488.87 1539.76 2512.73 1557.8 2537.76 1574.09C2607.02 1620.06 2684.43 1631.11 2765.91 1627.62C2807.23 1625.87 2827.02 1638.09 2838.08 1667.76C2848.56 1696.27 2838.66 1737 2815.96 1757.95C2780.46 1791.69 2736.81 1803.33 2690.25 1817.87C2639.03 1833.58 2589.56 1830.67 2539.51 1834.17C2510.99 1835.91 2481.3 1831.26 2453.37 1824.27C2409.72 1813.22 2367.23 1795.18 2323.58 1783.55C2252.57 1764.93 2218.82 1701.51 2246.17 1633.44C2249.66 1625.29 2252.57 1617.15 2255.48 1609C2242.1 1631.69 2226.38 1652.64 2216.49 1676.49C2187.97 1741.66 2143.74 1787.04 2073.89 1806.24C2047.12 1813.8 2017.44 1819.62 1996.49 1835.91C1931.88 1886.53 1879.5 1949.95 1841.67 2022.68C1815.48 2072.71 1775.9 2091.33 1723.52 2089C1676.96 2086.68 1621.67 2043.04 1610.03 1997.08C1601.3 1962.75 1591.99 1926.68 1592.57 1891.18C1593.15 1857.44 1596.06 1816.71 1614.69 1791.11C1658.34 1731.18 1695.59 1668.93 1720.03 1599.11C1714.79 1606.67 1709.55 1614.82 1704.9 1622.38C1676.38 1670.09 1649.02 1718.96 1618.76 1765.51C1593.15 1805.07 1551.83 1816.13 1508.76 1809.15C1477.33 1804.49 1447.07 1789.37 1417.38 1776.57C1374.9 1757.95 1335.32 1732.35 1291.67 1718.38C1186.32 1685.22 1100.77 1627.62 1038.49 1536.27C1032.67 1528.13 1023.94 1521.73 1016.38 1514.75C1034.42 1540.93 1053.04 1566.53 1069.34 1593.29C1076.32 1604.35 1083.31 1622.38 1078.65 1632.27C1065.85 1659.62 1050.13 1686.96 1029.18 1708.49C989.021 1749.22 916.851 1737.58 886.586 1690.46C879.602 1679.98 872.618 1669.51 866.216 1659.04ZM2772.31 1913.88C2821.2 1869.08 2866.6 1887.69 2908.5 1924.35C2942.26 1954.02 2940.51 1995.33 2907.92 2042.46C2894.53 2061.66 2879.98 2079.69 2870.09 2100.64C2839.24 2164.64 2818.87 2232.13 2811.89 2303.11C2810.14 2318.24 2801.99 2334.53 2792.68 2347.33C2779.3 2365.95 2759.51 2368.86 2747.87 2347.91C2732.73 2320.57 2717.02 2291.48 2712.95 2261.22C2704.22 2203.04 2702.47 2143.7 2698.98 2084.93C2696.65 2038.97 2708.87 1997.08 2739.72 1961.58C2750.2 1949.37 2760.09 1935.4 2769.98 1922.6C2754.85 1935.98 2738.55 1948.2 2725.17 1963.33C2704.22 1987.19 2677.44 1991.26 2651.83 1982.53C2623.32 1972.64 2598.87 1953.44 2591.89 1920.86C2584.9 1888.86 2595.96 1864.42 2627.39 1854.53C2659.4 1844.64 2693.16 1837.07 2726.33 1835.91C2775.8 1833.58 2795.59 1870.24 2772.31 1913.88ZM912.195 52.0442C936.057 9.5712 968.068 -29.9927 981.454 -75.3749C1012.3 -183.012 1121.14 -186.503 1190.98 -153.921C1236.38 -132.975 1246.27 -87.0113 1220.66 -45.1201C1214.84 -35.8109 1209.02 -27.0836 1205.53 -17.1926C1189.23 32.2623 1150.82 57.2806 1106.01 77.0626C1079.23 88.699 1051.3 98.59 1028.6 116.045C989.021 146.881 954.1 183.536 915.105 214.954C903.465 224.264 880.766 228.918 868.544 223.682C856.322 218.445 841.771 195.754 844.099 184.118C848.755 160.263 862.724 137.572 874.946 114.881C886.586 92.7718 900.554 72.408 913.359 50.8806C906.957 57.8624 901.719 67.7534 894.152 71.8262C879.02 79.3899 862.142 84.0444 845.845 89.8627C840.607 74.1535 830.713 57.8625 831.877 42.7351C836.533 -13.7017 860.978 -59.0838 914.523 -84.684C923.253 -88.7568 938.967 -93.9932 942.459 -90.5022C949.444 -83.5204 954.1 -68.9748 951.772 -60.2475C939.549 -21.8472 924.999 14.8076 912.195 52.0442ZM1273.63 700.194C1266.06 707.176 1258.49 714.74 1250.35 720.558C1234.63 731.031 1220.08 744.413 1202.62 750.231C1161.88 764.776 1132.2 739.176 1142.09 697.285C1150.82 660.048 1160.71 622.23 1173.52 586.157C1190.4 540.193 1249.76 523.902 1288.18 554.157C1307.38 569.284 1324.26 586.739 1306.8 616.994C1291.67 643.176 1283.52 672.849 1272.46 700.776C1287.01 679.83 1299.82 657.139 1316.11 637.357C1324.84 626.885 1341.14 612.339 1350.45 614.666C1380.13 621.648 1410.98 630.957 1434.84 647.83C1453.47 661.212 1469.76 686.23 1473.84 708.34C1488.39 788.049 1463.36 860.777 1423.2 929.432C1409.23 952.705 1345.8 987.033 1323.68 978.887C1279.45 963.178 1234.05 946.887 1192.73 924.196C1149.66 900.923 1146.16 879.395 1158.39 832.85C1167.7 797.359 1193.31 776.413 1219.5 754.886C1239.29 739.176 1255.58 718.812 1273.63 700.194ZM2392.26 2492.21C2409.13 2509.08 2427.18 2525.37 2442.89 2543.41C2474.32 2578.9 2489.45 2626.61 2455.7 2647.55C2427.18 2665.59 2392.26 2680.14 2359.08 2683.04C2290.99 2688.86 2222.31 2684.79 2153.63 2685.95C2068.66 2687.12 2002.31 2651.04 1951.09 2585.88C1902.78 2524.79 1927.81 2461.37 2004.64 2445.08C2033.74 2438.68 2062.25 2429.95 2091.94 2423.55C2125.69 2415.99 2160.03 2405.52 2193.79 2405.52C2240.35 2405.52 2289.24 2408.42 2329.4 2438.68C2350.93 2454.97 2370.72 2473.59 2391.67 2491.04C2381.2 2477.08 2370.72 2463.12 2360.25 2449.15C2300.3 2368.28 2307.86 2330.46 2393.42 2279.26C2433.58 2255.41 2473.16 2261.81 2505.75 2295.55C2537.76 2328.71 2565.7 2365.37 2611.68 2382.82C2624.48 2388.06 2636.12 2408.42 2639.61 2424.13C2650.67 2473.59 2595.38 2535.84 2544.74 2538.17C2488.29 2540.5 2438.24 2523.04 2392.26 2492.21ZM2490.03 1255.83C2537.76 1240.71 2566.28 1204.05 2590.14 1163.32C2624.48 1106.31 2665.8 1056.27 2724.59 1022.52C2800.83 978.887 2879.4 978.887 2939.35 1049.87C2964.96 1080.12 2976.02 1115.62 2988.24 1152.85C3011.52 1221.51 2936.44 1295.98 2876.49 1287.25C2739.14 1267.47 2611.68 1298.31 2492.94 1369.87C2467.34 1385 2439.98 1397.8 2411.46 1407.69C2380.62 1418.74 2354.43 1401.29 2356.75 1371.62C2359.08 1339.62 2373.63 1312.27 2405.06 1297.14C2421.36 1289 2438.82 1282.6 2455.7 1275.03C2435.33 1280.27 2414.37 1284.34 2394.58 1291.33C2337.55 1310.53 2320.09 1301.22 2307.28 1242.45C2306.12 1236.63 2304.95 1230.82 2303.21 1225.58C2293.31 1190.09 2306.12 1161.58 2334.64 1142.38C2359.66 1126.09 2388.18 1115.03 2407.97 1105.14C2382.94 1108.05 2358.5 1088.85 2341.04 1063.25C2333.47 1052.2 2332.89 1031.25 2338.13 1018.45C2349.77 991.687 2367.81 968.414 2382.36 942.814C2397.49 917.214 2410.88 891.032 2426.01 865.432C2429.51 859.032 2435.91 852.632 2442.89 850.886C2463.26 845.65 2484.21 839.25 2505.17 839.25C2533.1 838.668 2558.13 846.813 2573.84 873.577C2625.64 962.014 2581.99 1067.91 2480.14 1095.25C2489.45 1095.25 2497.02 1097.58 2502.26 1094.67C2527.87 1083.62 2536.01 1099.91 2544.74 1119.11C2561.62 1156.92 2556.97 1190.67 2527.87 1220.34C2516.81 1233.14 2502.84 1244.2 2490.03 1255.83ZM1908.6 2303.7C1892.31 2268.79 1876.01 2234.46 1859.71 2199.55C1836.43 2149.51 1827.7 2094.82 1846.91 2044.79C1873.68 1974.38 1915 1909.8 1982.52 1869.66C2011.04 1852.78 2043.63 1841.73 2074.48 1829.51C2105.32 1817.29 2131.51 1828.35 2140.24 1860.93C2147.23 1886.53 2147.81 1913.88 2150.14 1940.64C2154.21 1990.09 2157.7 2040.13 2161.78 2089.59C2160.61 2054.09 2156.54 2018.02 2158.29 1982.53C2160.61 1937.15 2150.14 1888.28 2187.39 1850.46C2226.96 1810.31 2277.02 1771.91 2341.04 1801C2355.59 1807.98 2373.05 1809.15 2389.35 1812.06C2450.46 1822.53 2495.85 1891.18 2473.74 1949.37C2446.97 2018.02 2442.89 2088.42 2442.89 2159.99C2442.89 2228.64 2393.42 2289.73 2327.07 2304.28C2317.18 2306.61 2304.37 2307.19 2296.81 2302.53C2250.83 2275.77 2211.83 2240.86 2193.21 2189.66C2180.99 2156.5 2172.26 2122.17 2161.78 2087.84C2174 2135.55 2180.99 2185 2199.61 2230.39C2219.4 2277.51 2207.76 2315.33 2182.73 2352.57C2153.05 2397.37 2104.74 2415.41 2055.85 2427.62C1990.08 2443.92 1948.18 2417.15 1927.23 2353.15C1921.41 2335.7 1915 2318.82 1908.6 2301.95C1912.09 2318.82 1916.17 2335.11 1919.08 2351.99C1924.9 2382.24 1917.33 2407.84 1892.89 2427.04C1869.61 2445.66 1835.27 2438.1 1827.12 2409.01C1813.73 2360.13 1802.68 2309.51 1796.86 2259.48C1795.11 2242.02 1811.99 2222.24 1820.72 2203.62C1837.02 2213.51 1856.8 2220.5 1867.86 2234.46C1884.16 2255.41 1895.22 2280.42 1908.6 2303.7ZM1442.41 965.505C1448.81 943.396 1455.21 921.287 1461.03 899.177C1472.67 853.214 1488.39 808.413 1493.63 761.867C1502.36 685.649 1575.11 639.103 1644.95 671.685C1698.5 696.703 1736.33 739.758 1768.34 787.468C1806.17 844.486 1840.51 903.832 1878.92 960.269C1916.17 1014.96 1914.42 1064.41 1872.52 1116.2C1840.51 1155.76 1796.27 1174.38 1751.46 1193C1703.15 1212.78 1661.83 1193.58 1624 1166.82C1584.42 1138.31 1548.92 1102.23 1507.01 1078.96C1461.62 1052.2 1445.32 1016.12 1442.41 965.505ZM2801.41 1291.33C2831.68 1295.4 2863.11 1296.56 2892.79 1304.13C2941.1 1316.93 2956.23 1336.71 2958.56 1386.16C2959.72 1408.85 2955.65 1432.13 2950.41 1454.82C2934.11 1526.96 2896.86 1579.91 2818.87 1598.53C2764.16 1611.33 2708.87 1631.69 2653.58 1614.82C2583.16 1593.29 2512.73 1568.27 2466.75 1501.36C2434.16 1454.24 2431.83 1437.36 2470.25 1396.05C2479.56 1386.74 2492.36 1380.34 2504 1373.36C2595.96 1319.83 2695.49 1296.56 2801.41 1291.33ZM2292.73 741.504C2307.86 744.995 2332.31 749.649 2356.17 757.213C2419.61 778.158 2431.25 818.886 2395.17 874.159C2366.07 918.378 2341.04 965.505 2313.68 1010.89C2289.82 1050.45 2264.8 1090.6 2209.5 1083.62C2179.82 1079.54 2150.14 1073.72 2122.2 1063.83C2097.76 1054.52 2079.13 1033.58 2079.71 1006.23C2080.88 945.723 2078.55 884.632 2122.2 833.432C2165.27 783.395 2213 744.995 2292.73 741.504ZM1501.77 320.264C1556.48 326.082 1605.37 339.464 1626.33 388.338C1650.19 443.611 1666.48 502.956 1681.62 561.139C1691.51 600.703 1633.89 653.648 1595.48 645.503C1536.7 632.703 1486.06 604.775 1437.17 571.03C1389.45 537.866 1360.93 494.811 1357.44 437.211C1356.85 425.574 1358.02 411.029 1364.42 402.301C1400.5 355.755 1449.98 331.901 1501.77 320.264ZM2030.24 750.231C2024.42 778.158 2018.6 822.377 2005.22 864.268C1986.01 921.287 1909.77 941.65 1869.61 901.505C1818.39 849.723 1773.58 793.286 1758.44 718.813C1753.79 696.703 1755.53 676.921 1772.41 664.121C1812.57 632.703 1852.73 601.284 1895.8 574.521C1922.57 557.648 1960.98 568.702 1983.1 591.975C2022.1 631.539 2026.17 682.158 2030.24 750.231ZM1041.4 236.482C1104.26 242.882 1134.52 255.1 1157.8 291.173C1190.4 341.792 1174.1 383.683 1121.14 391.828C1061.77 400.556 1003.57 391.828 952.354 355.755C912.195 327.828 912.195 287.1 954.682 260.918C969.814 251.609 986.111 245.791 1007.06 235.9C990.767 235.9 980.29 237.064 969.814 235.318C961.084 233.573 949.444 230.664 945.952 224.264C943.042 219.027 948.862 206.227 954.1 200.409C973.306 181.209 991.931 160.845 1014.05 146.299C1043.73 126.517 1075.16 109.063 1107.75 94.5173C1139.18 80.5535 1154.89 91.0263 1158.97 125.354C1160.71 140.481 1161.3 156.19 1163.04 171.9C1167.12 215.536 1150.24 234.736 1104.84 236.482C1083.89 237.064 1062.94 236.482 1041.4 236.482ZM3032.47 493.647C3034.8 494.229 3036.55 494.811 3038.87 495.393C3027.82 534.957 3016.76 574.521 3005.12 614.085C2996.97 642.012 2982.42 664.121 2950.41 666.449C2914.91 668.194 2879.98 661.794 2864.85 625.721C2849.14 587.903 2830.51 547.757 2829.35 508.193C2828.18 475.029 2842.74 432.556 2865.43 409.283C2896.86 376.701 2947.5 370.883 2990.57 387.174C3030.73 402.883 3028.98 445.938 3031.89 482.011C3032.47 486.084 3032.47 490.156 3032.47 493.647ZM2796.17 889.868C2788.61 910.814 2785.12 934.669 2772.31 951.541C2751.36 980.051 2728.66 1010.31 2686.76 1007.4C2643.69 1003.91 2625.06 974.814 2614 935.832C2605.27 904.414 2591.31 874.159 2578.5 844.486C2563.37 810.74 2577.92 770.595 2610.51 761.867C2633.79 755.467 2657.07 748.485 2680.94 746.74C2697.23 745.576 2717.02 748.485 2729.82 756.631C2778.13 787.468 2775.8 842.741 2796.17 889.868ZM1686.27 502.375C1685.69 445.938 1734.58 383.101 1787.54 372.628C1796.27 370.883 1808.5 372.046 1814.32 377.283C1845.16 404.629 1877.76 431.392 1902.78 463.393C1930.14 497.72 1920.83 525.648 1886.49 552.411C1852.15 579.757 1811.41 593.721 1771.25 609.43C1736.33 622.812 1703.73 608.266 1696.17 571.612C1690.93 548.339 1689.18 523.902 1686.27 502.375ZM1321.93 1917.95C1292.25 1909.8 1256.75 1906.31 1226.48 1891.18C1181.09 1869.08 1174.68 1820.2 1170.61 1775.98C1167.12 1736.42 1209.6 1707.33 1248.6 1713.73C1302.73 1722.46 1349.29 1748.06 1394.68 1775.4C1435.43 1799.84 1435.43 1875.48 1394.1 1899.33C1375.48 1910.38 1350.45 1910.97 1321.93 1917.95ZM2700.14 2241.44C2698.4 2256.57 2697.81 2285.66 2691.99 2314.17C2680.35 2371.77 2616.91 2391.55 2573.26 2352.57C2555.8 2336.86 2539.51 2320.57 2523.21 2304.28C2497.02 2278.1 2491.2 2247.84 2509.82 2215.84C2520.88 2196.64 2536.01 2180.35 2551.15 2164.06C2563.95 2150.68 2579.08 2140.2 2593.05 2127.99C2618.66 2104.71 2637.28 2104.71 2664.64 2126.82C2696.65 2153.59 2697.81 2190.24 2700.14 2241.44ZM2842.74 2534.68C2844.48 2590.53 2801.99 2627.77 2749.03 2623.7C2718.77 2621.37 2688.5 2612.06 2658.82 2605.66C2624.48 2598.68 2605.27 2561.44 2620.41 2529.44C2641.36 2484.64 2670.46 2451.48 2719.35 2429.95C2765.33 2410.17 2824.69 2440.42 2834.59 2484.06C2838.66 2504.43 2840.99 2524.79 2842.74 2534.68ZM3004.54 2089C2997.55 2164.06 2985.91 2242.02 2918.98 2300.21C2898.03 2318.24 2875.91 2331.62 2851.47 2320.57C2827.02 2309.51 2829.35 2282.17 2832.26 2258.31C2840.99 2187.33 2870.09 2124.5 2912.58 2068.06C2925.96 2050.02 2942.84 2033.15 2960.88 2019.19C2977.76 2006.39 2992.89 2012.2 2997.55 2033.73C3001.04 2049.44 3001.63 2066.31 3004.54 2089ZM453.568 627.466C501.293 633.866 508.277 639.685 511.187 688.558C512.933 718.812 507.695 749.649 507.695 780.486C507.695 796.195 507.113 811.904 489.071 814.231C473.939 816.559 455.314 817.722 443.674 810.159C425.631 798.522 410.499 780.486 396.531 763.031C370.34 730.449 369.758 718.231 392.456 682.158C403.515 664.121 416.901 647.248 430.287 628.048C365.684 629.212 317.377 569.866 351.715 511.684C365.684 488.411 383.144 479.102 404.679 497.138C424.467 513.429 441.928 533.793 457.642 554.157C482.087 586.739 480.341 598.957 453.568 627.466ZM1345.21 1044.63C1358.02 1044.63 1362.67 1044.63 1367.91 1044.63C1422.62 1047.54 1468.6 1075.47 1517.49 1097C1546.59 1109.8 1568.12 1129.58 1582.09 1156.34C1588.5 1168.56 1590.82 1191.25 1583.84 1200.56C1575.11 1211.62 1554.74 1217.43 1539.61 1216.85C1519.82 1216.27 1500.61 1206.96 1480.82 1202.89C1410.4 1187.76 1346.38 1158.67 1295.16 1108.05C1285.85 1098.74 1281.19 1080.12 1282.94 1066.74C1284.1 1059.18 1302.14 1052.2 1313.78 1048.71C1325.42 1044.63 1339.39 1045.21 1345.21 1044.63ZM2625.06 2036.06C2625.64 2083.77 2574.43 2154.17 2530.19 2167.55C2495.85 2178.02 2449.29 2151.84 2448.13 2120.42C2445.8 2065.15 2457.44 2012.79 2486.54 1965.08C2491.78 1956.93 2500.51 1948.78 2509.24 1944.71C2570.35 1915.62 2618.66 1980.78 2625.06 2036.06ZM954.1 858.45C962.248 833.432 958.174 803.759 987.275 805.504C1024.52 807.831 1061.77 816.559 1097.28 827.031C1111.24 831.104 1128.7 843.904 1132.78 856.704C1145.58 891.614 1153.73 928.85 1160.71 965.505C1168.28 1003.91 1145.58 1023.69 1107.75 1017.29C1053.62 1007.98 1014.63 977.142 989.021 929.432C976.216 904.414 964.576 879.396 954.1 858.45ZM3083.69 1114.45C3099.99 1119.69 3119.19 1121.43 3131.41 1131.91C3166.92 1161 3186.12 1202.31 3193.11 1245.94C3196.02 1263.98 3186.71 1289.58 3173.9 1303.54C3134.32 1348.34 3045.86 1327.98 3025.49 1270.96C3017.92 1249.43 3012.1 1226.74 3007.45 1204.05C2998.72 1158.09 3035.38 1116.78 3083.69 1114.45ZM3145.38 374.956C3095.91 380.192 3070.88 360.41 3060.99 331.901C3054.01 312.119 3059.24 281.864 3070.88 264.409C3084.85 243.464 3099.4 213.791 3134.91 217.864C3175.65 223.1 3216.97 228.336 3257.71 234.155C3289.14 238.227 3296.12 253.355 3284.48 284.191C3256.55 354.01 3191.94 361.574 3145.38 374.956ZM342.985 507.029C338.911 529.72 335.419 557.066 329.017 583.248C322.615 610.012 277.218 641.43 250.445 638.521C213.778 635.03 184.096 609.43 181.185 576.848C180.021 564.63 183.513 551.83 182.931 539.611C181.185 497.72 208.54 470.374 237.059 448.847C249.863 438.956 277.218 444.774 297.006 448.265C334.837 454.665 342.403 465.72 342.985 507.029ZM1064.68 1736.42C1119.39 1734.09 1156.06 1763.77 1168.86 1814.38C1179.92 1858.02 1149.07 1894.68 1104.84 1884.78C1058.86 1874.31 1021.03 1849.88 1005.32 1801C997.169 1774.82 1009.39 1749.22 1036.16 1741.07C1047.22 1738.17 1060.03 1737.58 1064.68 1736.42ZM3040.04 1354.74C3081.94 1354.16 3122.68 1397.22 3116.28 1435.62C3111.63 1462.38 3033.64 1527.55 3005.7 1525.8C2986.49 1524.64 2966.7 1516.49 2967.87 1494.38C2969.61 1462.96 2975.43 1431.54 2981.84 1400.71C2987.66 1372.2 3011.52 1354.74 3040.04 1354.74ZM886.004 2002.31C885.422 2002.31 884.84 2002.89 884.258 2002.89C884.258 2020.35 887.168 2038.39 883.094 2054.68C880.184 2066.89 869.708 2082.02 859.232 2086.68C851.083 2090.17 833.623 2082.02 826.057 2073.29C809.76 2055.84 799.284 2033.15 783.57 2015.11C762.035 1990.68 766.691 1965.66 775.422 1939.48C778.914 1928.42 784.734 1918.53 788.808 1907.48C802.776 1871.98 814.998 1866.75 846.427 1888.28C857.485 1895.84 868.544 1908.64 872.036 1920.86C878.438 1947.62 881.348 1975.55 886.004 2002.31ZM2840.99 726.958C2863.11 728.704 2885.8 742.085 2902.1 765.94C2917.23 788.049 2903.85 807.249 2892.21 824.122C2882.31 838.086 2867.76 848.559 2856.12 861.359C2840.41 878.232 2825.86 873.577 2810.72 861.359C2789.19 843.904 2768.24 774.667 2778.71 749.067C2782.21 741.504 2792.1 733.94 2800.25 731.031C2810.72 727.54 2822.95 728.704 2840.99 726.958ZM173.619 526.229C174.783 566.957 149.757 606.521 121.238 607.684C86.8992 608.848 43.2483 570.448 40.9202 537.866C39.1742 514.011 93.8833 467.465 125.894 465.138C156.159 462.811 172.455 483.175 173.619 526.229ZM53.7242 706.594C26.9516 711.249 9.49145 697.285 -2.73084 675.176C-16.1172 650.739 -19.0275 623.975 -1.5671 601.866C5.41707 592.557 25.2058 584.993 35.1001 587.903C65.9468 598.375 95.6292 612.339 123.566 629.212C131.714 633.866 136.952 661.212 132.878 664.703C109.598 683.321 89.8091 711.249 53.7242 706.594ZM565.897 972.487C542.034 968.414 523.992 967.832 508.277 962.014C497.219 957.941 479.759 946.305 480.341 938.741C480.923 921.868 486.743 900.923 498.383 890.45C510.605 879.977 533.304 875.323 549.6 878.232C576.373 882.886 603.145 893.941 628.172 906.159C650.87 917.214 649.707 941.65 626.426 952.705C606.055 962.596 582.775 967.251 565.897 972.487ZM2859.61 640.267C2859.03 693.212 2843.32 709.503 2807.81 708.922C2767.07 707.758 2752.52 694.376 2754.85 657.721C2756.02 638.521 2759.51 619.321 2763.58 600.703C2768.82 578.593 2812.47 561.72 2824.69 578.012C2841.57 600.121 2852.63 626.885 2859.61 640.267ZM459.97 932.341C463.462 1006.81 433.78 1074.31 440.182 1144.12C441.346 1157.51 434.361 1172.05 430.287 1189.51C381.98 1138.89 374.996 977.142 459.97 932.341ZM830.713 245.209C819.655 270.809 812.671 294.664 799.284 314.446C792.882 323.755 771.347 330.155 760.871 326.082C750.395 322.01 738.755 302.81 739.919 291.755C741.665 270.809 748.067 246.955 760.871 230.664C770.183 217.864 791.718 211.464 808.596 209.136C813.834 207.973 821.983 230.082 830.713 245.209ZM700.342 2176.28C716.638 2200.71 719.548 2224.57 712.564 2247.26C703.252 2277.51 678.807 2293.81 647.378 2297.3C637.484 2298.46 627.59 2295.55 617.696 2293.81C620.024 2282.75 619.442 2269.95 625.262 2261.81C647.96 2233.3 672.987 2206.53 700.342 2176.28ZM2958.56 324.337C2958.56 303.391 2976.02 281.864 2993.48 281.864C3015.01 281.282 3042.37 303.973 3042.37 322.01C3042.37 344.701 3018.5 381.356 3003.95 380.774C2984.16 380.192 2958.56 348.774 2958.56 324.337ZM2894.53 958.523C2895.12 953.869 2893.37 945.723 2896.28 940.487C2901.52 930.014 2909.67 921.287 2916.65 911.396C2925.38 917.796 2937.6 922.45 2941.68 930.596C2952.15 950.96 2960.3 972.487 2967.29 994.596C2969.61 1001.58 2966.7 1014.38 2961.47 1019.03C2956.23 1023.69 2944.59 1024.27 2936.44 1021.94C2909.67 1014.38 2894.53 991.105 2894.53 958.523ZM15.3115 771.177C2.50714 768.267 -9.13314 767.104 -19.6094 762.449C-45.218 750.813 -48.1281 733.94 -22.5195 722.885C-5.05904 715.322 17.6396 718.813 38.0101 719.976C46.1583 720.558 53.7244 728.704 61.8726 732.776C56.0524 742.085 51.9785 753.722 43.8303 760.122C36.8461 765.94 25.2057 767.686 15.3115 771.177ZM1259.08 -0.901591C1255 -4.39252 1239.87 -11.9562 1236.38 -23.0109C1231.14 -39.3019 1258.49 -57.9202 1284.68 -57.3384C1300.98 -56.7565 1316.69 -54.4292 1317.86 -34.0655C1318.44 -17.1926 1293.41 -0.901591 1259.08 -0.901591ZM1225.9 402.301C1245.11 387.756 1255.58 377.865 1268.39 372.046C1272.46 370.301 1281.77 383.101 1288.76 388.919C1277.7 400.556 1267.22 412.774 1255 422.083C1253.84 423.829 1242.2 413.938 1225.9 402.301ZM1915 2489.3C1900.45 2502.68 1892.31 2510.24 1884.16 2517.81C1875.43 2506.17 1866.12 2495.12 1859.71 2482.32C1859.13 2480.57 1874.85 2464.86 1881.83 2466.02C1891.72 2467.77 1900.45 2478.24 1915 2489.3ZM1196.8 320.264C1207.86 308.046 1213.1 302.228 1218.92 295.828C1228.81 308.046 1239.29 319.682 1248.02 332.483C1248.6 333.646 1233.47 349.355 1231.72 348.192C1220.08 341.792 1210.77 331.901 1196.8 320.264ZM1344.63 557.648C1353.36 544.848 1358.02 539.029 1362.09 532.629C1373.73 544.266 1385.95 555.321 1397.01 567.539C1397.59 568.702 1384.21 584.993 1383.04 583.83C1370.24 576.848 1359.18 568.121 1344.63 557.648ZM1333.57 455.247C1324.84 466.884 1320.19 473.865 1314.95 480.847C1306.22 469.793 1295.74 459.902 1289.34 447.683C1288.18 445.356 1299.23 435.465 1305.05 429.065C1313.78 437.211 1322.51 445.356 1333.57 455.247ZM1324.84 542.52C1321.35 544.848 1317.86 547.175 1313.78 549.502C1298.65 543.684 1280.03 540.193 1282.94 517.502C1283.52 512.847 1298.07 506.447 1298.65 506.447C1308.55 518.084 1316.69 530.302 1324.84 542.52ZM429.705 1218.02C433.78 1222.67 437.854 1227.33 441.928 1231.98C430.869 1241.29 419.811 1250.6 408.753 1259.91C405.261 1254.09 397.113 1244.2 398.277 1243.03C408.171 1233.73 419.229 1226.16 429.705 1218.02Z" fill="#5B3C78"/>
<path d="M-147.65 2091.92C-149.978 2052.36 -150.559 2012.79 -154.052 1973.23C-161.036 1894.1 -143.575 1819.63 -120.295 1745.15C-101.088 1685.81 -41.141 1668.94 5.42008 1679.99C42.669 1688.72 78.1719 1706.17 114.257 1720.14C96.2143 1709.66 77.59 1699.77 60.1295 1688.14C51.9813 1682.32 44.4149 1673.59 39.1768 1665.44C16.4783 1629.95 22.2984 1616.57 62.4574 1607.26C117.167 1595.04 168.966 1575.26 210.289 1533.95C197.485 1541.52 185.262 1550.83 171.294 1556.06C127.061 1571.77 82.2459 1586.32 37.4309 1600.28C30.4467 1602.61 21.7165 1601.44 14.1503 1600.28C-14.9504 1595.63 -25.4265 1570.61 -6.80207 1547.92C13.5684 1523.48 35.6849 1500.79 53.1453 1473.44C26.9547 1497.3 -0.399841 1521.15 -26.0085 1545.59C-65.0034 1582.83 -109.237 1604.35 -164.528 1602.03C-163.946 1603.77 -163.946 1606.1 -163.364 1606.68C-103.999 1632.86 -96.4324 1657.3 -119.713 1721.3C-138.337 1773.08 -159.872 1826.61 -162.782 1880.14C-166.274 1949.37 -153.47 2020.94 -147.65 2091.92Z" fill="#5B3C78"/>
<path d="M-42.8872 -151.586C-97.0145 -106.204 -141.247 -52.6766 -166.856 13.0693C-179.078 44.4877 -182.57 80.5607 -187.227 114.888C-194.793 176.561 -219.82 229.507 -263.471 276.053C-258.232 278.38 -254.158 282.453 -250.084 282.453C-204.687 281.871 -179.661 308.053 -163.364 347.035C-158.708 358.09 -148.814 367.399 -141.83 377.29L-142.411 377.872C-145.321 365.072 -148.814 351.69 -151.142 338.89C-161.036 278.38 -113.893 232.998 -54.5275 245.798C-31.8289 251.035 -10.2943 258.598 11.8223 264.998C-21.9345 255.107 -55.1095 243.471 -89.4483 235.325C-145.322 221.943 -189.555 170.161 -179.079 118.961C-165.11 47.3968 -151.142 -25.331 -99.9245 -82.9314C-80.136 -105.041 -62.0935 -128.895 -43.4691 -152.168L-42.8872 -151.586Z" fill="#5B3C78"/>
<path d="M305.156 1159.84C247.537 1151.11 189.336 1141.8 131.716 1133.08C131.134 1135.99 131.134 1138.9 130.552 1141.8C188.753 1148.2 246.955 1154.02 305.156 1159.84Z" fill="#5B3C78"/>
<path d="M3310.1 1872.57C3286.23 1872.57 3262.37 1871.41 3238.51 1872.57C3214.65 1873.74 3191.36 1877.23 3167.5 1883.05C3170.99 1883.05 3174.49 1883.05 3177.98 1883.05C3222.21 1880.72 3265.86 1878.97 3310.1 1876.65C3310.1 1875.48 3310.1 1873.74 3310.1 1872.57Z" fill="#5B3C78"/>
<path d="M728.281 1535.7C713.731 1504.28 700.345 1472.86 684.63 1442.61C680.556 1435.04 670.662 1430.39 663.096 1424.57C685.212 1461.81 706.747 1499.04 728.281 1535.7Z" fill="#5B3C78"/>
<path d="M293.039 1159.84C235.42 1151.11 177.218 1141.8 119.599 1133.08C119.017 1135.99 119.017 1138.9 118.435 1141.8C176.636 1148.2 234.838 1154.02 293.039 1159.84Z" fill="#5B3C78"/>
<path d="M3297.98 1872.57C3274.11 1872.57 3250.25 1871.41 3226.39 1872.57C3202.53 1873.74 3179.25 1877.23 3155.38 1883.05C3158.88 1883.05 3162.37 1883.05 3165.86 1883.05C3210.09 1880.72 3253.74 1878.97 3297.98 1876.65C3297.98 1875.48 3297.98 1873.74 3297.98 1872.57Z" fill="#5B3C78"/>
<path d="M716.162 1535.7C701.612 1504.28 688.225 1472.86 672.511 1442.61C668.437 1435.04 658.543 1430.39 650.976 1424.57C673.093 1461.81 694.628 1499.04 716.162 1535.7Z" fill="#5B3C78"/>
</g>
<defs>
<clipPath id="clip0_547_5">
<rect width="3365" height="2101" fill="white"/>
</clipPath>
</defs>
</svg>
