<svg width="41" height="75" viewBox="0 0 41 75" fill="none" xmlns="http://www.w3.org/2000/svg">
<path fill-rule="evenodd" clip-rule="evenodd" d="M14.9091 22.5L14.9091 31.8766L11.1834 31.8766L11.1834 30L7.45614 30L7.45614 37.5021L11.1834 37.5021L11.1834 35.6271L14.9091 35.6271L14.9091 43.1271L11.1834 43.1271L11.1834 41.25L7.45614 41.25L7.45614 48.7516L11.1834 48.7516L11.1834 46.8766L14.9091 46.8766L14.9091 54.3745L11.1834 54.3745L11.1834 52.4979L7.45614 52.4979L7.45614 60L11.1834 60L11.1834 58.125L14.9091 58.125L14.9091 67.5C14.9091 71.25 11.1818 75 11.1818 75L29.8182 75C29.8182 75 26.0909 71.2426 26.0909 67.4964L26.0909 63.75L26.0902 60L26.0902 58.125L33.0409 58.125L37.0376 58.125L41 58.125L41 54.375L37.2727 54.375L33.5448 54.375L26.0902 54.375L26.0902 46.8771L33.5448 46.8771L37.2727 46.8771L41 46.8771L41 43.1271L37.2727 43.1271L33.5448 43.1271L26.0902 43.1271L26.0902 35.6271L33.5448 35.6271L37.2727 35.6271L41 35.6271L41 31.8766L37.0387 31.8766L33.0415 31.8766L26.0902 31.8766L26.0902 30L26.0909 26.25L26.0909 22.5C26.0909 11.25 41 -1.79217e-06 41 -1.79217e-06L-3.27835e-06 0C-3.27835e-06 0 14.9091 11.25 14.9091 22.5ZM22.3515 58.158L22.3515 58.125L18.6351 58.1249L18.6351 67.4999C18.6351 68.8109 18.3549 70.0775 17.9316 71.2499L23.0691 71.2499C22.6432 70.0775 22.363 68.8073 22.363 67.4963L22.363 59.0782C22.3546 58.7805 22.3515 58.4729 22.3515 58.158ZM22.363 54.375L22.363 46.8771L18.6357 46.8771L18.6357 54.375L22.363 54.375ZM22.363 43.1271L22.363 35.6271L18.6357 35.6271L18.6357 43.1271L22.363 43.1271ZM22.363 22.5C22.363 15.3118 27.0376 8.52963 31.4201 3.74999L9.57856 3.74998C13.96 8.5299 18.6357 15.3118 18.6357 22.5L18.6357 31.8766L22.3515 31.8766L22.3515 31.8426C22.3515 31.5261 22.3547 31.2195 22.363 30.9218L22.363 22.5Z" fill="white"/>
</svg>
