<svg width="52" height="68" viewBox="0 0 52 68" fill="none" xmlns="http://www.w3.org/2000/svg">
<path d="M0.47998 43.088C0.47998 39.1626 1.20531 35.536 2.65598 32.208H7.39198C6.79465 33.744 6.28265 35.3653 5.85598 37.072C5.42931 38.6933 5.21598 40.6133 5.21598 42.832C5.21598 46.3307 6.06931 49.6587 7.77598 52.816C9.48265 55.888 11.9146 58.4053 15.072 60.368C18.3146 62.2453 22.0266 63.184 26.208 63.184C30.3893 63.184 34.0587 62.2453 37.216 60.368C40.3733 58.4053 42.8053 55.8453 44.512 52.688C46.2187 49.4453 47.072 46.032 47.072 42.448C47.072 38.5227 46.5173 35.1093 45.408 32.208C44.2986 29.2213 42.848 26.6613 41.056 24.528C39.264 22.3947 37.0027 20.176 34.272 17.872C33.504 17.2746 33.1627 16.976 33.248 16.976C30.944 15.184 29.0666 13.6053 27.616 12.24C26.2506 10.7893 25.0986 9.12532 24.16 7.24799C23.2213 5.28532 22.752 3.06665 22.752 0.59198H27.488C27.5733 2.46931 28.0426 4.21865 28.896 5.83998C29.8346 7.37598 30.9013 8.78398 32.096 10.064C33.376 11.2586 34.9973 12.6666 36.96 14.288L37.984 15.184C40.8 17.5733 43.1893 20.0053 45.152 22.48C47.2 24.8693 48.8213 27.6853 50.016 30.928C51.296 34.1706 51.936 37.8826 51.936 42.064C51.936 46.5866 50.8693 50.8107 48.736 54.736C46.688 58.576 43.7013 61.6907 39.776 64.08C35.8506 66.384 31.328 67.536 26.208 67.536C20.9173 67.536 16.3093 66.4267 12.384 64.208C8.54398 61.9893 5.59998 59.0453 3.55198 55.376C1.50398 51.6213 0.47998 47.5253 0.47998 43.088Z" fill="white"/>
</svg>
