<svg width="53" height="75" viewBox="0 0 53 75" fill="none" xmlns="http://www.w3.org/2000/svg">
<path d="M51.7227 8.79407L51.7227 13.1742C47.8703 10.9957 43.9152 9.30687 39.8576 8.1093L39.8546 8.10845C35.5625 6.8704 31.0275 6.25262 26.2517 6.25262C21.4774 6.25262 16.9254 6.85029 12.5977 8.04773C8.53857 9.17087 4.59944 10.8723 0.78078 13.1494L0.78078 8.79985C2.50151 7.67676 4.27381 6.60752 6.09772 5.59215C7.99038 4.57785 9.97656 3.67994 12.0566 2.89861C14.1699 2.15826 16.3964 1.57297 18.7366 1.14335C21.0696 0.715061 23.5742 0.499999 26.2517 0.499999C30.7409 0.499999 35.1564 1.22139 39.5001 2.66547C43.7692 4.12354 47.8432 6.16582 51.7227 8.79407Z" fill="white" stroke="#181818"/>
<path d="M0.5 65.6091L0.5 61.229C4.35232 63.4075 8.30744 65.0963 12.3651 66.2939L12.368 66.2948C16.6602 67.5328 21.1952 68.1506 25.9709 68.1506C30.7453 68.1506 35.2972 67.5529 39.6249 66.3555C43.6841 65.2323 47.6232 63.5309 51.4419 61.2537L51.4419 65.6033C49.7211 66.7264 47.9488 67.7957 46.1249 68.811C44.2323 69.8254 42.2461 70.7233 40.1661 71.5046C38.0527 72.2449 35.8262 72.8302 33.486 73.2598C31.1531 73.6881 28.6485 73.9032 25.9709 73.9032C21.4818 73.9032 17.0663 73.1818 12.7226 71.7377C8.45345 70.2797 4.37943 68.2374 0.5 65.6091Z" fill="white" stroke="#181818"/>
<circle cx="15.196" cy="30.3921" r="4" fill="white"/>
<circle cx="37.1306" cy="30.3921" r="4" fill="white"/>
<path d="M23.8652 17.9691H28.3575V58.3996H23.8652V17.9691Z" fill="white"/>
</svg>
