<svg width="54" height="80" viewBox="0 0 54 80" fill="none" xmlns="http://www.w3.org/2000/svg">
<path fill-rule="evenodd" clip-rule="evenodd" d="M27.0001 33.9949L5.09685 49.9085L13.4631 75.6573H40.537L48.9033 49.9085L27.0001 33.9949ZM27.5879 29.4777C27.2374 29.223 26.7628 29.223 26.4123 29.4777L0.982351 47.9536C0.631864 48.2082 0.485206 48.6596 0.61908 49.0716L10.3325 78.9663C10.4663 79.3783 10.8503 79.6573 11.2835 79.6573H42.7166C43.1499 79.6573 43.5338 79.3783 43.6677 78.9663L53.3811 49.0716C53.5149 48.6596 53.3683 48.2082 53.0178 47.9536L27.5879 29.4777Z" fill="white"/>
<path fill-rule="evenodd" clip-rule="evenodd" d="M24.8481 67.7848L24.8481 0L28.8481 0L28.8481 67.7848H24.8481Z" fill="white"/>
<path fill-rule="evenodd" clip-rule="evenodd" d="M34.5318 10.7595H20.5444V6.75952H34.5318V10.7595Z" fill="white"/>
<path fill-rule="evenodd" clip-rule="evenodd" d="M26.4927 67.3502C29.3514 67.3502 31.6688 65.0328 31.6688 62.1741C31.6688 59.3155 29.3514 56.998 26.4927 56.998C23.6341 56.998 21.3167 59.3155 21.3167 62.1741C21.3167 65.0328 23.6341 67.3502 26.4927 67.3502ZM26.4927 71.3502C31.5606 71.3502 35.6688 67.242 35.6688 62.1741C35.6688 57.1063 31.5606 52.998 26.4927 52.998C21.4249 52.998 17.3167 57.1063 17.3167 62.1741C17.3167 67.242 21.4249 71.3502 26.4927 71.3502Z" fill="white"/>
</svg>
