<svg width="1392" height="275" viewBox="0 0 1392 275" fill="none" xmlns="http://www.w3.org/2000/svg">
<mask id="path-1-inside-1_513_505" fill="white">
<path fill-rule="evenodd" clip-rule="evenodd" d="M2 0H46.2558H926.269C926.741 0 927.198 0.166988 927.559 0.471417L958.441 26.5286C958.802 26.833 959.259 27 959.731 27H1054.27C1054.74 27 1055.2 26.833 1055.56 26.5286L1086.44 0.471416C1086.8 0.166988 1087.26 0 1087.73 0H1258.84C1259.27 0 1259.69 0.137443 1260.03 0.392106L1295.47 26.6079C1295.81 26.8626 1296.23 27 1296.66 27H1389C1390.1 27 1391 27.8954 1391 29V74.269C1391 74.7411 1390.83 75.1979 1390.53 75.5587L1364.47 106.441C1364.17 106.802 1364 107.259 1364 107.731V113.131C1364 115.57 1358.94 116.24 1358.09 113.954C1340.23 66.0878 1294.09 32 1240 32C1170.41 32 1114 88.4121 1114 158C1114 207.35 1142.37 250.073 1183.69 270.749C1185.66 271.734 1184.98 275 1182.78 275H952.645C952.226 275 951.817 274.868 951.477 274.623L927.523 257.377C927.183 257.132 926.774 257 926.355 257H892H788L756 230H732H700H692H660H636L604 257H500H232H128L96 230H32H0V104V32.5V2C0 0.89543 0.895431 0 2 0ZM1358.29 201.501C1359.11 199.271 1364 199.912 1364 202.288C1364 202.748 1364.16 203.193 1364.46 203.544L1390.55 234.463C1390.84 234.811 1391.01 235.248 1391.02 235.703L1391.95 272.95C1391.98 274.074 1391.07 275 1389.95 275H1297.22C1295.02 275 1294.34 271.735 1296.31 270.75C1324.83 256.479 1347.18 231.706 1358.29 201.501Z"/>
</mask>
<path fill-rule="evenodd" clip-rule="evenodd" d="M2 0H46.2558H926.269C926.741 0 927.198 0.166988 927.559 0.471417L958.441 26.5286C958.802 26.833 959.259 27 959.731 27H1054.27C1054.74 27 1055.2 26.833 1055.56 26.5286L1086.44 0.471416C1086.8 0.166988 1087.26 0 1087.73 0H1258.84C1259.27 0 1259.69 0.137443 1260.03 0.392106L1295.47 26.6079C1295.81 26.8626 1296.23 27 1296.66 27H1389C1390.1 27 1391 27.8954 1391 29V74.269C1391 74.7411 1390.83 75.1979 1390.53 75.5587L1364.47 106.441C1364.17 106.802 1364 107.259 1364 107.731V113.131C1364 115.57 1358.94 116.24 1358.09 113.954C1340.23 66.0878 1294.09 32 1240 32C1170.41 32 1114 88.4121 1114 158C1114 207.35 1142.37 250.073 1183.69 270.749C1185.66 271.734 1184.98 275 1182.78 275H952.645C952.226 275 951.817 274.868 951.477 274.623L927.523 257.377C927.183 257.132 926.774 257 926.355 257H892H788L756 230H732H700H692H660H636L604 257H500H232H128L96 230H32H0V104V32.5V2C0 0.89543 0.895431 0 2 0ZM1358.29 201.501C1359.11 199.271 1364 199.912 1364 202.288C1364 202.748 1364.16 203.193 1364.46 203.544L1390.55 234.463C1390.84 234.811 1391.01 235.248 1391.02 235.703L1391.95 272.95C1391.98 274.074 1391.07 275 1389.95 275H1297.22C1295.02 275 1294.34 271.735 1296.31 270.75C1324.83 256.479 1347.18 231.706 1358.29 201.501Z" fill="url(#paint0_radial_513_505)"/>
<path d="M927.559 0.471417L926.914 1.23569L926.914 1.23571L927.559 0.471417ZM958.441 26.5286L959.086 25.7643L959.086 25.7643L958.441 26.5286ZM1055.56 26.5286L1056.2 27.2929L1056.2 27.2929L1055.56 26.5286ZM1086.44 0.471416L1085.8 -0.292906L1085.8 -0.292875L1086.44 0.471416ZM1260.03 0.392106L1259.44 1.19603L1259.44 1.19605L1260.03 0.392106ZM1295.47 26.6079L1296.06 25.804L1296.06 25.8039L1295.47 26.6079ZM1390.53 75.5587L1389.76 74.9138L1389.76 74.9138L1390.53 75.5587ZM1364.47 106.441L1365.24 107.086L1365.24 107.086L1364.47 106.441ZM1358.09 113.954L1359.02 113.605L1359.02 113.605L1358.09 113.954ZM1183.69 270.749L1183.25 271.644L1183.25 271.644L1183.69 270.749ZM951.477 274.623L952.061 273.812L952.061 273.812L951.477 274.623ZM927.523 257.377L926.939 258.188L926.939 258.188L927.523 257.377ZM788 257L787.355 257.764L787.634 258H788V257ZM756 230L756.645 229.236L756.366 229H756V230ZM636 230V229H635.634L635.355 229.236L636 230ZM604 257V258H604.366L604.645 257.764L604 257ZM128 257L127.355 257.764L127.634 258H128V257ZM96 230L96.6449 229.236L96.3655 229H96V230ZM0 230H-1V231H0V230ZM1358.29 201.501L1359.23 201.846L1359.23 201.846L1358.29 201.501ZM1364.46 203.544L1365.22 202.899L1365.22 202.899L1364.46 203.544ZM1390.55 234.463L1391.31 233.818L1391.31 233.818L1390.55 234.463ZM1391.02 235.703L1390.02 235.728L1390.02 235.728L1391.02 235.703ZM1391.95 272.95L1392.95 272.925L1392.95 272.925L1391.95 272.95ZM1296.31 270.75L1296.75 271.644L1296.75 271.644L1296.31 270.75ZM46.2558 -1H2V1H46.2558V-1ZM926.269 -1H46.2558V1H926.269V-1ZM928.204 -0.292852C927.662 -0.749522 926.977 -1 926.269 -1V1C926.505 1 926.733 1.0835 926.914 1.23569L928.204 -0.292852ZM959.086 25.7643L928.204 -0.292874L926.914 1.23571L957.796 27.2929L959.086 25.7643ZM959.731 26C959.495 26 959.267 25.9165 959.086 25.7643L957.796 27.2929C958.338 27.7495 959.023 28 959.731 28V26ZM1054.27 26H959.731V28H1054.27V26ZM1054.91 25.7643C1054.73 25.9165 1054.51 26 1054.27 26V28C1054.98 28 1055.66 27.7495 1056.2 27.2929L1054.91 25.7643ZM1085.8 -0.292875L1054.91 25.7643L1056.2 27.2929L1087.09 1.23571L1085.8 -0.292875ZM1087.73 -1C1087.02 -1 1086.34 -0.749505 1085.8 -0.292906L1087.09 1.23574C1087.27 1.08348 1087.49 1 1087.73 1V-1ZM1258.84 -1H1087.73V1H1258.84V-1ZM1260.62 -0.411818C1260.11 -0.793826 1259.48 -1 1258.84 -1V1C1259.05 1 1259.26 1.06871 1259.44 1.19603L1260.62 -0.411818ZM1296.06 25.8039L1260.62 -0.411842L1259.44 1.19605L1294.88 27.4118L1296.06 25.8039ZM1296.66 26C1296.45 26 1296.24 25.9313 1296.06 25.804L1294.88 27.4118C1295.39 27.7938 1296.02 28 1296.66 28V26ZM1389 26H1296.66V28H1389V26ZM1392 29C1392 27.3432 1390.66 26 1389 26V28C1389.55 28 1390 28.4477 1390 29H1392ZM1392 74.269V29H1390V74.269H1392ZM1391.29 76.2036C1391.75 75.6624 1392 74.9771 1392 74.269H1390C1390 74.505 1389.92 74.7334 1389.76 74.9138L1391.29 76.2036ZM1365.24 107.086L1391.29 76.2036L1389.76 74.9138L1363.71 105.796L1365.24 107.086ZM1365 107.731C1365 107.495 1365.08 107.267 1365.24 107.086L1363.71 105.796C1363.25 106.338 1363 107.023 1363 107.731H1365ZM1365 113.131V107.731H1363V113.131H1365ZM1357.15 114.304C1357.49 115.222 1358.24 115.78 1359.02 116.07C1359.8 116.358 1360.68 116.416 1361.5 116.305C1362.31 116.194 1363.14 115.904 1363.8 115.406C1364.47 114.899 1365 114.13 1365 113.131H1363C1363 113.351 1362.9 113.581 1362.59 113.813C1362.27 114.056 1361.79 114.247 1361.23 114.323C1360.67 114.399 1360.13 114.348 1359.72 114.195C1359.31 114.045 1359.11 113.83 1359.02 113.605L1357.15 114.304ZM1240 33C1293.66 33 1339.43 66.8158 1357.15 114.304L1359.02 113.605C1341.02 65.3599 1294.52 31 1240 31V33ZM1115 158C1115 88.9644 1170.96 33 1240 33V31C1169.86 31 1113 87.8598 1113 158H1115ZM1184.14 269.855C1143.14 249.342 1115 206.957 1115 158H1113C1113 207.743 1141.6 250.805 1183.25 271.644L1184.14 269.855ZM1182.78 276C1184.47 276 1185.51 274.726 1185.78 273.452C1186.05 272.182 1185.63 270.6 1184.14 269.855L1183.25 271.644C1183.73 271.884 1183.95 272.427 1183.82 273.037C1183.69 273.642 1183.29 274 1182.78 274V276ZM952.645 276H1182.78V274H952.645V276ZM950.892 275.435C951.403 275.802 952.016 276 952.645 276V274C952.435 274 952.231 273.934 952.061 273.812L950.892 275.435ZM926.939 258.188L950.892 275.435L952.061 273.812L928.108 256.565L926.939 258.188ZM926.355 258C926.565 258 926.769 258.066 926.939 258.188L928.108 256.565C927.597 256.198 926.984 256 926.355 256V258ZM892 258H926.355V256H892V258ZM788 258H892V256H788V258ZM755.355 230.764L787.355 257.764L788.645 256.236L756.645 229.236L755.355 230.764ZM732 231H756V229H732V231ZM700 231H732V229H700V231ZM692 231H700V229H692V231ZM660 231H692V229H660V231ZM636 231H660V229H636V231ZM604.645 257.764L636.645 230.764L635.355 229.236L603.355 256.236L604.645 257.764ZM500 258H604V256H500V258ZM232 258H500V256H232V258ZM128 258H232V256H128V258ZM95.3551 230.764L127.355 257.764L128.645 256.236L96.6449 229.236L95.3551 230.764ZM32 231H96V229H32V231ZM0 231H32V229H0V231ZM-1 104V230H1V104H-1ZM-1 32.5V104H1V32.5H-1ZM-1 2V32.5H1V2H-1ZM2 -1C0.343146 -1 -1 0.343146 -1 2H1C1 1.44772 1.44772 1 2 1V-1ZM1365 202.288C1365 201.308 1364.48 200.552 1363.83 200.054C1363.19 199.566 1362.38 199.283 1361.59 199.176C1360.79 199.069 1359.93 199.128 1359.17 199.413C1358.41 199.701 1357.68 200.253 1357.35 201.155L1359.23 201.846C1359.31 201.633 1359.5 201.429 1359.88 201.285C1360.27 201.138 1360.79 201.087 1361.32 201.158C1361.85 201.23 1362.31 201.413 1362.62 201.644C1362.91 201.865 1363 202.08 1363 202.288H1365ZM1365.22 202.899C1365.08 202.728 1365 202.512 1365 202.288H1363C1363 202.984 1363.25 203.657 1363.7 204.189L1365.22 202.899ZM1391.31 233.818L1365.22 202.899L1363.69 204.189L1389.78 235.108L1391.31 233.818ZM1392.02 235.678C1392 234.995 1391.75 234.339 1391.31 233.818L1389.78 235.108C1389.93 235.282 1390.01 235.5 1390.02 235.728L1392.02 235.678ZM1392.95 272.925L1392.02 235.678L1390.02 235.728L1390.95 272.975L1392.95 272.925ZM1389.95 276C1391.64 276 1392.99 274.611 1392.95 272.925L1390.95 272.975C1390.96 273.537 1390.51 274 1389.95 274V276ZM1297.22 276H1389.95V274H1297.22V276ZM1295.86 269.855C1294.37 270.6 1293.95 272.182 1294.22 273.452C1294.49 274.726 1295.53 276 1297.22 276V274C1296.71 274 1296.31 273.642 1296.18 273.037C1296.05 272.427 1296.27 271.884 1296.75 271.644L1295.86 269.855ZM1357.35 201.155C1346.33 231.12 1324.15 255.698 1295.86 269.855L1296.75 271.644C1325.5 257.26 1348.03 232.292 1359.23 201.846L1357.35 201.155Z" fill="#CACAC8" fill-opacity="0.39" mask="url(#path-1-inside-1_513_505)"/>
<defs>
<radialGradient id="paint0_radial_513_505" cx="0" cy="0" r="1" gradientUnits="userSpaceOnUse" gradientTransform="translate(695.975 137.5) rotate(83.7809) scale(175.16 626.323)">
<stop offset="0.364583" stop-color="#A9AEA8"/>
<stop offset="1" stop-color="#DADED8"/>
</radialGradient>
</defs>
</svg>
