<svg width="40" height="72" viewBox="0 0 40 72" fill="none" xmlns="http://www.w3.org/2000/svg">
<path d="M21.8096 24.6143H1.93945V1.08301H7.66602V18.4756V19.4756H8.66602H22.6074C28.093 19.4756 32.0204 20.699 34.5716 22.9703C37.1007 25.2218 38.4463 28.6559 38.4463 33.4668C38.4463 38.4512 37.256 43.2344 34.864 47.8282C32.4664 52.4328 29.0814 56.5878 24.692 60.2914L24.6881 60.2947C19.7899 64.471 13.9333 67.8607 7.10449 70.4549V63.8896C12.2833 61.9103 16.753 59.4241 20.5 56.4217C24.4174 53.3329 27.4227 49.9337 29.4852 46.2164C31.5745 42.5013 32.6357 38.6955 32.6357 34.8105C32.6357 31.5734 31.7679 28.9664 29.8625 27.1832C27.9696 25.4117 25.2232 24.6143 21.8096 24.6143Z" fill="white" stroke="#181818" stroke-width="2"/>
</svg>
