<svg width="82" height="80" viewBox="0 0 82 80" fill="none" xmlns="http://www.w3.org/2000/svg">
<path d="M40.4211 79.6768V38.5339" stroke="#AD7498" stroke-width="4"/>
<path d="M-3.42131e-05 38.5339L41.1428 38.5339" stroke="#AD7498" stroke-width="4"/>
<path d="M2.88739 22.6543L41.0193 38.104" stroke="#AD7498" stroke-width="4"/>
<path d="M11.5492 9.66176L40.6416 38.7542" stroke="#AD7498" stroke-width="4"/>
<path d="M24.5414 1L40.967 38.7218" stroke="#AD7498" stroke-width="4"/>
<path d="M24.7302 76.6658L40.1799 38.5339" stroke="#AD7498" stroke-width="4"/>
<path d="M11.7379 68.0041L40.8303 38.9117" stroke="#AD7498" stroke-width="4"/>
<path d="M3.07605 55.0117L40.7979 38.5861" stroke="#AD7498" stroke-width="4"/>
<path d="M78.553 22.6543L40.4211 38.104" stroke="#AD7498" stroke-width="4"/>
<path d="M69.8912 9.66176L40.7988 38.7542" stroke="#AD7498" stroke-width="4"/>
<path d="M56.8987 1L40.4731 38.7218" stroke="#AD7498" stroke-width="4"/>
<path d="M56.7099 76.6658L41.2603 38.5339" stroke="#AD7498" stroke-width="4"/>
<path d="M69.7025 68.0043L40.6101 38.9119" stroke="#AD7498" stroke-width="4"/>
<path d="M78.3644 55.0118L40.6426 38.5862" stroke="#AD7498" stroke-width="4"/>
<path d="M40.4211 38.5339L81.564 38.5339" stroke="#AD7498" stroke-width="4"/>
<circle cx="40.4212" cy="38.534" r="9.54887" fill="#C5C5C5" stroke="#181818" stroke-width="4"/>
<rect x="41" y="30.6768" width="7" height="16" fill="#181818"/>
</svg>
