<svg width="83" height="80" viewBox="0 0 83 80" fill="none" xmlns="http://www.w3.org/2000/svg">
<path d="M40.8892 80V38.8572" stroke="#5F77A4" stroke-width="4"/>
<path d="M0.467983 38.8572L41.6108 38.8572" stroke="#5F77A4" stroke-width="4"/>
<path d="M3.35541 22.9776L41.4873 38.4272" stroke="#5F77A4" stroke-width="4"/>
<path d="M12.017 9.985L41.1094 39.0774" stroke="#5F77A4" stroke-width="4"/>
<path d="M25.0095 1.32324L41.4351 39.045" stroke="#5F77A4" stroke-width="4"/>
<path d="M25.1983 76.9891L40.6479 38.8572" stroke="#5F77A4" stroke-width="4"/>
<path d="M12.2059 68.3274L41.2983 39.235" stroke="#5F77A4" stroke-width="4"/>
<path d="M3.54407 55.3349L41.2659 38.9093" stroke="#5F77A4" stroke-width="4"/>
<path d="M79.0211 22.9776L40.8892 38.4272" stroke="#5F77A4" stroke-width="4"/>
<path d="M70.3592 9.985L41.2668 39.0774" stroke="#5F77A4" stroke-width="4"/>
<path d="M57.367 1.32324L40.9414 39.045" stroke="#5F77A4" stroke-width="4"/>
<path d="M57.178 76.9891L41.7283 38.8572" stroke="#5F77A4" stroke-width="4"/>
<path d="M70.1705 68.3275L41.0781 39.2351" stroke="#5F77A4" stroke-width="4"/>
<path d="M78.8324 55.335L41.1106 38.9094" stroke="#5F77A4" stroke-width="4"/>
<path d="M40.8891 38.8572L82.032 38.8572" stroke="#5F77A4" stroke-width="4"/>
<circle cx="40.8892" cy="38.8572" r="9.54887" fill="#C5C5C5" stroke="#181818" stroke-width="4"/>
<rect x="42" y="31" width="7" height="16" fill="#181818"/>
</svg>
