<svg width="82" height="80" viewBox="0 0 82 80" fill="none" xmlns="http://www.w3.org/2000/svg">
<path d="M40.4211 80V38.8572" stroke="#668F80" stroke-width="4"/>
<path d="M-3.42131e-05 38.8572L41.1428 38.8572" stroke="#668F80" stroke-width="4"/>
<path d="M2.88739 22.9776L41.0193 38.4272" stroke="#668F80" stroke-width="4"/>
<path d="M11.5492 9.985L40.6416 39.0774" stroke="#668F80" stroke-width="4"/>
<path d="M24.5414 1.32324L40.967 39.045" stroke="#668F80" stroke-width="4"/>
<path d="M24.7302 76.9891L40.1799 38.8572" stroke="#668F80" stroke-width="4"/>
<path d="M11.7379 68.3274L40.8303 39.235" stroke="#668F80" stroke-width="4"/>
<path d="M3.07605 55.3349L40.7979 38.9093" stroke="#668F80" stroke-width="4"/>
<path d="M78.553 22.9776L40.4211 38.4272" stroke="#668F80" stroke-width="4"/>
<path d="M69.8912 9.985L40.7988 39.0774" stroke="#668F80" stroke-width="4"/>
<path d="M56.8987 1.32324L40.4731 39.045" stroke="#668F80" stroke-width="4"/>
<path d="M56.7099 76.9891L41.2603 38.8572" stroke="#668F80" stroke-width="4"/>
<path d="M69.7025 68.3275L40.6101 39.2351" stroke="#668F80" stroke-width="4"/>
<path d="M78.3644 55.335L40.6426 38.9094" stroke="#668F80" stroke-width="4"/>
<path d="M40.4211 38.8572L81.564 38.8572" stroke="#668F80" stroke-width="4"/>
<circle cx="40.4212" cy="38.8572" r="9.54887" fill="#668F80" stroke="#181818" stroke-width="4"/>
<rect x="42" y="31" width="7" height="16" fill="#181818"/>
</svg>
