<svg width="456" height="609" viewBox="0 0 456 609" fill="none" xmlns="http://www.w3.org/2000/svg">
<mask id="path-1-inside-1_513_514" fill="white">
<path fill-rule="evenodd" clip-rule="evenodd" d="M0 2C0 0.895431 0.895431 0 2 0H32H95.269C95.7411 0 96.1979 0.166988 96.5587 0.471416L127.441 26.5286C127.802 26.833 128.259 27 128.731 27H224H232H327.269C327.741 27 328.198 26.833 328.559 26.5286L359.441 0.471417C359.802 0.166988 360.259 0 360.731 0H424H454C455.105 0 456 0.895431 456 2V27V591V607C456 608.105 455.105 609 454 609H2C0.895431 609 0 608.105 0 607V590.5V27V2Z"/>
</mask>
<path fill-rule="evenodd" clip-rule="evenodd" d="M0 2C0 0.895431 0.895431 0 2 0H32H95.269C95.7411 0 96.1979 0.166988 96.5587 0.471416L127.441 26.5286C127.802 26.833 128.259 27 128.731 27H224H232H327.269C327.741 27 328.198 26.833 328.559 26.5286L359.441 0.471417C359.802 0.166988 360.259 0 360.731 0H424H454C455.105 0 456 0.895431 456 2V27V591V607C456 608.105 455.105 609 454 609H2C0.895431 609 0 608.105 0 607V590.5V27V2Z" fill="url(#paint0_radial_513_514)"/>
<path d="M127.441 26.5286L126.796 27.2929L127.441 26.5286ZM359.441 0.471417L358.796 -0.292874L359.441 0.471417ZM96.5587 0.471416L97.2036 -0.292875L96.5587 0.471416ZM328.559 26.5286L329.204 27.2929L328.559 26.5286ZM32 -1H2V1H32V-1ZM95.269 -1H32V1H95.269V-1ZM128.086 25.7643L97.2036 -0.292875L95.9138 1.23571L126.796 27.2929L128.086 25.7643ZM224 26H128.731V28H224V26ZM232 26H224V28H232V26ZM327.269 26H232V28H327.269V26ZM358.796 -0.292874L327.914 25.7643L329.204 27.2929L360.086 1.23571L358.796 -0.292874ZM424 -1H360.731V1H424V-1ZM454 -1H424V1H454V-1ZM457 27V2H455V27H457ZM457 591V27H455V591H457ZM457 607V591H455V607H457ZM2 610H454V608H2V610ZM-1 590.5V607H1V590.5H-1ZM-1 27V590.5H1V27H-1ZM-1 2V27H1V2H-1ZM454 1C454.552 1 455 1.44772 455 2H457C457 0.343146 455.657 -1 454 -1V1ZM126.796 27.2929C127.338 27.7495 128.023 28 128.731 28V26C128.495 26 128.267 25.9165 128.086 25.7643L126.796 27.2929ZM360.086 1.23571C360.267 1.08349 360.495 1 360.731 1V-1C360.023 -1 359.338 -0.749518 358.796 -0.292874L360.086 1.23571ZM2 608C1.44772 608 1 607.552 1 607H-1C-1 608.657 0.343146 610 2 610V608ZM95.269 1C95.505 1 95.7334 1.08349 95.9138 1.23571L97.2036 -0.292875C96.6624 -0.749519 95.9771 -1 95.269 -1V1ZM327.269 28C327.977 28 328.662 27.7495 329.204 27.2929L327.914 25.7643C327.733 25.9165 327.505 26 327.269 26V28ZM455 607C455 607.552 454.552 608 454 608V610C455.657 610 457 608.657 457 607H455ZM2 -1C0.343146 -1 -1 0.343146 -1 2H1C1 1.44772 1.44772 1 2 1V-1Z" fill="#CACAC8" fill-opacity="0.39" mask="url(#path-1-inside-1_513_514)"/>
<defs>
<radialGradient id="paint0_radial_513_514" cx="0" cy="0" r="1" gradientUnits="userSpaceOnUse" gradientTransform="translate(228 304.5) rotate(89.0765) scale(385.667 206.37)">
<stop offset="0.364583" stop-color="#A9AEA8"/>
<stop offset="1" stop-color="#DADED8"/>
</radialGradient>
</defs>
</svg>
