<svg width="1391" height="257" viewBox="0 0 1391 257" fill="none" xmlns="http://www.w3.org/2000/svg">
<g clip-path="url(#clip0_554_8)">
<g filter="url(#filter0_i_554_8)">
<circle cx="12" cy="12" r="4" fill="#222222"/>
</g>
<g filter="url(#filter1_i_554_8)">
<circle cx="25" cy="12" r="4" fill="#222222"/>
</g>
<g filter="url(#filter2_i_554_8)">
<circle cx="904" cy="12" r="4" fill="#222222"/>
</g>
<g filter="url(#filter3_i_554_8)">
<circle cx="917" cy="12" r="4" fill="#222222"/>
</g>
<g filter="url(#filter4_i_554_8)">
<circle cx="794" cy="246" r="4" fill="#222222"/>
</g>
<g filter="url(#filter5_i_554_8)">
<circle cx="807" cy="246" r="4" fill="#222222"/>
</g>
<g filter="url(#filter6_i_554_8)">
<circle cx="644" cy="222" r="4" fill="#222222"/>
</g>
<g filter="url(#filter7_i_554_8)">
<circle cx="657" cy="222" r="4" fill="#222222"/>
</g>
<g filter="url(#filter8_i_554_8)">
<circle cx="670" cy="222" r="4" fill="#222222"/>
</g>
<g filter="url(#filter9_i_554_8)">
<circle cx="683" cy="222" r="4" fill="#222222"/>
</g>
<g filter="url(#filter10_i_554_8)">
<circle cx="696" cy="222" r="4" fill="#222222"/>
</g>
<g filter="url(#filter11_i_554_8)">
<circle cx="709" cy="222" r="4" fill="#222222"/>
</g>
<g filter="url(#filter12_i_554_8)">
<circle cx="722" cy="222" r="4" fill="#222222"/>
</g>
<g filter="url(#filter13_i_554_8)">
<circle cx="735" cy="222" r="4" fill="#222222"/>
</g>
<g filter="url(#filter14_i_554_8)">
<circle cx="748" cy="222" r="4" fill="#222222"/>
</g>
<g filter="url(#filter15_i_554_8)">
<circle cx="1096" cy="12" r="4" fill="#222222"/>
</g>
<g filter="url(#filter16_i_554_8)">
<circle cx="1109" cy="12" r="4" fill="#222222"/>
</g>
<circle cx="12" cy="220" r="4" transform="rotate(-90 12 220)" fill="#222222"/>
<circle cx="12" cy="207" r="4" transform="rotate(-90 12 207)" fill="#222222"/>
<path d="M135 239V250" stroke="black"/>
<path d="M139 239V250" stroke="black"/>
<path d="M143 239V250" stroke="black"/>
<path d="M147 239V250" stroke="black"/>
<path d="M151 239V250" stroke="black"/>
<path d="M155 239V250" stroke="black"/>
<path d="M159 239V250" stroke="black"/>
<path d="M163 239V250" stroke="black"/>
<path d="M167 239V250" stroke="black"/>
<path d="M171 239V250" stroke="black"/>
<path d="M175 239V250" stroke="black"/>
<path d="M179 239V250" stroke="black"/>
<path d="M183 239V250" stroke="black"/>
<path d="M187 239V250" stroke="black"/>
<path d="M191 239V250" stroke="black"/>
<path d="M195 239V250" stroke="black"/>
<path d="M199 239V250" stroke="black"/>
<path d="M203 239V250" stroke="black"/>
<path d="M207 239V250" stroke="black"/>
<path d="M211 239V250" stroke="black"/>
<path d="M215 239V250" stroke="black"/>
<path d="M219 239V250" stroke="black"/>
<path d="M223 239V250" stroke="black"/>
<path d="M227 239V250" stroke="black"/>
<path d="M231 239V250" stroke="black"/>
<path d="M235 239V250" stroke="black"/>
<path d="M239 239V250" stroke="black"/>
<path d="M243 239V250" stroke="black"/>
<path d="M247 239V250" stroke="black"/>
<path d="M251 239V250" stroke="black"/>
<path d="M255 239V250" stroke="black"/>
<path d="M259 239V250" stroke="black"/>
<path d="M263 239V250" stroke="black"/>
<path d="M267 239V250" stroke="black"/>
<path d="M271 239V250" stroke="black"/>
<path d="M275 239V250" stroke="black"/>
<path d="M279 239V250" stroke="black"/>
<path d="M283 239V250" stroke="black"/>
<path d="M287 239V250" stroke="black"/>
<path d="M291 239V250" stroke="black"/>
<path d="M295 239V250" stroke="black"/>
<path d="M299 239V250" stroke="black"/>
<path d="M303 239V250" stroke="black"/>
<path d="M307 239V250" stroke="black"/>
<path d="M311 239V250" stroke="black"/>
<path d="M315 239V250" stroke="black"/>
<path d="M319 239V250" stroke="black"/>
<path d="M323 239V250" stroke="black"/>
<path d="M327 239V250" stroke="black"/>
<path d="M331 239V250" stroke="black"/>
<path d="M335 239V250" stroke="black"/>
<path d="M339 239V250" stroke="black"/>
<path d="M343 239V250" stroke="black"/>
<path d="M347 239V250" stroke="black"/>
<path d="M351 239V250" stroke="black"/>
<path d="M355 239V250" stroke="black"/>
<path d="M359 239V250" stroke="black"/>
<path d="M363 239V250" stroke="black"/>
<path d="M367 239V250" stroke="black"/>
<path d="M371 239V250" stroke="black"/>
<path d="M375 239V250" stroke="black"/>
<path d="M379 239V250" stroke="black"/>
<path d="M383 239V250" stroke="black"/>
<path d="M387 239V250" stroke="black"/>
<path d="M391 239V250" stroke="black"/>
<path d="M395 239V250" stroke="black"/>
<path d="M399 239V250" stroke="black"/>
<path d="M403 239V250" stroke="black"/>
<path d="M407 239V250" stroke="black"/>
<path d="M411 239V250" stroke="black"/>
<path d="M415 239V250" stroke="black"/>
<path d="M419 239V250" stroke="black"/>
<path d="M423 239V250" stroke="black"/>
<path d="M427 239V250" stroke="black"/>
<path d="M431 239V250" stroke="black"/>
<path d="M435 239V250" stroke="black"/>
<path d="M439 239V250" stroke="black"/>
<path d="M443 239V250" stroke="black"/>
<path d="M447 239V250" stroke="black"/>
<path d="M451 239V250" stroke="black"/>
<path d="M455 239V250" stroke="black"/>
<path d="M459 239V250" stroke="black"/>
<path d="M463 239V250" stroke="black"/>
<path d="M467 239V250" stroke="black"/>
<path d="M471 239V250" stroke="black"/>
<path d="M475 239V250" stroke="black"/>
<path d="M479 239V250" stroke="black"/>
<path d="M483 239V250" stroke="black"/>
<path d="M487 239V250" stroke="black"/>
<path d="M491 239V250" stroke="black"/>
<path d="M495 239V250" stroke="black"/>
<path d="M499 239V250" stroke="black"/>
<path d="M503 239V250" stroke="black"/>
<path d="M507 239V250" stroke="black"/>
<path d="M511 239V250" stroke="black"/>
<path d="M515 239V250" stroke="black"/>
<path d="M519 239V250" stroke="black"/>
<path d="M523 239V250" stroke="black"/>
<path d="M527 239V250" stroke="black"/>
<path d="M531 239V250" stroke="black"/>
<path d="M535 239V250" stroke="black"/>
<path d="M539 239V250" stroke="black"/>
<path d="M543 239V250" stroke="black"/>
<path d="M547 239V250" stroke="black"/>
<path d="M551 239V250" stroke="black"/>
<path d="M555 239V250" stroke="black"/>
<path d="M559 239V250" stroke="black"/>
<path d="M563 239V250" stroke="black"/>
<path d="M567 239V250" stroke="black"/>
<path d="M571 239V250" stroke="black"/>
<path d="M575 239V250" stroke="black"/>
<path d="M579 239V250" stroke="black"/>
<path d="M583 239V250" stroke="black"/>
<path d="M587 239V250" stroke="black"/>
<path d="M591 239V250" stroke="black"/>
<path d="M595 239V250" stroke="black"/>
<path d="M599 239V250" stroke="black"/>
<path d="M870 44H876V50" stroke="black"/>
<path d="M707 85L701 85L701 79" stroke="black"/>
<path d="M-5 166H28L49 187M786.5 226L768.5 208H629.5L608.5 226H121L101 208H70L49 187M49 187H-5" stroke="black"/>
<path d="M1112.5 198H1087L1077 208M978 260.5L1012 226.5H1058.5L1072.75 212.25L1077 208M1077 208H986" stroke="black"/>
<path d="M1166 27H1090.5L1063.5 48.5H1012L972 80.5" stroke="black"/>
<path d="M1330 36L1343 49H1394.5L1407.5 36H1425.5" stroke="black"/>
<path d="M426 12H444H457H508H521H705L718 -1H769.5L782.5 12H800.5" stroke="black"/>
<path d="M70 12H107L120 -1H171.5L184.5 12H202.5" stroke="black"/>
<circle cx="733" cy="127" r="4.25" stroke="black" stroke-width="1.5"/>
<circle cx="737" cy="127" r="4.25" stroke="black" stroke-width="1.5"/>
</g>
<defs>
<filter id="filter0_i_554_8" x="6" y="8" width="10" height="9" filterUnits="userSpaceOnUse" color-interpolation-filters="sRGB">
<feFlood flood-opacity="0" result="BackgroundImageFix"/>
<feBlend mode="normal" in="SourceGraphic" in2="BackgroundImageFix" result="shape"/>
<feColorMatrix in="SourceAlpha" type="matrix" values="0 0 0 0 0 0 0 0 0 0 0 0 0 0 0 0 0 0 127 0" result="hardAlpha"/>
<feOffset dx="-2" dy="1"/>
<feGaussianBlur stdDeviation="2"/>
<feComposite in2="hardAlpha" operator="arithmetic" k2="-1" k3="1"/>
<feColorMatrix type="matrix" values="0 0 0 0 0 0 0 0 0 0 0 0 0 0 0 0 0 0 0.8 0"/>
<feBlend mode="normal" in2="shape" result="effect1_innerShadow_554_8"/>
</filter>
<filter id="filter1_i_554_8" x="19" y="8" width="10" height="9" filterUnits="userSpaceOnUse" color-interpolation-filters="sRGB">
<feFlood flood-opacity="0" result="BackgroundImageFix"/>
<feBlend mode="normal" in="SourceGraphic" in2="BackgroundImageFix" result="shape"/>
<feColorMatrix in="SourceAlpha" type="matrix" values="0 0 0 0 0 0 0 0 0 0 0 0 0 0 0 0 0 0 127 0" result="hardAlpha"/>
<feOffset dx="-2" dy="1"/>
<feGaussianBlur stdDeviation="2"/>
<feComposite in2="hardAlpha" operator="arithmetic" k2="-1" k3="1"/>
<feColorMatrix type="matrix" values="0 0 0 0 0 0 0 0 0 0 0 0 0 0 0 0 0 0 0.8 0"/>
<feBlend mode="normal" in2="shape" result="effect1_innerShadow_554_8"/>
</filter>
<filter id="filter2_i_554_8" x="898" y="8" width="10" height="9" filterUnits="userSpaceOnUse" color-interpolation-filters="sRGB">
<feFlood flood-opacity="0" result="BackgroundImageFix"/>
<feBlend mode="normal" in="SourceGraphic" in2="BackgroundImageFix" result="shape"/>
<feColorMatrix in="SourceAlpha" type="matrix" values="0 0 0 0 0 0 0 0 0 0 0 0 0 0 0 0 0 0 127 0" result="hardAlpha"/>
<feOffset dx="-2" dy="1"/>
<feGaussianBlur stdDeviation="2"/>
<feComposite in2="hardAlpha" operator="arithmetic" k2="-1" k3="1"/>
<feColorMatrix type="matrix" values="0 0 0 0 0 0 0 0 0 0 0 0 0 0 0 0 0 0 0.8 0"/>
<feBlend mode="normal" in2="shape" result="effect1_innerShadow_554_8"/>
</filter>
<filter id="filter3_i_554_8" x="911" y="8" width="10" height="9" filterUnits="userSpaceOnUse" color-interpolation-filters="sRGB">
<feFlood flood-opacity="0" result="BackgroundImageFix"/>
<feBlend mode="normal" in="SourceGraphic" in2="BackgroundImageFix" result="shape"/>
<feColorMatrix in="SourceAlpha" type="matrix" values="0 0 0 0 0 0 0 0 0 0 0 0 0 0 0 0 0 0 127 0" result="hardAlpha"/>
<feOffset dx="-2" dy="1"/>
<feGaussianBlur stdDeviation="2"/>
<feComposite in2="hardAlpha" operator="arithmetic" k2="-1" k3="1"/>
<feColorMatrix type="matrix" values="0 0 0 0 0 0 0 0 0 0 0 0 0 0 0 0 0 0 0.8 0"/>
<feBlend mode="normal" in2="shape" result="effect1_innerShadow_554_8"/>
</filter>
<filter id="filter4_i_554_8" x="788" y="242" width="10" height="9" filterUnits="userSpaceOnUse" color-interpolation-filters="sRGB">
<feFlood flood-opacity="0" result="BackgroundImageFix"/>
<feBlend mode="normal" in="SourceGraphic" in2="BackgroundImageFix" result="shape"/>
<feColorMatrix in="SourceAlpha" type="matrix" values="0 0 0 0 0 0 0 0 0 0 0 0 0 0 0 0 0 0 127 0" result="hardAlpha"/>
<feOffset dx="-2" dy="1"/>
<feGaussianBlur stdDeviation="2"/>
<feComposite in2="hardAlpha" operator="arithmetic" k2="-1" k3="1"/>
<feColorMatrix type="matrix" values="0 0 0 0 0 0 0 0 0 0 0 0 0 0 0 0 0 0 0.8 0"/>
<feBlend mode="normal" in2="shape" result="effect1_innerShadow_554_8"/>
</filter>
<filter id="filter5_i_554_8" x="801" y="242" width="10" height="9" filterUnits="userSpaceOnUse" color-interpolation-filters="sRGB">
<feFlood flood-opacity="0" result="BackgroundImageFix"/>
<feBlend mode="normal" in="SourceGraphic" in2="BackgroundImageFix" result="shape"/>
<feColorMatrix in="SourceAlpha" type="matrix" values="0 0 0 0 0 0 0 0 0 0 0 0 0 0 0 0 0 0 127 0" result="hardAlpha"/>
<feOffset dx="-2" dy="1"/>
<feGaussianBlur stdDeviation="2"/>
<feComposite in2="hardAlpha" operator="arithmetic" k2="-1" k3="1"/>
<feColorMatrix type="matrix" values="0 0 0 0 0 0 0 0 0 0 0 0 0 0 0 0 0 0 0.8 0"/>
<feBlend mode="normal" in2="shape" result="effect1_innerShadow_554_8"/>
</filter>
<filter id="filter6_i_554_8" x="638" y="218" width="10" height="9" filterUnits="userSpaceOnUse" color-interpolation-filters="sRGB">
<feFlood flood-opacity="0" result="BackgroundImageFix"/>
<feBlend mode="normal" in="SourceGraphic" in2="BackgroundImageFix" result="shape"/>
<feColorMatrix in="SourceAlpha" type="matrix" values="0 0 0 0 0 0 0 0 0 0 0 0 0 0 0 0 0 0 127 0" result="hardAlpha"/>
<feOffset dx="-2" dy="1"/>
<feGaussianBlur stdDeviation="2"/>
<feComposite in2="hardAlpha" operator="arithmetic" k2="-1" k3="1"/>
<feColorMatrix type="matrix" values="0 0 0 0 0 0 0 0 0 0 0 0 0 0 0 0 0 0 0.8 0"/>
<feBlend mode="normal" in2="shape" result="effect1_innerShadow_554_8"/>
</filter>
<filter id="filter7_i_554_8" x="651" y="218" width="10" height="9" filterUnits="userSpaceOnUse" color-interpolation-filters="sRGB">
<feFlood flood-opacity="0" result="BackgroundImageFix"/>
<feBlend mode="normal" in="SourceGraphic" in2="BackgroundImageFix" result="shape"/>
<feColorMatrix in="SourceAlpha" type="matrix" values="0 0 0 0 0 0 0 0 0 0 0 0 0 0 0 0 0 0 127 0" result="hardAlpha"/>
<feOffset dx="-2" dy="1"/>
<feGaussianBlur stdDeviation="2"/>
<feComposite in2="hardAlpha" operator="arithmetic" k2="-1" k3="1"/>
<feColorMatrix type="matrix" values="0 0 0 0 0 0 0 0 0 0 0 0 0 0 0 0 0 0 0.8 0"/>
<feBlend mode="normal" in2="shape" result="effect1_innerShadow_554_8"/>
</filter>
<filter id="filter8_i_554_8" x="664" y="218" width="10" height="9" filterUnits="userSpaceOnUse" color-interpolation-filters="sRGB">
<feFlood flood-opacity="0" result="BackgroundImageFix"/>
<feBlend mode="normal" in="SourceGraphic" in2="BackgroundImageFix" result="shape"/>
<feColorMatrix in="SourceAlpha" type="matrix" values="0 0 0 0 0 0 0 0 0 0 0 0 0 0 0 0 0 0 127 0" result="hardAlpha"/>
<feOffset dx="-2" dy="1"/>
<feGaussianBlur stdDeviation="2"/>
<feComposite in2="hardAlpha" operator="arithmetic" k2="-1" k3="1"/>
<feColorMatrix type="matrix" values="0 0 0 0 0 0 0 0 0 0 0 0 0 0 0 0 0 0 0.8 0"/>
<feBlend mode="normal" in2="shape" result="effect1_innerShadow_554_8"/>
</filter>
<filter id="filter9_i_554_8" x="677" y="218" width="10" height="9" filterUnits="userSpaceOnUse" color-interpolation-filters="sRGB">
<feFlood flood-opacity="0" result="BackgroundImageFix"/>
<feBlend mode="normal" in="SourceGraphic" in2="BackgroundImageFix" result="shape"/>
<feColorMatrix in="SourceAlpha" type="matrix" values="0 0 0 0 0 0 0 0 0 0 0 0 0 0 0 0 0 0 127 0" result="hardAlpha"/>
<feOffset dx="-2" dy="1"/>
<feGaussianBlur stdDeviation="2"/>
<feComposite in2="hardAlpha" operator="arithmetic" k2="-1" k3="1"/>
<feColorMatrix type="matrix" values="0 0 0 0 0 0 0 0 0 0 0 0 0 0 0 0 0 0 0.8 0"/>
<feBlend mode="normal" in2="shape" result="effect1_innerShadow_554_8"/>
</filter>
<filter id="filter10_i_554_8" x="690" y="218" width="10" height="9" filterUnits="userSpaceOnUse" color-interpolation-filters="sRGB">
<feFlood flood-opacity="0" result="BackgroundImageFix"/>
<feBlend mode="normal" in="SourceGraphic" in2="BackgroundImageFix" result="shape"/>
<feColorMatrix in="SourceAlpha" type="matrix" values="0 0 0 0 0 0 0 0 0 0 0 0 0 0 0 0 0 0 127 0" result="hardAlpha"/>
<feOffset dx="-2" dy="1"/>
<feGaussianBlur stdDeviation="2"/>
<feComposite in2="hardAlpha" operator="arithmetic" k2="-1" k3="1"/>
<feColorMatrix type="matrix" values="0 0 0 0 0 0 0 0 0 0 0 0 0 0 0 0 0 0 0.8 0"/>
<feBlend mode="normal" in2="shape" result="effect1_innerShadow_554_8"/>
</filter>
<filter id="filter11_i_554_8" x="703" y="218" width="10" height="9" filterUnits="userSpaceOnUse" color-interpolation-filters="sRGB">
<feFlood flood-opacity="0" result="BackgroundImageFix"/>
<feBlend mode="normal" in="SourceGraphic" in2="BackgroundImageFix" result="shape"/>
<feColorMatrix in="SourceAlpha" type="matrix" values="0 0 0 0 0 0 0 0 0 0 0 0 0 0 0 0 0 0 127 0" result="hardAlpha"/>
<feOffset dx="-2" dy="1"/>
<feGaussianBlur stdDeviation="2"/>
<feComposite in2="hardAlpha" operator="arithmetic" k2="-1" k3="1"/>
<feColorMatrix type="matrix" values="0 0 0 0 0 0 0 0 0 0 0 0 0 0 0 0 0 0 0.8 0"/>
<feBlend mode="normal" in2="shape" result="effect1_innerShadow_554_8"/>
</filter>
<filter id="filter12_i_554_8" x="716" y="218" width="10" height="9" filterUnits="userSpaceOnUse" color-interpolation-filters="sRGB">
<feFlood flood-opacity="0" result="BackgroundImageFix"/>
<feBlend mode="normal" in="SourceGraphic" in2="BackgroundImageFix" result="shape"/>
<feColorMatrix in="SourceAlpha" type="matrix" values="0 0 0 0 0 0 0 0 0 0 0 0 0 0 0 0 0 0 127 0" result="hardAlpha"/>
<feOffset dx="-2" dy="1"/>
<feGaussianBlur stdDeviation="2"/>
<feComposite in2="hardAlpha" operator="arithmetic" k2="-1" k3="1"/>
<feColorMatrix type="matrix" values="0 0 0 0 0 0 0 0 0 0 0 0 0 0 0 0 0 0 0.8 0"/>
<feBlend mode="normal" in2="shape" result="effect1_innerShadow_554_8"/>
</filter>
<filter id="filter13_i_554_8" x="729" y="218" width="10" height="9" filterUnits="userSpaceOnUse" color-interpolation-filters="sRGB">
<feFlood flood-opacity="0" result="BackgroundImageFix"/>
<feBlend mode="normal" in="SourceGraphic" in2="BackgroundImageFix" result="shape"/>
<feColorMatrix in="SourceAlpha" type="matrix" values="0 0 0 0 0 0 0 0 0 0 0 0 0 0 0 0 0 0 127 0" result="hardAlpha"/>
<feOffset dx="-2" dy="1"/>
<feGaussianBlur stdDeviation="2"/>
<feComposite in2="hardAlpha" operator="arithmetic" k2="-1" k3="1"/>
<feColorMatrix type="matrix" values="0 0 0 0 0 0 0 0 0 0 0 0 0 0 0 0 0 0 0.8 0"/>
<feBlend mode="normal" in2="shape" result="effect1_innerShadow_554_8"/>
</filter>
<filter id="filter14_i_554_8" x="742" y="218" width="10" height="9" filterUnits="userSpaceOnUse" color-interpolation-filters="sRGB">
<feFlood flood-opacity="0" result="BackgroundImageFix"/>
<feBlend mode="normal" in="SourceGraphic" in2="BackgroundImageFix" result="shape"/>
<feColorMatrix in="SourceAlpha" type="matrix" values="0 0 0 0 0 0 0 0 0 0 0 0 0 0 0 0 0 0 127 0" result="hardAlpha"/>
<feOffset dx="-2" dy="1"/>
<feGaussianBlur stdDeviation="2"/>
<feComposite in2="hardAlpha" operator="arithmetic" k2="-1" k3="1"/>
<feColorMatrix type="matrix" values="0 0 0 0 0 0 0 0 0 0 0 0 0 0 0 0 0 0 0.8 0"/>
<feBlend mode="normal" in2="shape" result="effect1_innerShadow_554_8"/>
</filter>
<filter id="filter15_i_554_8" x="1090" y="8" width="10" height="9" filterUnits="userSpaceOnUse" color-interpolation-filters="sRGB">
<feFlood flood-opacity="0" result="BackgroundImageFix"/>
<feBlend mode="normal" in="SourceGraphic" in2="BackgroundImageFix" result="shape"/>
<feColorMatrix in="SourceAlpha" type="matrix" values="0 0 0 0 0 0 0 0 0 0 0 0 0 0 0 0 0 0 127 0" result="hardAlpha"/>
<feOffset dx="-2" dy="1"/>
<feGaussianBlur stdDeviation="2"/>
<feComposite in2="hardAlpha" operator="arithmetic" k2="-1" k3="1"/>
<feColorMatrix type="matrix" values="0 0 0 0 0 0 0 0 0 0 0 0 0 0 0 0 0 0 0.8 0"/>
<feBlend mode="normal" in2="shape" result="effect1_innerShadow_554_8"/>
</filter>
<filter id="filter16_i_554_8" x="1103" y="8" width="10" height="9" filterUnits="userSpaceOnUse" color-interpolation-filters="sRGB">
<feFlood flood-opacity="0" result="BackgroundImageFix"/>
<feBlend mode="normal" in="SourceGraphic" in2="BackgroundImageFix" result="shape"/>
<feColorMatrix in="SourceAlpha" type="matrix" values="0 0 0 0 0 0 0 0 0 0 0 0 0 0 0 0 0 0 127 0" result="hardAlpha"/>
<feOffset dx="-2" dy="1"/>
<feGaussianBlur stdDeviation="2"/>
<feComposite in2="hardAlpha" operator="arithmetic" k2="-1" k3="1"/>
<feColorMatrix type="matrix" values="0 0 0 0 0 0 0 0 0 0 0 0 0 0 0 0 0 0 0.8 0"/>
<feBlend mode="normal" in2="shape" result="effect1_innerShadow_554_8"/>
</filter>
<clipPath id="clip0_554_8">
<rect width="1391" height="257" fill="white"/>
</clipPath>
</defs>
</svg>
