<svg width="455" height="604" viewBox="0 0 455 604" fill="none" xmlns="http://www.w3.org/2000/svg">
<g clip-path="url(#clip0_553_4)">
<g filter="url(#filter0_i_553_4)">
<circle cx="12" cy="7" r="4" fill="#222222"/>
</g>
<g filter="url(#filter1_i_553_4)">
<circle cx="25" cy="7" r="4" fill="#222222"/>
</g>
<g filter="url(#filter2_i_553_4)">
<circle cx="426" cy="53" r="4" fill="#222222"/>
</g>
<circle cx="12" cy="594" r="4" fill="#222222"/>
<circle cx="25" cy="594" r="4" fill="#222222"/>
<path d="M0 36H25.5L35.5 46M100.5 64.5H54L39.75 50.25L35.5 46M35.5 46H100.5L61.5 7H25.5" stroke="black"/>
<path d="M463.5 41H438L428 51L423.75 55.25L409.5 69.5H363L329 103.5" stroke="black"/>
<circle cx="445" cy="593" r="4" transform="rotate(-90 445 593)" fill="#222222"/>
<circle cx="445" cy="580" r="4" transform="rotate(-90 445 580)" fill="#222222"/>
<path d="M-47 595H-29L-16 608H35L48 595H232L245 608H296.5L309.5 595H327.5" stroke="black"/>
<path d="M366 0V11" stroke="black"/>
<path d="M370 0V11" stroke="black"/>
<path d="M374 0V11" stroke="black"/>
<path d="M378 0V11" stroke="black"/>
<path d="M382 0V11" stroke="black"/>
<path d="M386 0V11" stroke="black"/>
<path d="M390 0V11" stroke="black"/>
<path d="M394 0V11" stroke="black"/>
<path d="M398 0V11" stroke="black"/>
<path d="M402 0V11" stroke="black"/>
<path d="M406 0V11" stroke="black"/>
<path d="M410 0V11" stroke="black"/>
<path d="M414 0V11" stroke="black"/>
<path d="M418 0V11" stroke="black"/>
<path d="M422 0V11" stroke="black"/>
<path d="M426 0V11" stroke="black"/>
<path d="M430 0V11" stroke="black"/>
<path d="M434 0V11" stroke="black"/>
<path d="M438 0V11" stroke="black"/>
<path d="M442 0V11" stroke="black"/>
<path d="M446 0V11" stroke="black"/>
</g>
<defs>
<filter id="filter0_i_553_4" x="6" y="3" width="10" height="9" filterUnits="userSpaceOnUse" color-interpolation-filters="sRGB">
<feFlood flood-opacity="0" result="BackgroundImageFix"/>
<feBlend mode="normal" in="SourceGraphic" in2="BackgroundImageFix" result="shape"/>
<feColorMatrix in="SourceAlpha" type="matrix" values="0 0 0 0 0 0 0 0 0 0 0 0 0 0 0 0 0 0 127 0" result="hardAlpha"/>
<feOffset dx="-2" dy="1"/>
<feGaussianBlur stdDeviation="2"/>
<feComposite in2="hardAlpha" operator="arithmetic" k2="-1" k3="1"/>
<feColorMatrix type="matrix" values="0 0 0 0 0 0 0 0 0 0 0 0 0 0 0 0 0 0 0.8 0"/>
<feBlend mode="normal" in2="shape" result="effect1_innerShadow_553_4"/>
</filter>
<filter id="filter1_i_553_4" x="19" y="3" width="10" height="9" filterUnits="userSpaceOnUse" color-interpolation-filters="sRGB">
<feFlood flood-opacity="0" result="BackgroundImageFix"/>
<feBlend mode="normal" in="SourceGraphic" in2="BackgroundImageFix" result="shape"/>
<feColorMatrix in="SourceAlpha" type="matrix" values="0 0 0 0 0 0 0 0 0 0 0 0 0 0 0 0 0 0 127 0" result="hardAlpha"/>
<feOffset dx="-2" dy="1"/>
<feGaussianBlur stdDeviation="2"/>
<feComposite in2="hardAlpha" operator="arithmetic" k2="-1" k3="1"/>
<feColorMatrix type="matrix" values="0 0 0 0 0 0 0 0 0 0 0 0 0 0 0 0 0 0 0.8 0"/>
<feBlend mode="normal" in2="shape" result="effect1_innerShadow_553_4"/>
</filter>
<filter id="filter2_i_553_4" x="420" y="49" width="10" height="9" filterUnits="userSpaceOnUse" color-interpolation-filters="sRGB">
<feFlood flood-opacity="0" result="BackgroundImageFix"/>
<feBlend mode="normal" in="SourceGraphic" in2="BackgroundImageFix" result="shape"/>
<feColorMatrix in="SourceAlpha" type="matrix" values="0 0 0 0 0 0 0 0 0 0 0 0 0 0 0 0 0 0 127 0" result="hardAlpha"/>
<feOffset dx="-2" dy="1"/>
<feGaussianBlur stdDeviation="2"/>
<feComposite in2="hardAlpha" operator="arithmetic" k2="-1" k3="1"/>
<feColorMatrix type="matrix" values="0 0 0 0 0 0 0 0 0 0 0 0 0 0 0 0 0 0 0.8 0"/>
<feBlend mode="normal" in2="shape" result="effect1_innerShadow_553_4"/>
</filter>
<clipPath id="clip0_553_4">
<rect width="455" height="604" fill="white"/>
</clipPath>
</defs>
</svg>
