<svg width="331" height="331" viewBox="0 0 331 331" fill="none" xmlns="http://www.w3.org/2000/svg">
<mask id="path-1-inside-1_512_433" fill="white">
<path fill-rule="evenodd" clip-rule="evenodd" d="M168.003 1.31744C166.415 -0.439148 163.657 -0.439145 162.068 1.31744L158.857 4.86922C157.388 6.49456 154.884 6.63516 153.242 5.18456L149.653 2.01466C147.879 0.446927 145.138 0.755724 143.756 2.67908L140.963 6.56807C139.685 8.34771 137.213 8.76774 135.419 7.51014L131.498 4.76195C129.558 3.40279 126.87 4.01652 125.712 6.08246L123.372 10.2597C122.301 12.1713 119.891 12.8655 117.968 11.8167L113.764 9.52478C111.684 8.39129 109.081 9.30221 108.162 11.4847L106.304 15.8978C105.454 17.9172 103.138 18.8768 101.108 18.05L96.6742 16.2432C94.4812 15.3497 91.9963 16.5463 91.3276 18.818L89.9756 23.4113C89.3568 25.5133 87.1622 26.7262 85.0532 26.1318L80.4446 24.8329C78.1653 24.1904 75.8301 25.6578 75.4199 27.9901L74.5906 32.7059C74.2111 34.8639 72.1661 36.3149 70.0038 35.9604L65.2788 35.1856C62.9419 34.8024 60.7856 36.522 60.6392 38.8856L60.3431 43.6646C60.2076 45.8515 58.3379 47.5224 56.1495 47.4122L51.3674 47.1713C49.0024 47.0522 47.0522 49.0024 47.1713 51.3674L47.4122 56.1495C47.5224 58.3379 45.8515 60.2076 43.6646 60.3431L38.8856 60.6392C36.522 60.7856 34.8024 62.9419 35.1856 65.2788L35.9604 70.0038C36.3149 72.1661 34.8639 74.2111 32.7059 74.5906L27.9901 75.4199C25.6578 75.8301 24.1904 78.1654 24.8329 80.4446L26.1318 85.0532C26.7262 87.1622 25.5133 89.3568 23.4113 89.9756L18.818 91.3276C16.5463 91.9963 15.3497 94.4812 16.2432 96.6742L18.05 101.108C18.8768 103.138 17.9172 105.454 15.8978 106.304L11.4847 108.162C9.30221 109.081 8.39129 111.684 9.52478 113.764L11.8167 117.968C12.8655 119.891 12.1713 122.301 10.2597 123.372L6.08245 125.712C4.01652 126.87 3.40279 129.558 4.76195 131.498L7.51014 135.419C8.76774 137.213 8.34772 139.685 6.56807 140.963L2.67908 143.756C0.755729 145.138 0.446927 147.879 2.01466 149.653L5.18456 153.242C6.63516 154.884 6.49455 157.388 4.86922 158.857L1.31744 162.068C-0.439148 163.657 -0.439145 166.415 1.31744 168.003L2.45984 169.036H7.03552H11.0355H14.0752H19.0894C21.1728 246.491 83.5803 308.898 161.036 310.982V319.036V323.036L161.036 327.611L162.068 328.754C163.657 330.51 166.415 330.51 168.003 328.754L171.214 325.202C172.683 323.577 175.187 323.436 176.829 324.887L180.418 328.056C182.192 329.624 184.933 329.315 186.315 327.392L189.108 323.503C190.386 321.723 192.858 321.303 194.653 322.561L198.574 325.309C200.513 326.668 203.202 326.055 204.359 323.989L206.699 319.811C207.77 317.9 210.18 317.206 212.104 318.254L216.308 320.546C218.387 321.68 220.99 320.769 221.909 318.586L223.767 314.173C224.617 312.154 226.934 311.194 228.963 312.021L233.397 313.828C235.59 314.721 238.075 313.525 238.743 311.253L240.096 306.66C240.714 304.558 242.909 303.345 245.018 303.939L249.626 305.238C251.906 305.881 254.241 304.413 254.651 302.081L255.48 297.365C255.86 295.207 257.905 293.756 260.067 294.111L264.792 294.885C267.129 295.269 269.285 293.549 269.432 291.186L269.728 286.407C269.863 284.22 271.733 282.549 273.922 282.659L278.704 282.9C281.069 283.019 283.019 281.069 282.9 278.704L282.659 273.922C282.549 271.733 284.22 269.863 286.407 269.728L291.186 269.432C293.549 269.285 295.269 267.129 294.885 264.792L294.111 260.067C293.756 257.905 295.207 255.86 297.365 255.48L302.081 254.651C304.413 254.241 305.881 251.906 305.238 249.626L303.939 245.018C303.345 242.909 304.558 240.714 306.66 240.096L311.253 238.743C313.525 238.075 314.721 235.59 313.828 233.397L312.021 228.963C311.194 226.934 312.154 224.617 314.173 223.767L318.586 221.909C320.769 220.99 321.68 218.387 320.546 216.308L318.254 212.104C317.206 210.18 317.9 207.77 319.811 206.699L323.989 204.359C326.055 203.202 326.668 200.513 325.309 198.574L322.561 194.653C321.303 192.858 321.723 190.386 323.503 189.108L327.392 186.315C329.315 184.933 329.624 182.192 328.056 180.418L324.887 176.829C323.436 175.187 323.577 172.683 325.202 171.214L328.754 168.003C330.51 166.415 330.51 163.657 328.754 162.068L325.202 158.857C323.577 157.388 323.436 154.884 324.887 153.242L328.056 149.653C329.624 147.879 329.315 145.138 327.392 143.756L323.503 140.963C321.723 139.685 321.303 137.213 322.561 135.419L325.309 131.498C326.668 129.558 326.055 126.87 323.989 125.712L319.811 123.372C317.9 122.301 317.206 119.891 318.254 117.968L320.546 113.764C321.68 111.684 320.769 109.081 318.586 108.162L314.173 106.304C312.154 105.454 311.194 103.138 312.021 101.108L313.828 96.6742C314.721 94.4812 313.525 91.9963 311.253 91.3276L306.66 89.9756C304.558 89.3568 303.345 87.1622 303.939 85.0532L305.238 80.4446C305.881 78.1654 304.413 75.8301 302.081 75.4199L297.365 74.5906C295.207 74.2111 293.756 72.1661 294.111 70.0038L294.885 65.2788C295.269 62.9419 293.549 60.7856 291.186 60.6392L286.407 60.3431C284.22 60.2076 282.549 58.3379 282.659 56.1495L282.9 51.3674C283.019 49.0024 281.069 47.0522 278.704 47.1713L273.922 47.4122C271.733 47.5224 269.863 45.8515 269.728 43.6645L269.432 38.8856C269.285 36.522 267.129 34.8024 264.792 35.1856L260.067 35.9604C257.905 36.3149 255.86 34.8639 255.48 32.7059L254.651 27.9901C254.241 25.6578 251.906 24.1904 249.626 24.8329L245.018 26.1318C242.909 26.7262 240.714 25.5133 240.096 23.4113L238.743 18.818C238.075 16.5463 235.59 15.3497 233.397 16.2432L228.963 18.05C226.934 18.8768 224.617 17.9172 223.767 15.8978L221.909 11.4847C220.99 9.30221 218.387 8.39129 216.308 9.52478L212.104 11.8167C210.18 12.8655 207.77 12.1713 206.699 10.2597L204.359 6.08245C203.202 4.01652 200.513 3.40279 198.574 4.76195L194.653 7.51014C192.858 8.76774 190.386 8.34772 189.108 6.56807L186.315 2.67908C184.933 0.755729 182.192 0.446927 180.418 2.01466L176.829 5.18456C175.187 6.63516 172.683 6.49455 171.214 4.86922L168.003 1.31744ZM169.036 310.982V314.983C250.029 312.863 315.036 246.541 315.036 165.036C315.036 82.1928 247.878 15.0355 165.036 15.0355C83.5303 15.0355 17.2081 80.0418 15.0878 161.036H19.0894C21.2085 82.2513 85.7397 19.0355 165.036 19.0355L169.036 19.0355V23.0355V31.0941C239.863 33.1705 296.901 90.2082 298.977 161.036H307.036H311.036V165.036C311.036 244.332 247.82 308.863 169.036 310.982ZM27.0925 169.036C29.1714 242.072 87.9989 300.9 161.036 302.979V298.977C90.2083 296.9 33.1706 239.863 31.0942 169.036H27.0925ZM31.0942 161.036H27.0925C29.1714 87.9989 87.999 29.1713 161.036 27.0924V31.0941C90.2084 33.1705 33.1706 90.2082 31.0942 161.036ZM169.036 298.977C239.863 296.901 296.901 239.863 298.977 169.036H302.979C300.9 242.072 242.072 300.9 169.036 302.979V298.977ZM211.002 265C197.015 271.443 181.445 275.036 165.036 275.036C149.692 275.036 135.082 271.894 121.813 266.219C116.342 263.879 114.8 257.076 118.23 252.213L153.85 201.705C156.198 198.377 160.336 196.951 164.408 197.029C164.617 197.034 164.826 197.036 165.036 197.036C165.645 197.036 166.251 197.018 166.852 196.985C170.997 196.753 175.27 198.074 177.733 201.415L214.241 250.943C217.758 255.715 216.386 262.52 211.002 265ZM134.106 173.275C133.039 169.257 130.455 165.6 126.507 164.3L68.0858 145.057C62.4488 143.2 56.4055 146.636 55.7383 152.533C55.2741 156.637 55.0356 160.808 55.0356 165.036C55.0356 193.841 66.1078 220.06 84.2285 239.67C88.271 244.045 95.2049 243.218 98.6378 238.351L134.237 187.873C136.587 184.541 136.533 180.16 135.092 176.346C134.714 175.345 134.384 174.32 134.106 173.275ZM147.363 138.354C150.797 136.075 153.418 132.496 153.418 128.375V66.7464C153.418 60.8106 148.261 56.1438 142.45 57.3564C111.843 63.7438 85.9046 82.8522 70.4173 108.901C67.3608 114.041 70.1673 120.474 75.8479 122.345L134.82 141.769C138.614 143.019 142.706 141.77 145.907 139.38C146.382 139.025 146.868 138.683 147.363 138.354ZM177.418 128.873C177.418 132.9 179.924 136.418 183.234 138.71C183.755 139.071 184.265 139.447 184.763 139.837C187.928 142.319 192.025 143.665 195.867 142.474L255.072 124.11C260.776 122.341 263.697 115.974 260.747 110.781C245.54 84.0115 219.426 64.2476 188.449 57.5326C182.621 56.2691 177.418 60.9437 177.418 66.9074V128.873ZM195.764 173.996C196.918 170.031 199.559 166.456 203.503 165.233L262.338 146.985C268.015 145.224 274.004 148.778 274.556 154.696C274.873 158.1 275.036 161.549 275.036 165.036C275.036 192.762 264.778 218.092 247.85 237.438C243.913 241.938 236.929 241.274 233.382 236.462L196.566 186.516C194.193 183.296 194.11 179.01 195.382 175.218C195.517 174.814 195.645 174.407 195.764 173.996Z"/>
</mask>
<path fill-rule="evenodd" clip-rule="evenodd" d="M168.003 1.31744C166.415 -0.439148 163.657 -0.439145 162.068 1.31744L158.857 4.86922C157.388 6.49456 154.884 6.63516 153.242 5.18456L149.653 2.01466C147.879 0.446927 145.138 0.755724 143.756 2.67908L140.963 6.56807C139.685 8.34771 137.213 8.76774 135.419 7.51014L131.498 4.76195C129.558 3.40279 126.87 4.01652 125.712 6.08246L123.372 10.2597C122.301 12.1713 119.891 12.8655 117.968 11.8167L113.764 9.52478C111.684 8.39129 109.081 9.30221 108.162 11.4847L106.304 15.8978C105.454 17.9172 103.138 18.8768 101.108 18.05L96.6742 16.2432C94.4812 15.3497 91.9963 16.5463 91.3276 18.818L89.9756 23.4113C89.3568 25.5133 87.1622 26.7262 85.0532 26.1318L80.4446 24.8329C78.1653 24.1904 75.8301 25.6578 75.4199 27.9901L74.5906 32.7059C74.2111 34.8639 72.1661 36.3149 70.0038 35.9604L65.2788 35.1856C62.9419 34.8024 60.7856 36.522 60.6392 38.8856L60.3431 43.6646C60.2076 45.8515 58.3379 47.5224 56.1495 47.4122L51.3674 47.1713C49.0024 47.0522 47.0522 49.0024 47.1713 51.3674L47.4122 56.1495C47.5224 58.3379 45.8515 60.2076 43.6646 60.3431L38.8856 60.6392C36.522 60.7856 34.8024 62.9419 35.1856 65.2788L35.9604 70.0038C36.3149 72.1661 34.8639 74.2111 32.7059 74.5906L27.9901 75.4199C25.6578 75.8301 24.1904 78.1654 24.8329 80.4446L26.1318 85.0532C26.7262 87.1622 25.5133 89.3568 23.4113 89.9756L18.818 91.3276C16.5463 91.9963 15.3497 94.4812 16.2432 96.6742L18.05 101.108C18.8768 103.138 17.9172 105.454 15.8978 106.304L11.4847 108.162C9.30221 109.081 8.39129 111.684 9.52478 113.764L11.8167 117.968C12.8655 119.891 12.1713 122.301 10.2597 123.372L6.08245 125.712C4.01652 126.87 3.40279 129.558 4.76195 131.498L7.51014 135.419C8.76774 137.213 8.34772 139.685 6.56807 140.963L2.67908 143.756C0.755729 145.138 0.446927 147.879 2.01466 149.653L5.18456 153.242C6.63516 154.884 6.49455 157.388 4.86922 158.857L1.31744 162.068C-0.439148 163.657 -0.439145 166.415 1.31744 168.003L2.45984 169.036H7.03552H11.0355H14.0752H19.0894C21.1728 246.491 83.5803 308.898 161.036 310.982V319.036V323.036L161.036 327.611L162.068 328.754C163.657 330.51 166.415 330.51 168.003 328.754L171.214 325.202C172.683 323.577 175.187 323.436 176.829 324.887L180.418 328.056C182.192 329.624 184.933 329.315 186.315 327.392L189.108 323.503C190.386 321.723 192.858 321.303 194.653 322.561L198.574 325.309C200.513 326.668 203.202 326.055 204.359 323.989L206.699 319.811C207.77 317.9 210.18 317.206 212.104 318.254L216.308 320.546C218.387 321.68 220.99 320.769 221.909 318.586L223.767 314.173C224.617 312.154 226.934 311.194 228.963 312.021L233.397 313.828C235.59 314.721 238.075 313.525 238.743 311.253L240.096 306.66C240.714 304.558 242.909 303.345 245.018 303.939L249.626 305.238C251.906 305.881 254.241 304.413 254.651 302.081L255.48 297.365C255.86 295.207 257.905 293.756 260.067 294.111L264.792 294.885C267.129 295.269 269.285 293.549 269.432 291.186L269.728 286.407C269.863 284.22 271.733 282.549 273.922 282.659L278.704 282.9C281.069 283.019 283.019 281.069 282.9 278.704L282.659 273.922C282.549 271.733 284.22 269.863 286.407 269.728L291.186 269.432C293.549 269.285 295.269 267.129 294.885 264.792L294.111 260.067C293.756 257.905 295.207 255.86 297.365 255.48L302.081 254.651C304.413 254.241 305.881 251.906 305.238 249.626L303.939 245.018C303.345 242.909 304.558 240.714 306.66 240.096L311.253 238.743C313.525 238.075 314.721 235.59 313.828 233.397L312.021 228.963C311.194 226.934 312.154 224.617 314.173 223.767L318.586 221.909C320.769 220.99 321.68 218.387 320.546 216.308L318.254 212.104C317.206 210.18 317.9 207.77 319.811 206.699L323.989 204.359C326.055 203.202 326.668 200.513 325.309 198.574L322.561 194.653C321.303 192.858 321.723 190.386 323.503 189.108L327.392 186.315C329.315 184.933 329.624 182.192 328.056 180.418L324.887 176.829C323.436 175.187 323.577 172.683 325.202 171.214L328.754 168.003C330.51 166.415 330.51 163.657 328.754 162.068L325.202 158.857C323.577 157.388 323.436 154.884 324.887 153.242L328.056 149.653C329.624 147.879 329.315 145.138 327.392 143.756L323.503 140.963C321.723 139.685 321.303 137.213 322.561 135.419L325.309 131.498C326.668 129.558 326.055 126.87 323.989 125.712L319.811 123.372C317.9 122.301 317.206 119.891 318.254 117.968L320.546 113.764C321.68 111.684 320.769 109.081 318.586 108.162L314.173 106.304C312.154 105.454 311.194 103.138 312.021 101.108L313.828 96.6742C314.721 94.4812 313.525 91.9963 311.253 91.3276L306.66 89.9756C304.558 89.3568 303.345 87.1622 303.939 85.0532L305.238 80.4446C305.881 78.1654 304.413 75.8301 302.081 75.4199L297.365 74.5906C295.207 74.2111 293.756 72.1661 294.111 70.0038L294.885 65.2788C295.269 62.9419 293.549 60.7856 291.186 60.6392L286.407 60.3431C284.22 60.2076 282.549 58.3379 282.659 56.1495L282.9 51.3674C283.019 49.0024 281.069 47.0522 278.704 47.1713L273.922 47.4122C271.733 47.5224 269.863 45.8515 269.728 43.6645L269.432 38.8856C269.285 36.522 267.129 34.8024 264.792 35.1856L260.067 35.9604C257.905 36.3149 255.86 34.8639 255.48 32.7059L254.651 27.9901C254.241 25.6578 251.906 24.1904 249.626 24.8329L245.018 26.1318C242.909 26.7262 240.714 25.5133 240.096 23.4113L238.743 18.818C238.075 16.5463 235.59 15.3497 233.397 16.2432L228.963 18.05C226.934 18.8768 224.617 17.9172 223.767 15.8978L221.909 11.4847C220.99 9.30221 218.387 8.39129 216.308 9.52478L212.104 11.8167C210.18 12.8655 207.77 12.1713 206.699 10.2597L204.359 6.08245C203.202 4.01652 200.513 3.40279 198.574 4.76195L194.653 7.51014C192.858 8.76774 190.386 8.34772 189.108 6.56807L186.315 2.67908C184.933 0.755729 182.192 0.446927 180.418 2.01466L176.829 5.18456C175.187 6.63516 172.683 6.49455 171.214 4.86922L168.003 1.31744ZM169.036 310.982V314.983C250.029 312.863 315.036 246.541 315.036 165.036C315.036 82.1928 247.878 15.0355 165.036 15.0355C83.5303 15.0355 17.2081 80.0418 15.0878 161.036H19.0894C21.2085 82.2513 85.7397 19.0355 165.036 19.0355L169.036 19.0355V23.0355V31.0941C239.863 33.1705 296.901 90.2082 298.977 161.036H307.036H311.036V165.036C311.036 244.332 247.82 308.863 169.036 310.982ZM27.0925 169.036C29.1714 242.072 87.9989 300.9 161.036 302.979V298.977C90.2083 296.9 33.1706 239.863 31.0942 169.036H27.0925ZM31.0942 161.036H27.0925C29.1714 87.9989 87.999 29.1713 161.036 27.0924V31.0941C90.2084 33.1705 33.1706 90.2082 31.0942 161.036ZM169.036 298.977C239.863 296.901 296.901 239.863 298.977 169.036H302.979C300.9 242.072 242.072 300.9 169.036 302.979V298.977ZM211.002 265C197.015 271.443 181.445 275.036 165.036 275.036C149.692 275.036 135.082 271.894 121.813 266.219C116.342 263.879 114.8 257.076 118.23 252.213L153.85 201.705C156.198 198.377 160.336 196.951 164.408 197.029C164.617 197.034 164.826 197.036 165.036 197.036C165.645 197.036 166.251 197.018 166.852 196.985C170.997 196.753 175.27 198.074 177.733 201.415L214.241 250.943C217.758 255.715 216.386 262.52 211.002 265ZM134.106 173.275C133.039 169.257 130.455 165.6 126.507 164.3L68.0858 145.057C62.4488 143.2 56.4055 146.636 55.7383 152.533C55.2741 156.637 55.0356 160.808 55.0356 165.036C55.0356 193.841 66.1078 220.06 84.2285 239.67C88.271 244.045 95.2049 243.218 98.6378 238.351L134.237 187.873C136.587 184.541 136.533 180.16 135.092 176.346C134.714 175.345 134.384 174.32 134.106 173.275ZM147.363 138.354C150.797 136.075 153.418 132.496 153.418 128.375V66.7464C153.418 60.8106 148.261 56.1438 142.45 57.3564C111.843 63.7438 85.9046 82.8522 70.4173 108.901C67.3608 114.041 70.1673 120.474 75.8479 122.345L134.82 141.769C138.614 143.019 142.706 141.77 145.907 139.38C146.382 139.025 146.868 138.683 147.363 138.354ZM177.418 128.873C177.418 132.9 179.924 136.418 183.234 138.71C183.755 139.071 184.265 139.447 184.763 139.837C187.928 142.319 192.025 143.665 195.867 142.474L255.072 124.11C260.776 122.341 263.697 115.974 260.747 110.781C245.54 84.0115 219.426 64.2476 188.449 57.5326C182.621 56.2691 177.418 60.9437 177.418 66.9074V128.873ZM195.764 173.996C196.918 170.031 199.559 166.456 203.503 165.233L262.338 146.985C268.015 145.224 274.004 148.778 274.556 154.696C274.873 158.1 275.036 161.549 275.036 165.036C275.036 192.762 264.778 218.092 247.85 237.438C243.913 241.938 236.929 241.274 233.382 236.462L196.566 186.516C194.193 183.296 194.11 179.01 195.382 175.218C195.517 174.814 195.645 174.407 195.764 173.996Z" fill="url(#paint0_radial_512_433)"/>
<path d="M162.068 1.31744L169.486 8.02385L169.486 8.02382L162.068 1.31744ZM168.003 1.31744L175.421 -5.38895L175.421 -5.38897L168.003 1.31744ZM158.857 4.86922L151.439 -1.83719L151.439 -1.83717L158.857 4.86922ZM153.242 5.18456L146.622 12.6793L146.622 12.6793L153.242 5.18456ZM149.653 2.01466L156.274 -5.48009L156.274 -5.48012L149.653 2.01466ZM143.756 2.67908L135.634 -3.15462L135.634 -3.15462L143.756 2.67908ZM140.963 6.56807L132.841 0.734369L132.841 0.73439L140.963 6.56807ZM135.419 7.51014L141.158 -0.678731L141.158 -0.678739L135.419 7.51014ZM131.498 4.76195L137.237 -3.42693L137.237 -3.42693L131.498 4.76195ZM125.712 6.08246L134.436 10.9701L134.436 10.9701L125.712 6.08246ZM123.372 10.2597L114.648 5.37208L114.648 5.3721L123.372 10.2597ZM117.968 11.8167L122.754 3.03667L122.754 3.03666L117.968 11.8167ZM113.764 9.52478L108.977 18.3048L108.977 18.3048L113.764 9.52478ZM108.162 11.4847L117.379 15.3649L117.379 15.3648L108.162 11.4847ZM106.304 15.8978L97.0879 12.0177L97.0878 12.0177L106.304 15.8978ZM101.108 18.05L97.335 27.3108L97.335 27.3108L101.108 18.05ZM96.6742 16.2432L100.448 6.98251L100.448 6.98251L96.6742 16.2432ZM91.3276 18.818L100.921 21.6418L100.921 21.6418L91.3276 18.818ZM89.9756 23.4113L80.3825 20.5875L80.3825 20.5876L89.9756 23.4113ZM85.0532 26.1318L87.766 16.5068L87.766 16.5068L85.0532 26.1318ZM80.4446 24.8329L77.7318 34.4579L77.7318 34.4579L80.4446 24.8329ZM75.4199 27.9901L85.2688 29.722L85.2688 29.722L75.4199 27.9901ZM74.5906 32.7059L84.4395 34.4378L84.4395 34.4378L74.5906 32.7059ZM70.0038 35.9604L71.622 26.0922L71.622 26.0922L70.0038 35.9604ZM65.2788 35.1856L66.8969 25.3174L66.8969 25.3174L65.2788 35.1856ZM60.6392 38.8856L70.62 39.5039L70.62 39.5039L60.6392 38.8856ZM60.3431 43.6646L50.3622 43.0462L50.3622 43.0462L60.3431 43.6646ZM56.1495 47.4122L55.6465 57.3995L55.6465 57.3995L56.1495 47.4122ZM51.3674 47.1713L50.8644 57.1586L50.8644 57.1586L51.3674 47.1713ZM47.1713 51.3674L57.1586 50.8644L57.1586 50.8644L47.1713 51.3674ZM47.4122 56.1495L57.3995 55.6465L57.3995 55.6465L47.4122 56.1495ZM43.6646 60.3431L43.0462 50.3622L43.0462 50.3622L43.6646 60.3431ZM38.8856 60.6392L39.5039 70.62L39.5039 70.62L38.8856 60.6392ZM35.1856 65.2788L25.3174 66.8969L25.3174 66.8969L35.1856 65.2788ZM35.9604 70.0038L26.0922 71.622L26.0922 71.622L35.9604 70.0038ZM32.7059 74.5906L34.4378 84.4395L34.4378 84.4395L32.7059 74.5906ZM27.9901 75.4199L29.722 85.2688L29.722 85.2688L27.9901 75.4199ZM24.8329 80.4446L34.4579 77.7318L34.4579 77.7318L24.8329 80.4446ZM26.1318 85.0532L35.7568 82.3404L35.7568 82.3404L26.1318 85.0532ZM23.4113 89.9756L20.5876 80.3825L20.5875 80.3825L23.4113 89.9756ZM18.818 91.3276L21.6418 100.921L21.6418 100.921L18.818 91.3276ZM16.2432 96.6742L25.504 92.9008L25.504 92.9008L16.2432 96.6742ZM18.05 101.108L8.78929 104.882L8.7893 104.882L18.05 101.108ZM15.8978 106.304L19.7779 115.521L19.7779 115.521L15.8978 106.304ZM11.4847 108.162L7.60465 98.9457L7.60465 98.9457L11.4847 108.162ZM9.52478 113.764L0.744767 118.55L0.744771 118.55L9.52478 113.764ZM11.8167 117.968L20.5967 113.181L20.5967 113.181L11.8167 117.968ZM10.2597 123.372L15.1473 132.096L15.1474 132.096L10.2597 123.372ZM6.08245 125.712L10.9701 134.436L10.9701 134.436L6.08245 125.712ZM4.76195 131.498L12.9508 125.758L12.9508 125.758L4.76195 131.498ZM7.51014 135.419L15.699 129.679L15.699 129.679L7.51014 135.419ZM6.56807 140.963L12.4018 149.085L12.4018 149.085L6.56807 140.963ZM2.67908 143.756L8.51278 151.879L8.51278 151.879L2.67908 143.756ZM2.01466 149.653L-5.48012 156.274L-5.48009 156.274L2.01466 149.653ZM5.18456 153.242L12.6793 146.622L12.6793 146.622L5.18456 153.242ZM4.86922 158.857L-1.83717 151.439L-1.83719 151.439L4.86922 158.857ZM1.31744 162.068L-5.38896 154.651L-5.38897 154.651L1.31744 162.068ZM1.31744 168.003L-5.38897 175.421L-5.38896 175.421L1.31744 168.003ZM2.45984 169.036L-4.24656 176.453L-1.39047 179.036H2.45984V169.036ZM19.0894 169.036L29.0857 168.767L28.824 159.036H19.0894V169.036ZM161.036 310.982H171.036V301.247L161.304 300.985L161.036 310.982ZM161.036 323.036L151.036 323.036L151.036 323.036L161.036 323.036ZM161.036 327.611L151.036 327.612L151.036 331.462L153.618 334.318L161.036 327.611ZM162.068 328.754L169.486 322.047L169.486 322.047L162.068 328.754ZM168.003 328.754L160.585 322.047L160.585 322.047L168.003 328.754ZM171.214 325.202L178.632 331.908L178.632 331.908L171.214 325.202ZM176.829 324.887L183.449 317.392L183.449 317.392L176.829 324.887ZM180.418 328.056L173.797 335.551L173.797 335.551L180.418 328.056ZM186.315 327.392L194.437 333.226L194.437 333.226L186.315 327.392ZM189.108 323.503L180.986 317.669L180.986 317.669L189.108 323.503ZM194.653 322.561L200.392 314.372L200.392 314.372L194.653 322.561ZM198.574 325.309L192.834 333.498L192.834 333.498L198.574 325.309ZM204.359 323.989L213.083 328.876L213.083 328.876L204.359 323.989ZM206.699 319.811L197.975 314.924L197.975 314.924L206.699 319.811ZM212.104 318.254L216.89 309.474L216.89 309.474L212.104 318.254ZM216.308 320.546L211.521 329.326L211.521 329.326L216.308 320.546ZM221.909 318.586L212.692 314.706L212.692 314.706L221.909 318.586ZM223.767 314.173L214.55 310.293L214.55 310.293L223.767 314.173ZM228.963 312.021L225.189 321.282L225.189 321.282L228.963 312.021ZM233.397 313.828L237.17 304.567L237.17 304.567L233.397 313.828ZM238.743 311.253L229.15 308.429L229.15 308.429L238.743 311.253ZM240.096 306.66L249.689 309.484L249.689 309.484L240.096 306.66ZM245.018 303.939L242.305 313.564L242.305 313.564L245.018 303.939ZM249.626 305.238L252.339 295.613L252.339 295.613L249.626 305.238ZM254.651 302.081L264.5 303.813L264.5 303.813L254.651 302.081ZM255.48 297.365L265.329 299.097L265.329 299.097L255.48 297.365ZM260.067 294.111L258.449 303.979L258.449 303.979L260.067 294.111ZM264.792 294.885L263.174 304.754L263.174 304.754L264.792 294.885ZM269.432 291.186L279.413 291.804L279.413 291.804L269.432 291.186ZM269.728 286.407L259.747 285.788L259.747 285.788L269.728 286.407ZM273.922 282.659L273.418 292.646L273.418 292.646L273.922 282.659ZM278.704 282.9L278.201 292.887L278.201 292.887L278.704 282.9ZM282.9 278.704L292.887 278.201L292.887 278.201L282.9 278.704ZM282.659 273.922L292.646 273.418L292.646 273.418L282.659 273.922ZM286.407 269.728L285.788 259.747L285.788 259.747L286.407 269.728ZM291.186 269.432L291.804 279.413L291.804 279.413L291.186 269.432ZM294.885 264.792L304.754 263.174L304.754 263.174L294.885 264.792ZM294.111 260.067L303.979 258.449L303.979 258.449L294.111 260.067ZM297.365 255.48L299.097 265.329L299.097 265.329L297.365 255.48ZM302.081 254.651L303.813 264.5L303.813 264.5L302.081 254.651ZM305.238 249.626L295.613 252.339L295.613 252.339L305.238 249.626ZM303.939 245.018L313.564 242.305L313.564 242.305L303.939 245.018ZM306.66 240.096L303.836 230.502L303.836 230.503L306.66 240.096ZM311.253 238.743L314.077 248.337L314.077 248.336L311.253 238.743ZM313.828 233.397L304.567 237.17L304.567 237.17L313.828 233.397ZM312.021 228.963L321.282 225.189L321.282 225.189L312.021 228.963ZM314.173 223.767L310.293 214.55L310.293 214.55L314.173 223.767ZM318.586 221.909L314.706 212.692L314.706 212.692L318.586 221.909ZM320.546 216.308L329.326 211.521L329.326 211.521L320.546 216.308ZM318.254 212.104L309.474 216.89L309.474 216.89L318.254 212.104ZM319.811 206.699L314.924 197.975L314.924 197.975L319.811 206.699ZM323.989 204.359L328.876 213.083L328.876 213.083L323.989 204.359ZM325.309 198.574L317.12 204.313L317.12 204.313L325.309 198.574ZM322.561 194.653L330.75 188.913L330.75 188.913L322.561 194.653ZM323.503 189.108L317.669 180.986L317.669 180.986L323.503 189.108ZM327.392 186.315L333.226 194.437L333.226 194.437L327.392 186.315ZM328.056 180.418L335.551 173.797L335.551 173.797L328.056 180.418ZM324.887 176.829L317.392 183.449L317.392 183.449L324.887 176.829ZM325.202 171.214L331.908 178.632L331.908 178.632L325.202 171.214ZM328.754 168.003L322.047 160.585L322.047 160.585L328.754 168.003ZM328.754 162.068L322.047 169.486L322.047 169.486L328.754 162.068ZM325.202 158.857L331.908 151.439L331.908 151.439L325.202 158.857ZM324.887 153.242L332.381 159.862L332.381 159.862L324.887 153.242ZM328.056 149.653L335.551 156.274L335.551 156.274L328.056 149.653ZM327.392 143.756L333.226 135.634L333.226 135.634L327.392 143.756ZM323.503 140.963L317.669 149.085L317.669 149.085L323.503 140.963ZM322.561 135.419L314.372 129.679L314.372 129.679L322.561 135.419ZM325.309 131.498L333.498 137.237L333.498 137.237L325.309 131.498ZM323.989 125.712L319.101 134.436L319.101 134.436L323.989 125.712ZM319.811 123.372L314.924 132.096L314.924 132.096L319.811 123.372ZM318.254 117.968L309.474 113.181L309.474 113.181L318.254 117.968ZM320.546 113.764L329.326 118.55L329.326 118.55L320.546 113.764ZM318.586 108.162L322.466 98.9457L322.466 98.9457L318.586 108.162ZM314.173 106.304L310.293 115.521L310.293 115.521L314.173 106.304ZM312.021 101.108L321.282 104.882L321.282 104.882L312.021 101.108ZM313.828 96.6742L304.567 92.9007L304.567 92.9008L313.828 96.6742ZM311.253 91.3276L308.429 100.921L308.429 100.921L311.253 91.3276ZM306.66 89.9756L303.836 99.5686L303.836 99.5686L306.66 89.9756ZM303.939 85.0532L313.564 87.7661L313.564 87.766L303.939 85.0532ZM305.238 80.4446L295.613 77.7317L295.613 77.7318L305.238 80.4446ZM302.081 75.4199L300.349 85.2688L300.349 85.2688L302.081 75.4199ZM297.365 74.5906L299.097 64.7418L299.097 64.7418L297.365 74.5906ZM294.111 70.0038L303.979 71.622L303.979 71.622L294.111 70.0038ZM294.885 65.2788L285.017 63.6607L285.017 63.6607L294.885 65.2788ZM291.186 60.6392L290.567 70.62L290.567 70.62L291.186 60.6392ZM286.407 60.3431L287.025 50.3622L287.025 50.3622L286.407 60.3431ZM282.659 56.1495L292.646 56.6526L292.646 56.6526L282.659 56.1495ZM282.9 51.3674L292.887 51.8705L292.887 51.8704L282.9 51.3674ZM278.704 47.1713L279.207 57.1586L279.207 57.1586L278.704 47.1713ZM273.922 47.4122L274.425 57.3995L274.425 57.3995L273.922 47.4122ZM269.728 43.6645L259.747 44.2828L259.747 44.2829L269.728 43.6645ZM269.432 38.8856L279.413 38.2673L279.413 38.2672L269.432 38.8856ZM264.792 35.1856L266.41 45.0538L266.41 45.0538L264.792 35.1856ZM260.067 35.9604L258.449 26.0922L258.449 26.0922L260.067 35.9604ZM255.48 32.7059L245.632 34.4378L245.632 34.4378L255.48 32.7059ZM254.651 27.9901L264.5 26.2582L264.5 26.2581L254.651 27.9901ZM249.626 24.8329L252.339 34.4579L252.339 34.4578L249.626 24.8329ZM245.018 26.1318L247.731 35.7568L247.731 35.7568L245.018 26.1318ZM240.096 23.4113L249.689 20.5876L249.689 20.5875L240.096 23.4113ZM238.743 18.818L229.15 21.6418L229.15 21.6418L238.743 18.818ZM233.397 16.2432L237.17 25.504L237.17 25.504L233.397 16.2432ZM228.963 18.05L232.736 27.3108L232.736 27.3108L228.963 18.05ZM223.767 15.8978L232.983 12.0177L232.983 12.0176L223.767 15.8978ZM221.909 11.4847L212.692 15.3648L212.692 15.3649L221.909 11.4847ZM216.308 9.52478L211.521 0.744767L211.521 0.744771L216.308 9.52478ZM212.104 11.8167L216.89 20.5967L216.89 20.5967L212.104 11.8167ZM206.699 10.2597L215.423 5.3721L215.423 5.37209L206.699 10.2597ZM204.359 6.08245L213.083 1.19483L213.083 1.19481L204.359 6.08245ZM198.574 4.76195L192.834 -3.42693L192.834 -3.42693L198.574 4.76195ZM194.653 7.51014L188.913 -0.678741L188.913 -0.678735L194.653 7.51014ZM189.108 6.56807L180.986 12.4018L180.986 12.4018L189.108 6.56807ZM186.315 2.67908L178.193 8.51278L178.193 8.51278L186.315 2.67908ZM180.418 2.01466L187.038 9.50942L187.038 9.5094L180.418 2.01466ZM176.829 5.18456L170.209 -2.3102L170.209 -2.3102L176.829 5.18456ZM171.214 4.86922L163.796 11.5756L163.796 11.5756L171.214 4.86922ZM169.036 310.982L168.767 300.985L159.036 301.247V310.982H169.036ZM169.036 314.983H159.036V325.248L169.297 324.98L169.036 314.983ZM15.0878 161.036L5.09124 160.774L4.82261 171.036H15.0878V161.036ZM19.0894 161.036V171.036H28.824L29.0857 161.304L19.0894 161.036ZM165.036 19.0355L165.036 9.03554L165.036 9.03554L165.036 19.0355ZM169.036 19.0355H179.036V9.03555L169.036 9.03554L169.036 19.0355ZM169.036 31.0941H159.036V40.8052L168.743 41.0898L169.036 31.0941ZM298.977 161.036L288.981 161.329L289.266 171.036H298.977V161.036ZM311.036 161.036H321.036V151.036H311.036V161.036ZM161.036 302.979L160.751 312.975L171.036 313.267V302.979H161.036ZM27.0925 169.036V159.036H16.8038L17.0965 169.32L27.0925 169.036ZM161.036 298.977H171.036V289.266L161.329 288.981L161.036 298.977ZM31.0942 169.036L41.0899 168.742L40.8053 159.036H31.0942V169.036ZM27.0925 161.036L17.0965 160.751L16.8038 171.036H27.0925V161.036ZM31.0942 161.036V171.036H40.8053L41.0899 161.329L31.0942 161.036ZM161.036 27.0924H171.036V16.8037L160.751 17.0964L161.036 27.0924ZM161.036 31.0941L161.329 41.0898L171.036 40.8052V31.0941H161.036ZM169.036 298.977L168.742 288.981L159.036 289.266V298.977H169.036ZM298.977 169.036V159.036H289.266L288.981 168.742L298.977 169.036ZM302.979 169.036L312.975 169.32L313.267 159.036H302.979V169.036ZM169.036 302.979H159.036V313.267L169.32 312.975L169.036 302.979ZM211.002 265L206.819 255.917L206.819 255.917L211.002 265ZM121.813 266.219L125.746 257.024L125.746 257.024L121.813 266.219ZM118.23 252.213L126.402 257.976L126.402 257.976L118.23 252.213ZM153.85 201.705L145.678 195.942L145.678 195.942L153.85 201.705ZM164.408 197.029L164.601 187.031L164.6 187.031L164.408 197.029ZM166.852 196.985L167.411 206.969L167.411 206.969L166.852 196.985ZM177.733 201.415L185.783 195.482L185.783 195.482L177.733 201.415ZM214.241 250.943L206.191 256.877L206.191 256.877L214.241 250.943ZM126.507 164.3L129.636 154.802L129.636 154.802L126.507 164.3ZM134.106 173.275L124.442 175.842L124.442 175.842L134.106 173.275ZM68.0858 145.057L71.2143 135.559L71.2143 135.559L68.0858 145.057ZM55.7383 152.533L45.8017 151.409L45.8017 151.409L55.7383 152.533ZM84.2285 239.67L76.8841 246.457L76.8841 246.457L84.2285 239.67ZM98.6378 238.351L106.81 244.114L106.81 244.114L98.6378 238.351ZM134.237 187.873L142.409 193.637L142.409 193.637L134.237 187.873ZM135.092 176.346L144.446 172.811L144.446 172.811L135.092 176.346ZM147.363 138.354L152.893 146.686L152.893 146.686L147.363 138.354ZM142.45 57.3564L140.407 47.5673L140.407 47.5673L142.45 57.3564ZM70.4173 108.901L61.8218 103.79L61.8218 103.79L70.4173 108.901ZM75.8479 122.345L72.7194 131.843L72.7194 131.843L75.8479 122.345ZM134.82 141.769L137.949 132.271L137.949 132.271L134.82 141.769ZM145.907 139.38L151.89 147.392L151.89 147.392L145.907 139.38ZM183.234 138.71L188.928 130.49L188.928 130.49L183.234 138.71ZM184.763 139.837L190.932 131.968L190.932 131.968L184.763 139.837ZM195.867 142.474L192.904 132.923L192.904 132.923L195.867 142.474ZM255.072 124.11L252.11 114.559L252.11 114.559L255.072 124.11ZM260.747 110.781L269.442 105.842L269.442 105.842L260.747 110.781ZM188.449 57.5326L186.33 67.3056L186.33 67.3056L188.449 57.5326ZM203.503 165.233L206.466 174.784L206.466 174.784L203.503 165.233ZM195.764 173.996L186.163 171.201L186.163 171.201L195.764 173.996ZM262.338 146.985L265.301 156.536L265.301 156.536L262.338 146.985ZM274.556 154.696L284.513 153.768L284.513 153.768L274.556 154.696ZM247.85 237.438L255.375 244.023L255.375 244.023L247.85 237.438ZM233.382 236.462L241.431 230.528L241.431 230.528L233.382 236.462ZM196.566 186.516L188.517 192.449L188.517 192.449L196.566 186.516ZM195.382 175.218L204.863 178.398L204.863 178.398L195.382 175.218ZM169.486 8.02382C167.104 10.6587 162.967 10.6587 160.585 8.02385L175.421 -5.38897C169.862 -11.537 160.209 -11.537 154.651 -5.38893L169.486 8.02382ZM166.275 11.5756L169.486 8.02385L154.651 -5.38896L151.439 -1.83719L166.275 11.5756ZM146.622 12.6793C152.369 17.7564 161.132 17.2643 166.275 11.5756L151.439 -1.83717C153.644 -4.2752 157.399 -4.48608 159.862 -2.3102L146.622 12.6793ZM143.033 9.50941L146.622 12.6793L159.862 -2.31019L156.274 -5.48009L143.033 9.50941ZM151.879 8.51278C149.806 11.3978 145.695 11.861 143.033 9.50943L156.274 -5.48012C150.062 -10.9671 140.47 -9.88639 135.634 -3.15462L151.879 8.51278ZM149.085 12.4018L151.879 8.51277L135.634 -3.15462L132.841 0.734369L149.085 12.4018ZM129.679 15.699C135.959 20.1006 144.611 18.6305 149.085 12.4017L132.841 0.73439C134.758 -1.9351 138.467 -2.56515 141.158 -0.678731L129.679 15.699ZM125.758 12.9508L129.679 15.699L141.158 -0.678739L137.237 -3.42693L125.758 12.9508ZM134.436 10.9701C132.7 14.069 128.667 14.9896 125.758 12.9508L137.237 -3.42693C130.45 -8.18398 121.039 -6.03595 116.988 1.19484L134.436 10.9701ZM132.096 15.1474L134.436 10.9701L116.988 1.19482L114.648 5.37208L132.096 15.1474ZM113.181 20.5967C119.914 24.2675 128.348 21.8379 132.096 15.1473L114.648 5.3721C116.254 2.50473 119.868 1.46346 122.754 3.03667L113.181 20.5967ZM108.977 18.3048L113.181 20.5967L122.754 3.03666L118.55 0.744766L108.977 18.3048ZM117.379 15.3648C116.001 18.6386 112.096 20.005 108.977 18.3048L118.55 0.744773C111.273 -3.22247 102.162 -0.034205 98.9457 7.60465L117.379 15.3648ZM115.521 19.7779L117.379 15.3649L98.9457 7.60464L97.0879 12.0177L115.521 19.7779ZM97.335 27.3108C104.437 30.2046 112.545 26.846 115.521 19.7779L97.0878 12.0177C98.3631 8.98848 101.838 7.54909 104.882 8.7893L97.335 27.3108ZM92.9008 25.504L97.335 27.3108L104.882 8.7893L100.448 6.98251L92.9008 25.504ZM100.921 21.6418C99.9176 25.0493 96.1903 26.8443 92.9008 25.504L100.448 6.98251C92.7722 3.855 84.075 8.04333 81.7346 15.9943L100.921 21.6418ZM99.5686 26.2351L100.921 21.6418L81.7346 15.9942L80.3825 20.5875L99.5686 26.2351ZM82.3404 35.7568C89.7217 37.8372 97.4031 33.592 99.5686 26.2351L80.3825 20.5876C81.3106 17.4346 84.6026 15.6152 87.766 16.5068L82.3404 35.7568ZM77.7318 34.4579L82.3404 35.7568L87.766 16.5068L83.1574 15.2079L77.7318 34.4579ZM85.2688 29.722C84.6536 33.2204 81.1507 35.4215 77.7318 34.4579L83.1574 15.2079C75.18 12.9594 67.0065 18.0952 65.571 26.2581L85.2688 29.722ZM84.4395 34.4378L85.2688 29.722L65.571 26.2581L64.7418 30.9739L84.4395 34.4378ZM68.3857 45.8286C75.9536 47.0695 83.1113 41.9909 84.4395 34.4378L64.7418 30.9739C65.311 27.7369 68.3786 25.5603 71.622 26.0922L68.3857 45.8286ZM63.6607 45.0538L68.3857 45.8286L71.622 26.0922L66.8969 25.3174L63.6607 45.0538ZM70.62 39.5039C70.4004 43.0492 67.1659 45.6286 63.6607 45.0538L66.8969 25.3174C58.7179 23.9763 51.1708 29.9949 50.6583 38.2672L70.62 39.5039ZM70.324 44.2829L70.62 39.5039L50.6583 38.2672L50.3622 43.0462L70.324 44.2829ZM55.6465 57.3995C63.3057 57.7853 69.8498 51.9372 70.324 44.2829L50.3622 43.0462C50.5655 39.7658 53.3701 37.2595 56.6526 37.4248L55.6465 57.3995ZM50.8644 57.1586L55.6465 57.3995L56.6526 37.4248L51.8705 37.1839L50.8644 57.1586ZM57.1586 50.8644C57.3373 54.412 54.412 57.3373 50.8644 57.1586L51.8705 37.1839C43.5928 36.767 36.767 43.5928 37.1839 51.8705L57.1586 50.8644ZM57.3995 55.6465L57.1586 50.8644L37.1839 51.8705L37.4248 56.6526L57.3995 55.6465ZM44.2829 70.324C51.9371 69.8498 57.7853 63.3057 57.3995 55.6465L37.4248 56.6526C37.2595 53.3701 39.7658 50.5655 43.0462 50.3622L44.2829 70.324ZM39.5039 70.62L44.2829 70.324L43.0462 50.3622L38.2672 50.6583L39.5039 70.62ZM45.0538 63.6607C45.6286 67.1659 43.0492 70.4004 39.5039 70.62L38.2672 50.6583C29.9949 51.1708 23.9763 58.7179 25.3174 66.8969L45.0538 63.6607ZM45.8286 68.3857L45.0538 63.6607L25.3174 66.8969L26.0922 71.622L45.8286 68.3857ZM34.4378 84.4395C41.9908 83.1113 47.0695 75.9536 45.8286 68.3857L26.0922 71.622C25.5603 68.3786 27.7369 65.311 30.9739 64.7418L34.4378 84.4395ZM29.722 85.2688L34.4378 84.4395L30.9739 64.7418L26.2581 65.571L29.722 85.2688ZM34.4579 77.7318C35.4215 81.1506 33.2204 84.6536 29.722 85.2688L26.2581 65.571C18.0952 67.0065 12.9594 75.1801 15.2079 83.1574L34.4579 77.7318ZM35.7568 82.3404L34.4579 77.7318L15.2079 83.1574L16.5068 87.766L35.7568 82.3404ZM26.2351 99.5686C33.5919 97.4031 37.8372 89.7217 35.7568 82.3404L16.5068 87.766C15.6152 84.6026 17.4346 81.3106 20.5876 80.3825L26.2351 99.5686ZM21.6418 100.921L26.2351 99.5686L20.5875 80.3825L15.9942 81.7346L21.6418 100.921ZM25.504 92.9008C26.8443 96.1903 25.0493 99.9176 21.6418 100.921L15.9942 81.7346C8.04333 84.075 3.855 92.7722 6.98251 100.448L25.504 92.9008ZM27.3108 97.335L25.504 92.9008L6.98251 100.448L8.78929 104.882L27.3108 97.335ZM19.7779 115.521C26.846 112.545 30.2046 104.437 27.3107 97.335L8.7893 104.882C7.54907 101.838 8.9885 98.3631 12.0177 97.0879L19.7779 115.521ZM15.3648 117.379L19.7779 115.521L12.0177 97.0879L7.60465 98.9457L15.3648 117.379ZM18.3048 108.977C20.005 112.096 18.6387 116.001 15.3648 117.379L7.60465 98.9457C-0.0342454 102.162 -3.22244 111.273 0.744767 118.55L18.3048 108.977ZM20.5967 113.181L18.3048 108.977L0.744771 118.55L3.03666 122.754L20.5967 113.181ZM15.1474 132.096C21.8378 128.348 24.2675 119.914 20.5967 113.181L3.03666 122.754C1.46345 119.868 2.50475 116.254 5.37207 114.648L15.1474 132.096ZM10.9701 134.436L15.1473 132.096L5.37209 114.648L1.19483 116.988L10.9701 134.436ZM12.9508 125.758C14.9896 128.667 14.069 132.7 10.9701 134.436L1.19483 116.988C-6.03593 121.039 -8.18401 130.45 -3.42691 137.237L12.9508 125.758ZM15.699 129.679L12.9508 125.758L-3.42693 137.237L-0.678741 141.158L15.699 129.679ZM12.4018 149.085C18.6305 144.611 20.1006 135.959 15.699 129.679L-0.678758 141.158C-2.56513 138.467 -1.93511 134.758 0.734348 132.841L12.4018 149.085ZM8.51278 151.879L12.4018 149.085L0.734372 132.841L-3.15461 135.634L8.51278 151.879ZM9.50943 143.033C11.861 145.695 11.3978 149.806 8.51278 151.879L-3.15461 135.634C-9.88636 140.469 -10.9671 150.062 -5.48012 156.274L9.50943 143.033ZM12.6793 146.622L9.50941 143.033L-5.48009 156.274L-2.31019 159.862L12.6793 146.622ZM11.5756 166.275C17.2643 161.132 17.7564 152.369 12.6793 146.622L-2.3102 159.862C-4.48609 157.399 -4.2752 153.644 -1.83717 151.439L11.5756 166.275ZM8.02384 169.486L11.5756 166.275L-1.83719 151.439L-5.38896 154.651L8.02384 169.486ZM8.02385 160.585C10.6587 162.967 10.6587 167.104 8.02385 169.486L-5.38897 154.651C-11.537 160.209 -11.537 169.862 -5.38897 175.421L8.02385 160.585ZM9.16625 161.618L8.02384 160.585L-5.38896 175.421L-4.24656 176.453L9.16625 161.618ZM7.03552 159.036H2.45984V179.036H7.03552V159.036ZM11.0355 159.036H7.03552V179.036H11.0355V159.036ZM14.0752 159.036H11.0355V179.036H14.0752V159.036ZM19.0894 159.036H14.0752V179.036H19.0894V159.036ZM161.304 300.985C89.1612 299.045 31.0263 240.91 29.0857 168.767L9.09298 169.304C11.3193 252.072 77.9994 318.752 160.767 320.978L161.304 300.985ZM171.036 319.036V310.982H151.036V319.036H171.036ZM171.036 323.036V319.036H151.036V323.036H171.036ZM171.036 327.611L171.036 323.035L151.036 323.036L151.036 327.612L171.036 327.611ZM169.486 322.047L168.453 320.905L153.618 334.318L154.651 335.46L169.486 322.047ZM160.585 322.047C162.967 319.412 167.104 319.412 169.486 322.047L154.651 335.46C160.209 341.608 169.862 341.608 175.421 335.46L160.585 322.047ZM163.796 318.495L160.585 322.047L175.42 335.46L178.632 331.908L163.796 318.495ZM183.449 317.392C177.702 312.315 168.939 312.807 163.796 318.496L178.632 331.908C176.428 334.346 172.672 334.557 170.209 332.381L183.449 317.392ZM187.038 320.562L183.449 317.392L170.209 332.381L173.797 335.551L187.038 320.562ZM178.193 321.558C180.265 318.673 184.376 318.21 187.038 320.562L173.797 335.551C180.009 341.038 189.602 339.957 194.437 333.226L178.193 321.558ZM180.986 317.669L178.193 321.558L194.437 333.226L197.23 329.337L180.986 317.669ZM200.392 314.372C194.112 309.97 185.46 311.441 180.986 317.669L197.23 329.337C195.313 332.006 191.604 332.636 188.913 330.75L200.392 314.372ZM204.313 317.12L200.392 314.372L188.913 330.75L192.834 333.498L204.313 317.12ZM195.635 319.101C197.371 316.002 201.404 315.082 204.313 317.12L192.834 333.498C199.621 338.255 209.032 336.107 213.083 328.876L195.635 319.101ZM197.975 314.924L195.635 319.101L213.083 328.876L215.423 324.699L197.975 314.924ZM216.89 309.474C210.157 305.804 201.723 308.233 197.975 314.924L215.423 324.699C213.817 327.566 210.203 328.608 207.317 327.034L216.89 309.474ZM221.094 311.766L216.89 309.474L207.317 327.034L211.521 329.326L221.094 311.766ZM212.692 314.706C214.071 311.432 217.975 310.066 221.094 311.766L211.521 329.326C218.798 333.294 227.909 330.105 231.125 322.466L212.692 314.706ZM214.55 310.293L212.692 314.706L231.125 322.466L232.983 318.053L214.55 310.293ZM232.736 302.76C225.634 299.866 217.526 303.225 214.55 310.293L232.983 318.053C231.708 321.083 228.233 322.522 225.189 321.282L232.736 302.76ZM237.17 304.567L232.736 302.76L225.189 321.282L229.623 323.089L237.17 304.567ZM229.15 308.429C230.153 305.022 233.881 303.227 237.17 304.567L229.623 323.089C237.299 326.216 245.996 322.028 248.337 314.077L229.15 308.429ZM230.503 303.836L229.15 308.429L248.336 314.077L249.689 309.484L230.503 303.836ZM247.731 294.314C240.349 292.234 232.668 296.479 230.503 303.836L249.689 309.484C248.76 312.637 245.468 314.456 242.305 313.564L247.731 294.314ZM252.339 295.613L247.731 294.314L242.305 313.564L246.914 314.863L252.339 295.613ZM244.802 300.349C245.418 296.851 248.92 294.65 252.339 295.613L246.914 314.863C254.891 317.112 263.065 311.976 264.5 303.813L244.802 300.349ZM245.632 295.633L244.802 300.349L264.5 303.813L265.329 299.097L245.632 295.633ZM261.685 284.243C254.118 283.002 246.96 288.08 245.632 295.633L265.329 299.097C264.76 302.334 261.692 304.511 258.449 303.979L261.685 284.243ZM266.41 285.017L261.685 284.243L258.449 303.979L263.174 304.754L266.41 285.017ZM259.451 290.567C259.671 287.022 262.905 284.443 266.41 285.017L263.174 304.754C271.353 306.095 278.9 300.076 279.413 291.804L259.451 290.567ZM259.747 285.788L259.451 290.567L279.413 291.804L279.709 287.025L259.747 285.788ZM274.425 272.672C266.765 272.286 260.221 278.134 259.747 285.788L279.709 287.025C279.506 290.305 276.701 292.812 273.418 292.646L274.425 272.672ZM279.207 272.912L274.425 272.672L273.418 292.646L278.201 292.887L279.207 272.912ZM272.912 279.207C272.734 275.659 275.659 272.734 279.207 272.912L278.201 292.887C286.478 293.304 293.304 286.478 292.887 278.201L272.912 279.207ZM272.672 274.425L272.912 279.207L292.887 278.201L292.646 273.418L272.672 274.425ZM285.788 259.747C278.134 260.221 272.286 266.765 272.672 274.425L292.646 273.418C292.812 276.701 290.305 279.506 287.025 279.709L285.788 259.747ZM290.567 259.451L285.788 259.747L287.025 279.709L291.804 279.413L290.567 259.451ZM285.017 266.41C284.443 262.905 287.022 259.671 290.567 259.451L291.804 279.413C300.076 278.9 306.095 271.353 304.754 263.174L285.017 266.41ZM284.243 261.685L285.017 266.41L304.754 263.174L303.979 258.449L284.243 261.685ZM295.633 245.632C288.08 246.96 283.002 254.118 284.243 261.685L303.979 258.449C304.511 261.692 302.334 264.76 299.097 265.329L295.633 245.632ZM300.349 244.802L295.633 245.632L299.097 265.329L303.813 264.5L300.349 244.802ZM295.613 252.339C294.65 248.92 296.851 245.418 300.349 244.802L303.813 264.5C311.976 263.065 317.112 254.891 314.863 246.914L295.613 252.339ZM294.314 247.731L295.613 252.339L314.863 246.914L313.564 242.305L294.314 247.731ZM303.836 230.503C296.479 232.668 292.234 240.349 294.314 247.731L313.564 242.305C314.456 245.468 312.637 248.76 309.484 249.689L303.836 230.503ZM308.429 229.15L303.836 230.502L309.484 249.689L314.077 248.337L308.429 229.15ZM304.567 237.17C303.227 233.881 305.022 230.153 308.429 229.15L314.077 248.336C322.028 245.996 326.216 237.299 323.089 229.623L304.567 237.17ZM302.76 232.736L304.567 237.17L323.089 229.623L321.282 225.189L302.76 232.736ZM310.293 214.55C303.225 217.526 299.866 225.634 302.76 232.736L321.282 225.189C322.522 228.233 321.083 231.708 318.053 232.983L310.293 214.55ZM314.706 212.692L310.293 214.55L318.053 232.983L322.466 231.125L314.706 212.692ZM311.766 221.094C310.066 217.975 311.432 214.071 314.706 212.692L322.466 231.125C330.105 227.909 333.294 218.798 329.326 211.521L311.766 221.094ZM309.474 216.89L311.766 221.094L329.326 211.521L327.034 207.317L309.474 216.89ZM314.924 197.975C308.233 201.723 305.804 210.157 309.474 216.89L327.034 207.317C328.608 210.203 327.566 213.817 324.699 215.423L314.924 197.975ZM319.101 195.635L314.924 197.975L324.699 215.423L328.876 213.083L319.101 195.635ZM317.12 204.313C315.082 201.404 316.002 197.371 319.101 195.635L328.876 213.083C336.107 209.032 338.255 199.621 333.498 192.834L317.12 204.313ZM314.372 200.392L317.12 204.313L333.498 192.834L330.75 188.913L314.372 200.392ZM317.669 180.986C311.441 185.46 309.97 194.112 314.372 200.392L330.75 188.913C332.636 191.604 332.006 195.313 329.337 197.23L317.669 180.986ZM321.558 178.193L317.669 180.986L329.337 197.23L333.226 194.437L321.558 178.193ZM320.562 187.038C318.21 184.376 318.673 180.265 321.558 178.193L333.226 194.437C339.957 189.602 341.038 180.009 335.551 173.797L320.562 187.038ZM317.392 183.449L320.562 187.038L335.551 173.797L332.381 170.209L317.392 183.449ZM318.496 163.796C312.807 168.939 312.315 177.702 317.392 183.449L332.381 170.209C334.557 172.672 334.346 176.428 331.908 178.632L318.496 163.796ZM322.047 160.585L318.495 163.796L331.908 178.632L335.46 175.42L322.047 160.585ZM322.047 169.486C319.412 167.104 319.412 162.967 322.047 160.585L335.46 175.421C341.608 169.862 341.608 160.209 335.46 154.651L322.047 169.486ZM318.495 166.275L322.047 169.486L335.46 154.651L331.908 151.439L318.495 166.275ZM317.392 146.622C312.315 152.369 312.807 161.132 318.496 166.275L331.908 151.439C334.346 153.644 334.557 157.399 332.381 159.862L317.392 146.622ZM320.562 143.033L317.392 146.622L332.381 159.862L335.551 156.274L320.562 143.033ZM321.558 151.879C318.673 149.806 318.21 145.695 320.562 143.033L335.551 156.274C341.038 150.062 339.957 140.47 333.226 135.634L321.558 151.879ZM317.669 149.085L321.558 151.879L333.226 135.634L329.337 132.841L317.669 149.085ZM314.372 129.679C309.97 135.959 311.441 144.611 317.669 149.085L329.337 132.841C332.006 134.758 332.636 138.467 330.75 141.158L314.372 129.679ZM317.12 125.758L314.372 129.679L330.75 141.158L333.498 137.237L317.12 125.758ZM319.101 134.436C316.002 132.7 315.082 128.667 317.12 125.758L333.498 137.237C338.255 130.45 336.107 121.039 328.876 116.988L319.101 134.436ZM314.924 132.096L319.101 134.436L328.876 116.988L324.699 114.648L314.924 132.096ZM309.474 113.181C305.804 119.914 308.233 128.348 314.924 132.096L324.699 114.648C327.566 116.254 328.608 119.868 327.034 122.754L309.474 113.181ZM311.766 108.977L309.474 113.181L327.034 122.754L329.326 118.55L311.766 108.977ZM314.706 117.379C311.432 116.001 310.066 112.096 311.766 108.977L329.326 118.55C333.294 111.273 330.105 102.162 322.466 98.9457L314.706 117.379ZM310.293 115.521L314.706 117.379L322.466 98.9457L318.053 97.0878L310.293 115.521ZM302.76 97.335C299.866 104.437 303.225 112.545 310.293 115.521L318.053 97.0879C321.083 98.3631 322.522 101.838 321.282 104.882L302.76 97.335ZM304.567 92.9008L302.76 97.335L321.282 104.882L323.089 100.448L304.567 92.9008ZM308.429 100.921C305.022 99.9177 303.227 96.1903 304.567 92.9007L323.089 100.448C326.216 92.7721 322.028 84.075 314.077 81.7346L308.429 100.921ZM303.836 99.5686L308.429 100.921L314.077 81.7346L309.484 80.3825L303.836 99.5686ZM294.314 82.3404C292.234 89.7217 296.479 97.403 303.836 99.5686L309.484 80.3825C312.637 81.3106 314.456 84.6027 313.564 87.7661L294.314 82.3404ZM295.613 77.7318L294.314 82.3404L313.564 87.766L314.863 83.1575L295.613 77.7318ZM300.349 85.2688C296.851 84.6536 294.65 81.1507 295.613 77.7317L314.863 83.1575C317.112 75.18 311.976 67.0065 303.813 65.571L300.349 85.2688ZM295.633 84.4395L300.349 85.2688L303.813 65.571L299.097 64.7418L295.633 84.4395ZM284.243 68.3857C283.002 75.9536 288.08 83.1113 295.633 84.4395L299.097 64.7418C302.334 65.311 304.511 68.3786 303.979 71.622L284.243 68.3857ZM285.017 63.6607L284.243 68.3857L303.979 71.622L304.754 66.8969L285.017 63.6607ZM290.567 70.62C287.022 70.4004 284.443 67.1659 285.017 63.6607L304.754 66.8969C306.095 58.7179 300.076 51.1708 291.804 50.6583L290.567 70.62ZM285.788 70.324L290.567 70.62L291.804 50.6583L287.025 50.3622L285.788 70.324ZM272.672 55.6465C272.286 63.3057 278.134 69.8498 285.788 70.324L287.025 50.3622C290.305 50.5655 292.812 53.3701 292.646 56.6526L272.672 55.6465ZM272.912 50.8644L272.672 55.6465L292.646 56.6526L292.887 51.8705L272.912 50.8644ZM279.207 57.1586C275.659 57.3373 272.734 54.412 272.912 50.8645L292.887 51.8704C293.304 43.5928 286.478 36.767 278.201 37.1839L279.207 57.1586ZM274.425 57.3995L279.207 57.1586L278.201 37.1839L273.418 37.4248L274.425 57.3995ZM259.747 44.2829C260.221 51.9371 266.765 57.7853 274.425 57.3995L273.418 37.4248C276.701 37.2595 279.506 39.7659 279.709 43.0462L259.747 44.2829ZM259.451 39.5039L259.747 44.2828L279.709 43.0462L279.413 38.2673L259.451 39.5039ZM266.41 45.0538C262.905 45.6286 259.671 43.0491 259.451 39.5039L279.413 38.2672C278.9 29.9949 271.353 23.9762 263.174 25.3174L266.41 45.0538ZM261.685 45.8286L266.41 45.0538L263.174 25.3174L258.449 26.0922L261.685 45.8286ZM245.632 34.4378C246.96 41.9909 254.118 47.0695 261.685 45.8286L258.449 26.0922C261.692 25.5603 264.76 27.7369 265.329 30.9739L245.632 34.4378ZM244.802 29.722L245.632 34.4378L265.329 30.974L264.5 26.2582L244.802 29.722ZM252.339 34.4578C248.92 35.4215 245.418 33.2204 244.802 29.722L264.5 26.2581C263.065 18.0952 254.891 12.9594 246.914 15.2079L252.339 34.4578ZM247.731 35.7568L252.339 34.4579L246.914 15.2079L242.305 16.5068L247.731 35.7568ZM230.503 26.235C232.668 33.592 240.349 37.8372 247.731 35.7568L242.305 16.5068C245.468 15.6152 248.761 17.4346 249.689 20.5876L230.503 26.235ZM229.15 21.6418L230.503 26.2351L249.689 20.5875L248.336 15.9942L229.15 21.6418ZM237.17 25.504C233.881 26.8443 230.153 25.0493 229.15 21.6418L248.337 15.9942C245.996 8.04332 237.299 3.85499 229.623 6.98251L237.17 25.504ZM232.736 27.3108L237.17 25.504L229.623 6.98251L225.189 8.7893L232.736 27.3108ZM214.55 19.7779C217.526 26.846 225.634 30.2046 232.736 27.3108L225.189 8.7893C228.233 7.54908 231.708 8.98847 232.983 12.0177L214.55 19.7779ZM212.692 15.3649L214.55 19.7779L232.983 12.0176L231.125 7.60462L212.692 15.3649ZM221.094 18.3048C217.975 20.005 214.071 18.6387 212.692 15.3648L231.125 7.60467C227.909 -0.0342682 218.798 -3.22243 211.521 0.744767L221.094 18.3048ZM216.89 20.5967L221.094 18.3048L211.521 0.744771L207.317 3.03666L216.89 20.5967ZM197.975 15.1473C201.723 21.8379 210.157 24.2675 216.89 20.5967L207.317 3.03666C210.203 1.46346 213.817 2.50473 215.423 5.3721L197.975 15.1473ZM195.635 10.9701L197.975 15.1473L215.423 5.37209L213.083 1.19483L195.635 10.9701ZM204.313 12.9508C201.404 14.9896 197.371 14.069 195.635 10.9701L213.083 1.19481C209.032 -6.03593 199.621 -8.18399 192.834 -3.42693L204.313 12.9508ZM200.392 15.699L204.313 12.9508L192.834 -3.42693L188.913 -0.678741L200.392 15.699ZM180.986 12.4018C185.46 18.6305 194.112 20.1006 200.392 15.699L188.913 -0.678735C191.604 -2.56515 195.313 -1.93509 197.23 0.734348L180.986 12.4018ZM178.193 8.51278L180.986 12.4018L197.23 0.734372L194.437 -3.15461L178.193 8.51278ZM187.038 9.5094C184.376 11.861 180.265 11.3978 178.193 8.51278L194.437 -3.15461C189.602 -9.88634 180.009 -10.9672 173.797 -5.48009L187.038 9.5094ZM183.449 12.6793L187.038 9.50942L173.797 -5.48011L170.209 -2.3102L183.449 12.6793ZM163.796 11.5756C168.939 17.2643 177.702 17.7564 183.449 12.6793L170.209 -2.3102C172.672 -4.48611 176.427 -4.27517 178.632 -1.83721L163.796 11.5756ZM160.585 8.02382L163.796 11.5756L178.632 -1.83717L175.421 -5.38895L160.585 8.02382ZM159.036 310.982V314.983H179.036V310.982H159.036ZM169.297 324.98C255.696 322.718 325.036 251.976 325.036 165.036H305.036C305.036 241.106 244.363 303.008 168.774 304.987L169.297 324.98ZM325.036 165.036C325.036 76.67 253.401 5.03552 165.036 5.03552V25.0355C242.355 25.0355 305.036 87.7157 305.036 165.036H325.036ZM165.036 5.03552C78.0951 5.03552 7.35303 74.3754 5.09124 160.774L25.0844 161.297C27.0632 85.7083 88.9655 25.0355 165.036 25.0355V5.03552ZM15.0878 171.036H19.0894V151.036H15.0878V171.036ZM29.0857 161.304C31.0596 87.9216 91.1725 29.0355 165.036 29.0355L165.036 9.03554C80.3069 9.03553 11.3574 76.5809 9.09298 160.767L29.0857 161.304ZM165.036 29.0355L169.036 29.0355L169.036 9.03554L165.036 9.03554L165.036 29.0355ZM159.036 19.0355V23.0355H179.036V19.0355H159.036ZM159.036 23.0355V31.0941H179.036V23.0355H159.036ZM168.743 41.0898C234.277 43.011 287.06 95.7943 288.981 161.329L308.973 160.743C306.741 84.6222 245.449 23.33 169.329 21.0984L168.743 41.0898ZM298.977 171.036H307.036V151.036H298.977V171.036ZM307.036 171.036H311.036V151.036H307.036V171.036ZM301.036 161.036V165.036H321.036V161.036H301.036ZM301.036 165.036C301.036 238.899 242.149 299.012 168.767 300.985L169.304 320.978C253.49 318.714 321.036 249.764 321.036 165.036H301.036ZM161.32 292.983C93.5832 291.055 39.0165 236.488 37.0884 168.751L17.0965 169.32C19.3263 247.656 82.4147 310.745 160.751 312.975L161.32 292.983ZM171.036 302.979V298.977H151.036V302.979H171.036ZM21.0985 169.329C23.3301 245.449 84.6222 306.741 160.742 308.973L161.329 288.981C95.7943 287.06 43.0111 234.277 41.0899 168.742L21.0985 169.329ZM31.0942 159.036H27.0925V179.036H31.0942V159.036ZM27.0925 171.036H31.0942V151.036H27.0925V171.036ZM37.0884 161.32C39.0165 93.5831 93.5832 39.0164 161.32 37.0883L160.751 17.0964C82.4147 19.3262 19.3263 82.4146 17.0965 160.751L37.0884 161.32ZM151.036 27.0924V31.0941H171.036V27.0924H151.036ZM160.743 21.0984C84.6223 23.3299 23.3301 84.6221 21.0985 160.742L41.0899 161.329C43.0111 95.7943 95.7944 43.011 161.329 41.0898L160.743 21.0984ZM169.329 308.973C245.449 306.741 306.741 245.449 308.973 169.329L288.981 168.742C287.06 234.277 234.277 287.06 168.742 288.981L169.329 308.973ZM298.977 179.036H302.979V159.036H298.977V179.036ZM292.983 168.751C291.055 236.488 236.488 291.055 168.751 292.983L169.32 312.975C247.656 310.745 310.745 247.656 312.975 169.32L292.983 168.751ZM159.036 298.977V302.979H179.036V298.977H159.036ZM165.036 285.036C182.918 285.036 199.913 281.117 215.185 274.083L206.819 255.917C194.117 261.768 179.972 265.036 165.036 265.036V285.036ZM117.881 275.413C132.369 281.61 148.315 285.036 165.036 285.036V265.036C151.068 265.036 137.794 262.178 125.746 257.024L117.881 275.413ZM110.058 246.449C103.391 255.902 105.893 270.286 117.881 275.413L125.746 257.024C125.86 257.073 126.03 257.186 126.177 257.363C126.311 257.526 126.37 257.676 126.394 257.77C126.436 257.943 126.38 258.008 126.402 257.976L110.058 246.449ZM145.678 195.942L110.058 246.449L126.402 257.976L162.022 207.468L145.678 195.942ZM164.6 187.031C158.423 186.912 150.545 189.041 145.678 195.942L162.022 207.468C161.953 207.567 161.959 207.474 162.317 207.325C162.711 207.162 163.366 207.011 164.215 207.028L164.6 187.031ZM165.036 187.036C164.89 187.036 164.745 187.034 164.601 187.031L164.215 207.028C164.488 207.033 164.762 207.036 165.036 207.036V187.036ZM166.294 187C165.878 187.024 165.459 187.036 165.036 187.036V207.036C165.832 207.036 166.624 207.013 167.411 206.969L166.294 187ZM185.783 195.482C180.674 188.551 172.558 186.65 166.294 187L167.411 206.969C168.282 206.92 168.963 207.053 169.375 207.209C169.749 207.351 169.757 207.448 169.684 207.348L185.783 195.482ZM222.29 245.01L185.783 195.482L169.684 207.348L206.191 256.877L222.29 245.01ZM215.185 274.083C226.976 268.653 229.129 254.288 222.29 245.01L206.191 256.877C206.214 256.908 206.157 256.845 206.195 256.673C206.216 256.579 206.271 256.43 206.4 256.265C206.54 256.086 206.705 255.969 206.819 255.917L215.185 274.083ZM123.379 173.798C123.259 173.758 123.352 173.734 123.602 174.044C123.878 174.388 124.217 174.995 124.442 175.842L143.771 170.707C142.16 164.642 137.831 157.501 129.636 154.802L123.379 173.798ZM64.9573 154.555L123.379 173.798L129.636 154.802L71.2143 135.559L64.9573 154.555ZM65.6749 153.657C65.661 153.781 65.6027 153.974 65.4763 154.164C65.3598 154.339 65.2345 154.438 65.1514 154.487C64.9991 154.578 64.9209 154.543 64.9574 154.555L71.2143 135.559C60.253 131.948 47.2627 138.495 45.8017 151.409L65.6749 153.657ZM65.0356 165.036C65.0356 161.185 65.2529 157.388 65.6749 153.657L45.8017 151.409C45.2954 155.885 45.0356 160.432 45.0356 165.036H65.0356ZM91.5729 232.883C75.0922 215.048 65.0356 191.228 65.0356 165.036H45.0356C45.0356 196.454 57.1234 225.072 76.8841 246.457L91.5729 232.883ZM90.4657 232.587C90.4437 232.619 90.4861 232.544 90.6615 232.526C90.7572 232.517 90.9167 232.522 91.1139 232.594C91.3281 232.672 91.4895 232.793 91.5729 232.883L76.8841 246.457C85.733 256.033 100.134 253.58 106.81 244.114L90.4657 232.587ZM126.065 182.11L90.4657 232.587L106.81 244.114L142.409 193.637L126.065 182.11ZM125.738 179.881C126.041 180.685 126.121 181.359 126.099 181.787C126.079 182.175 125.994 182.211 126.065 182.11L142.409 193.637C147.285 186.722 146.626 178.578 144.446 172.811L125.738 179.881ZM124.442 175.842C124.807 177.218 125.24 178.565 125.738 179.881L144.446 172.811C144.187 172.125 143.961 171.423 143.771 170.707L124.442 175.842ZM143.418 128.375C143.418 128.252 143.468 128.333 143.255 128.666C143.019 129.034 142.556 129.542 141.834 130.022L152.893 146.686C158.083 143.242 163.418 136.924 163.418 128.375H143.418ZM143.418 66.7464V128.375H163.418V66.7464H143.418ZM144.493 67.1456C144.371 67.171 144.169 67.1761 143.949 67.1154C143.747 67.0595 143.614 66.9717 143.542 66.9086C143.409 66.793 143.418 66.7086 143.418 66.7464H163.418C163.418 55.2047 153.132 44.9119 140.407 47.5673L144.493 67.1456ZM79.0128 114.011C93.1033 90.312 116.696 72.9464 144.493 67.1455L140.407 47.5673C106.989 54.5411 78.7059 75.3924 61.8218 103.79L79.0128 114.011ZM78.9764 112.847C78.94 112.835 79.0256 112.855 79.0944 113.021C79.1319 113.111 79.1733 113.268 79.161 113.481C79.1477 113.713 79.0761 113.905 79.0128 114.011L61.8218 103.79C55.1237 115.056 61.6773 128.206 72.7194 131.843L78.9764 112.847ZM137.949 132.271L78.9764 112.847L72.7194 131.843L131.692 151.267L137.949 132.271ZM139.923 131.368C139.257 131.865 138.656 132.119 138.255 132.215C137.892 132.302 137.834 132.234 137.949 132.271L131.692 151.267C139.559 153.859 147.025 151.026 151.89 147.392L139.923 131.368ZM141.834 130.022C141.184 130.453 140.547 130.902 139.923 131.368L151.89 147.392C152.218 147.148 152.552 146.912 152.893 146.686L141.834 130.022ZM188.928 130.49C188.234 130.009 187.794 129.51 187.572 129.153C187.37 128.83 187.418 128.752 187.418 128.873H167.418C167.418 137.224 172.523 143.456 177.54 146.931L188.928 130.49ZM190.932 131.968C190.279 131.456 189.611 130.963 188.928 130.49L177.54 146.931C177.899 147.18 178.25 147.438 178.593 147.707L190.932 131.968ZM192.904 132.923C193.02 132.887 192.96 132.955 192.595 132.859C192.193 132.754 191.591 132.484 190.932 131.968L178.593 147.707C183.401 151.477 190.862 154.496 198.829 152.025L192.904 132.923ZM252.11 114.559L192.904 132.923L198.829 152.025L258.035 133.662L252.11 114.559ZM252.052 115.72C251.991 115.613 251.923 115.419 251.914 115.188C251.906 114.976 251.95 114.82 251.989 114.73C252.061 114.566 252.147 114.548 252.11 114.559L258.035 133.662C269.123 130.223 275.906 117.22 269.442 105.842L252.052 115.72ZM186.33 67.3056C214.464 73.4043 238.217 91.3669 252.052 115.72L269.442 105.842C252.862 76.656 224.388 55.091 190.568 47.7595L186.33 67.3056ZM187.418 66.9074C187.418 66.8691 187.426 66.955 187.292 67.0714C187.218 67.135 187.083 67.2232 186.878 67.2786C186.656 67.3388 186.452 67.3319 186.33 67.3056L190.568 47.7595C177.798 44.9913 167.418 55.3149 167.418 66.9074H187.418ZM187.418 128.873V66.9074H167.418V128.873H187.418ZM200.541 155.682C192.355 158.221 187.906 165.214 186.163 171.201L205.366 176.791C205.609 175.955 205.958 175.359 206.24 175.024C206.494 174.722 206.585 174.747 206.466 174.784L200.541 155.682ZM259.376 137.434L200.541 155.682L206.466 174.784L265.301 156.536L259.376 137.434ZM284.513 153.768C283.305 140.809 270.415 134.01 259.376 137.434L265.301 156.536C265.337 156.525 265.258 156.558 265.107 156.465C265.025 156.414 264.902 156.312 264.788 156.135C264.665 155.943 264.611 155.748 264.599 155.624L284.513 153.768ZM285.036 165.036C285.036 161.238 284.859 157.48 284.513 153.768L264.599 155.624C264.888 158.72 265.036 161.859 265.036 165.036H285.036ZM255.375 244.023C273.837 222.924 285.036 195.275 285.036 165.036H265.036C265.036 190.248 255.718 213.26 240.324 230.853L255.375 244.023ZM225.332 242.395C232.229 251.752 246.754 253.877 255.375 244.023L240.324 230.853C240.405 230.761 240.564 230.634 240.778 230.55C240.975 230.473 241.135 230.464 241.232 230.471C241.409 230.485 241.454 230.559 241.431 230.528L225.332 242.395ZM188.517 192.449L225.332 242.395L241.431 230.528L204.616 180.582L188.517 192.449ZM185.901 172.038C183.974 177.782 183.593 185.769 188.517 192.449L204.616 180.582C204.688 180.681 204.605 180.648 204.574 180.27C204.54 179.855 204.595 179.196 204.863 178.398L185.901 172.038ZM186.163 171.201C186.081 171.482 185.993 171.761 185.901 172.038L204.863 178.398C205.041 177.867 205.208 177.331 205.366 176.791L186.163 171.201Z" fill="url(#paint1_radial_512_433)" mask="url(#path-1-inside-1_512_433)"/>
<path d="M157.979 159.036C156.14 160.836 155 163.339 155 166.106C155 171.59 159.477 176.036 165 176.036C170.523 176.036 175 171.59 175 166.106C175 163.339 173.86 160.836 172.021 159.036" stroke="black" stroke-width="3"/>
<path d="M165 154.036V166.743" stroke="black" stroke-width="3"/>
<defs>
<radialGradient id="paint0_radial_512_433" cx="0" cy="0" r="1" gradientUnits="userSpaceOnUse" gradientTransform="translate(165.036 165.036) rotate(88.7667) scale(209.048 149.364)">
<stop offset="0.364583" stop-color="#A9AEA8"/>
<stop offset="1" stop-color="#DADED8"/>
</radialGradient>
<radialGradient id="paint1_radial_512_433" cx="0" cy="0" r="1" gradientUnits="userSpaceOnUse" gradientTransform="translate(165.036 165.036) rotate(88.7667) scale(209.048 149.364)">
<stop offset="0.364583" stop-color="#A9AEA8"/>
<stop offset="1" stop-color="#DADED8"/>
</radialGradient>
</defs>
</svg>
