<svg width="52" height="74" viewBox="0 0 52 74" fill="none" xmlns="http://www.w3.org/2000/svg">
<path d="M39.6355 26.5H0.5V22.5508H38.7753C41.1482 22.5508 43.4233 21.5954 45.0989 19.8981C46.775 18.2001 47.7157 15.8985 47.7157 13.5006C47.7157 11.1026 46.775 8.80096 45.0989 7.10301C43.4232 5.40471 41.1483 4.45029 38.7753 4.45029C36.4015 4.45029 34.1272 5.40477 32.4508 7.10301L32.8066 7.45427L32.4508 7.10301C30.8915 8.68261 29.9687 10.7844 29.8476 13.0006H25.9588C26.0889 9.73261 27.428 6.62741 29.7191 4.30894L29.7192 4.30888C32.0067 1.99325 35.0665 0.641709 38.2831 0.51053L38.283 0.532717L38.7826 0.537103C43.2369 0.576209 47.3548 2.95383 49.6574 6.82342C51.9595 10.6926 52.1148 15.4976 50.0652 19.5119C48.0188 23.5192 44.07 26.162 39.6355 26.5Z" fill="white" stroke="#181818"/>
<path d="M7.25 35.25H47.75V38.75H7.25V35.25Z" fill="white" stroke="#181818" stroke-width="0.5"/>
<path d="M45.0103 54.1108L45.0101 54.1106C43.3365 52.4115 41.065 51.4548 38.695 51.4548H0.5V47.5002H39.5451C42.8758 47.7252 45.9893 49.2631 48.2215 51.7897L48.2216 51.7898C50.4585 54.3198 51.6317 57.641 51.4882 61.0417L51.4882 61.0419C51.3455 64.4426 49.8979 67.6493 47.4574 69.976L47.4574 69.976C45.0171 72.3033 41.7784 73.5663 38.4357 73.4973C35.0923 73.4284 31.9067 72.0333 29.5612 69.6076C27.3308 67.3001 26.0294 64.2363 25.9004 61.0142H29.782C29.9026 63.2321 30.8229 65.3364 32.3798 66.9178L32.7362 66.567L32.3799 66.9178C34.0536 68.6179 36.3254 69.5737 38.695 69.5737C41.0646 69.5737 43.3365 68.6179 45.0102 66.9178L45.0103 66.9177C46.6828 65.2179 47.6217 62.9141 47.6217 60.5142C47.6217 58.1143 46.6828 55.8105 45.0103 54.1108Z" fill="white" stroke="#181818"/>
</svg>
